SplineFontDB: 3.0
FontName: Ambarisha-Regular
FullName: Ambarisha Regular
FamilyName: Ambarisha
Weight: Regular
Copyright: Ambarisha is a trademark of Appaji Ambarisha Darbha
Version: 1.01
ItalicAngle: 0
UnderlinePosition: 0
UnderlineWidth: 0
Ascent: 750
Descent: 250
InvalidEm: 0
sfntRevision: 0x00010000
LayerCount: 4
Layer: 0 0 "Back" 1
Layer: 1 0 "Fore" 0
Layer: 2 0 "Back 2" 1
Layer: 3 0 "Back 3" 1
XUID: [1021 388 1842285019 11741363]
FSType: 0
OS2Version: 3
OS2_WeightWidthSlopeOnly: 0
OS2_UseTypoMetrics: 1
CreationTime: 1442932758
ModificationTime: 1459400286
PfmFamily: 17
TTFWeight: 400
TTFWidth: 5
LineGap: 200
VLineGap: 0
Panose: 2 0 0 0 0 0 0 0 0 0
OS2TypoAscent: 750
OS2TypoAOffset: 0
OS2TypoDescent: -250
OS2TypoDOffset: 0
OS2TypoLinegap: 200
OS2WinAscent: 850
OS2WinAOffset: 0
OS2WinDescent: 350
OS2WinDOffset: 0
HheadAscent: 750
HheadAOffset: 0
HheadDescent: -250
HheadDOffset: 0
OS2SubXSize: 650
OS2SubYSize: 600
OS2SubXOff: 0
OS2SubYOff: 75
OS2SupXSize: 650
OS2SupYSize: 600
OS2SupXOff: 0
OS2SupYOff: 350
OS2StrikeYSize: 0
OS2StrikeYPos: 237
OS2CapHeight: 539
OS2XHeight: 396
OS2Vendor: 'AAD '
OS2CodePages: 20000093.00000000
OS2UnicodeRanges: 00400000.00000000.00000000.00000000
Lookup: 4 0 0 "'rphf' Reph Form lookup 0" { "'rphf' Reph Form lookup 0 subtable"  } ['rphf' ('DFLT' <'dflt' > 'knd2' <'dflt' > 'knda' <'dflt' > ) ]
Lookup: 4 0 0 "'blwf' Below Base Forms in Kannada2 lookup 1" { "'blwf' Below Base Forms in Kannada2 lookup 1 subtable"  } ['blwf' ('DFLT' <'dflt' > 'knd2' <'dflt' > ) ]
Lookup: 4 0 0 "'blwf' Below Base Forms in Kannada lookup 2" { "'blwf' Below Base Forms in Kannada lookup 2 subtable"  } ['blwf' ('knda' <'dflt' > ) ]
Lookup: 4 0 0 "'pres' Pre Base Substitutions lookup 3" { "'pres' Pre Base Substitutions lookup 3 subtable"  } ['pres' ('DFLT' <'dflt' > 'knd2' <'dflt' > 'knda' <'dflt' > ) ]

StartChar: .notdef
Encoding: 65536 -1 0
Width: 756
Flags: MW
HStem: 7 66<196 521 238 521 238 554> 630 66<238 521 238 238>
VStem: 172 66<73 630 73 663 73 672> 521 66<73 630 630 630>
LayerCount: 4
Back
Fore
SplineSet
172 663 m 2
 172 681 187 696 205 696 c 2
 554 696 l 2
 572 696 587 681 587 663 c 2
 587 40 l 2
 587 22 572 7 554 7 c 2
 205 7 l 2
 187 7 172 22 172 40 c 2
 172 663 l 2
521 630 m 1
 238 630 l 1
 238 73 l 1
 521 73 l 1
 521 630 l 1
EndSplineSet
Validated: 1
Layer: 2
Layer: 3
EndChar

StartChar: Eth
Encoding: 208 208 1
Width: 368
Flags: MW
HStem: -4 59 303 52 307 51 594 57
VStem: 66 63 273 66<223 444>
LayerCount: 4
Back
Fore
SplineSet
62 -4 m 1xbc
 60 -3 l 1
 64 98 66 201 66 304 c 1
 17 302 l 1
 17 355 l 1xdc
 66 356 l 1
 65 433 63 509 60 584 c 1
 26 581 l 1
 21 632 l 1
 53 641 104 651 174 651 c 0
 286 651 339 578 339 349 c 0
 339 62 298 -4 62 -4 c 1xbc
130 358 m 1xbc
 195 359 l 1
 197 308 l 1
 132 306 l 1
 133 223 132 140 129 55 c 1
 251 61 273 97 273 349 c 0
 273 539 240 609 121 591 c 1
 125 512 128 435 130 358 c 1xbc
EndSplineSet
Validated: 33
Layer: 2
Layer: 3
EndChar

StartChar: eth
Encoding: 240 240 2
Width: 340
Flags: MW
HStem: -2 58<146 184 146 194.5> 447 49<151 187> 635 20G<316 316>
VStem: 30 62<152 294 152 319> 239 59<170.5 289>
LayerCount: 4
Back
Fore
SplineSet
219 494 m 1
 214 518 208 544 200 573 c 1
 110 546 l 1
 101 596 l 1
 188 616 l 1
 182 636 175 659 168 683 c 1
 223 700 l 1
 231 676 238 654 245 632 c 1
 316 655 l 1
 326 605 l 1
 257 589 l 1
 284 489 298 395 298 252 c 0
 298 58 232 -2 157 -2 c 0
 82 -2 30 46 30 242 c 0
 30 396 79 496 183 496 c 0
 196 496 208 496 219 494 c 1
229 440 m 1
 217 444 197 447 177 447 c 0
 125 447 92 380 92 208 c 0
 92 96 128 56 164 56 c 0
 204 56 239 88 239 253 c 0
 239 325 238 377 229 440 c 1
EndSplineSet
Validated: 1
Layer: 2
Layer: 3
EndChar

StartChar: Lslash
Encoding: 321 321 3
Width: 288
Flags: MW
HStem: -6 64 0 21G<288 288> 633 20G<122 122>
VStem: 54 68<642 653> 68 64<-6 53>
LayerCount: 4
Back
Fore
SplineSet
54 642 m 1xa8
 122 653 l 1xb0
 123 547 124 463 125 384 c 1
 195 410 l 1xa8
 209 359 l 1
 126 333 l 1
 127 244 129 159 132 53 c 1
 287 64 l 1x68
 288 0 l 1xa8
 68 -6 l 1
 67 119 68 214 66 313 c 1
 1 289 l 1xb0
 -14 341 l 1
 65 364 l 1
 63 445 60 531 54 642 c 1xa8
EndSplineSet
Validated: 1
Layer: 2
Layer: 3
EndChar

StartChar: lslash
Encoding: 322 322 4
Width: 166
Flags: MW
HStem: -7 21G<57 57>
VStem: 40 67<688 695> 57 69<4 4 4 51>
LayerCount: 4
Back
Fore
SplineSet
40 688 m 1xc0
 107 695 l 1xc0
 109 569 111 472 113 384 c 1
 184 410 l 1xa0
 198 359 l 1
 114 333 l 1
 118 226 121 129 126 4 c 1
 57 -7 l 1
 57 109 56 210 54 312 c 1
 -10 289 l 1
 -25 341 l 1
 53 364 l 1
 50 462 46 565 40 688 c 1xc0
EndSplineSet
Validated: 1
Layer: 2
Layer: 3
EndChar

StartChar: Scaron
Encoding: 352 352 5
Width: 275
Flags: MW
HStem: -8 55<97 143 97 151> 604 54<126 155>
VStem: 20 63<518 564 518 582> 193 62<89 141.5>
LayerCount: 4
Back
Fore
SplineSet
223 648 m 1
 214 595 l 1
 186 599 165 604 145 604 c 0
 107 604 83 583 83 545 c 0
 83 491 112 430 156 362 c 0
 220 264 255 188 255 128 c 0
 255 25 201 -8 101 -8 c 0
 74 -8 49 -5 22 5 c 1
 30 55 l 1
 57 50 83 47 111 47 c 0
 175 47 193 64 193 114 c 0
 193 169 163 229 116 304 c 0
 75 370 20 457 20 544 c 0
 20 620 68 658 150 658 c 0
 180 658 200 654 223 648 c 1
266 775 m 1
 144 680 l 1
 19 776 l 1
 55 820 l 1
 144 745 l 1
 233 820 l 1
 266 775 l 1
EndSplineSet
Validated: 1
Layer: 2
Layer: 3
EndChar

StartChar: scaron
Encoding: 353 353 6
Width: 280
Flags: MW
HStem: -8 55<98 134 98 150.5> 449 54<145 161 145 161>
VStem: 40 63<392.5 426.5 392.5 433.5> 187 62<77 121.5>
LayerCount: 4
Back
Fore
SplineSet
225 496 m 1
 216 443 l 1
 188 447 171 449 151 449 c 0
 126 449 103 441 103 412 c 0
 103 373 116 356 157 293 c 0
 215 206 249 164 249 104 c 0
 249 17 183 -8 118 -8 c 0
 78 -8 61 -5 34 5 c 1
 42 55 l 1
 69 50 84 47 112 47 c 0
 156 47 187 54 187 100 c 0
 187 143 162 172 117 240 c 0
 78 299 40 339 40 411 c 0
 40 456 73 502 145 503 c 0
 177 503 190 502 225 496 c 1
263 709 m 1
 141 564 l 1
 16 705 l 1
 62 741 l 1
 141 643 l 1
 215 743 l 1
 263 709 l 1
EndSplineSet
Validated: 1
Layer: 2
Layer: 3
EndChar

StartChar: Yacute
Encoding: 221 221 7
Width: 278
Flags: MW
HStem: -4 21G<114 114> 634 20G<65 65>
VStem: 110 65<269 269>
LayerCount: 4
Back
Fore
SplineSet
147 336 m 1
 168 431 188 508 210 650 c 1
 278 647 l 1
 247 519 198 346 175 269 c 1
 176 164 179 78 183 2 c 1
 114 -4 l 1
 113 71 114 176 110 269 c 1
 84 389 46 480 0 643 c 1
 65 654 l 1
 92 525 114 465 147 336 c 1
211 820 m 1
 238 760 l 1
 188 739 115 706 70 685 c 1
 50 728 l 1
 92 749 150 781 211 820 c 1
EndSplineSet
Validated: 1
Layer: 2
Layer: 3
EndChar

StartChar: yacute
Encoding: 253 253 8
Width: 340
Flags: MW
HStem: -180 60<149.5 202.5 149.5 213.5> -3 63<116.5 170 116.5 176>
VStem: 35 66<494 500> 247 58<-52.5 18.5>
LayerCount: 4
Back
Fore
SplineSet
247 -6 m 0
 247 43 245 107 245 187 c 1
 226 81 211 -3 141 -3 c 0
 32 -3 38 95 35 494 c 1
 101 500 l 1
 99 137 90 60 143 60 c 0
 197 60 223 165 228 495 c 1
 291 502 l 1
 294 279 305 82 305 -32 c 0
 305 -137 266 -180 161 -180 c 0
 127 -180 89 -176 49 -170 c 1
 60 -109 l 1
 94 -116 131 -120 168 -120 c 0
 237 -120 247 -99 247 -6 c 0
205 746 m 1
 261 703 l 1
 225 665 167 605 134 568 c 1
 99 600 l 1
 129 636 165 685 205 746 c 1
EndSplineSet
Validated: 33
Layer: 2
Layer: 3
EndChar

StartChar: Thorn
Encoding: 222 222 9
Width: 328
Flags: MW
HStem: -4 21G<55 55> 445 56
VStem: 40 70 232 66<298 382>
LayerCount: 4
Back
Fore
SplineSet
118 153 m 1
 119 107 121 59 124 2 c 1
 55 -4 l 1
 54 241 54 371 40 645 c 1
 107 652 l 1
 108 592 108 541 109 494 c 1
 127 498 145 501 163 501 c 0
 248 501 298 465 298 337 c 0
 298 238 263 169 118 153 c 1
110 441 m 1
 111 349 113 277 116 199 c 1
 219 212 232 256 232 340 c 0
 232 424 200 459 110 441 c 1
EndSplineSet
Validated: 33
Layer: 2
Layer: 3
EndChar

StartChar: thorn
Encoding: 254 254 10
Width: 353
Flags: MW
HStem: -186 21G<54 54> 0 49<162.5 199.5 162.5 217> 442 61<190 220>
VStem: 54 53 254 64<201 344>
LayerCount: 4
Back
Fore
SplineSet
171 49 m 0
 228 49 254 121 254 281 c 0
 254 407 239 442 201 442 c 0
 152 442 116 328 116 63 c 1
 130 52 154 49 171 49 c 0
40 688 m 1
 105 700 l 1
 109 362 l 1
 127 472 168 503 212 503 c 0
 286 503 318 451 318 256 c 0
 318 102 269 0 165 0 c 0
 146 0 130 1 116 4 c 1
 116 -36 117 -89 121 -175 c 1
 54 -186 l 1
 60 47 53 508 40 688 c 1
EndSplineSet
Validated: 33
Layer: 2
Layer: 3
EndChar

StartChar: Zcaron
Encoding: 381 381 11
Width: 286
Flags: MW
HStem: -1 54 592 56<177 188>
VStem: 21 250
LayerCount: 4
Back
Fore
SplineSet
250 648 m 1
 256 610 l 1
 220 492 121 155 93 53 c 1
 140 53 232 55 266 57 c 1
 264 0 l 1
 28 -1 l 1
 21 34 l 1
 71 190 156 457 188 592 c 1
 166 592 84 591 40 589 c 1
 38 648 l 1
 250 648 l 1
271 775 m 1
 149 680 l 1
 24 776 l 1
 60 820 l 1
 149 745 l 1
 238 820 l 1
 271 775 l 1
EndSplineSet
Validated: 1
Layer: 2
Layer: 3
EndChar

StartChar: zcaron
Encoding: 382 382 12
Width: 272
Flags: MW
HStem: -1 54 441 56<164 175>
VStem: 10 247<705 709> 26 224
LayerCount: 4
Back
Fore
SplineSet
240 497 m 1xe0
 245 459 l 1
 200 341 131 155 100 53 c 1
 147 53 218 56 252 60 c 1
 250 0 l 1
 28 -1 l 1
 25 39 l 1
 90 195 134 305 175 441 c 1
 153 441 76 440 32 438 c 1
 30 497 l 1
 240 497 l 1xe0
257 709 m 1
 135 564 l 1
 10 705 l 1
 56 741 l 1
 135 643 l 1
 209 743 l 1xd0
 257 709 l 1
EndSplineSet
Validated: 1
Layer: 2
Layer: 3
EndChar

StartChar: onehalf
Encoding: 189 189 13
Width: 514
Flags: MW
HStem: 0 54<406 420 406 488> 255 50<393.5 402>
VStem: 96 48 424 58<181 221.5>
LayerCount: 4
Back
Fore
SplineSet
143 -15 m 1
 90 11 l 1
 156 151 289 478 352 660 c 1
 408 639 l 1
 332 459 209 152 143 -15 c 1
102 651 m 1
 144 645 l 1
 145 534 148 447 154 348 c 1
 96 339 l 1
 96 431 96 493 95 554 c 1
 50 501 l 1
 8 540 l 1
 50 578 70 604 102 651 c 1
482 225 m 0
 482 137 428 70 406 54 c 1
 434 54 469 57 489 59 c 1
 488 0 l 1
 338 0 l 1
 335 36 l 1
 385 83 424 140 424 207 c 0
 424 236 414 255 390 255 c 0
 371 255 360 251 344 245 c 1
 331 289 l 1
 351 297 378 305 409 305 c 0
 456 305 482 271 482 225 c 0
EndSplineSet
Validated: 1
Layer: 2
Layer: 3
EndChar

StartChar: onequarter
Encoding: 188 188 14
Width: 522
Flags: MW
HStem: -4 21G<404 404> 51 47<357 404 313 405>
VStem: 96 48 404 56 405 47
LayerCount: 4
Back
Fore
SplineSet
143 -15 m 1xe8
 90 11 l 1
 156 151 289 478 352 660 c 1
 408 639 l 1
 332 459 209 152 143 -15 c 1xe8
102 651 m 1
 144 645 l 1
 145 534 148 447 154 348 c 1
 96 339 l 1
 96 431 96 493 95 554 c 1
 50 501 l 1
 8 540 l 1
 50 578 70 604 102 651 c 1
405 241 m 1
 385 169 375 148 357 98 c 1
 373 98 389 98 405 98 c 1xf0
 405 153 405 203 405 241 c 1
404 -4 m 1
 404 51 l 1
 313 51 l 1
 303 71 l 1
 334 142 366 230 383 306 c 1
 452 303 l 1xf0
 453 228 454 164 457 100 c 1
 477 100 493 101 500 102 c 1
 500 52 l 1xe8
 459 52 l 1
 460 36 461 21 462 5 c 1
 404 -4 l 1
EndSplineSet
Validated: 1
Layer: 2
Layer: 3
EndChar

StartChar: onesuperior
Encoding: 185 185 15
Width: 204
Flags: MW
HStem: 339 312<96 102>
VStem: 96 48
LayerCount: 4
Back
Fore
SplineSet
102 651 m 1
 144 645 l 1
 145 534 148 447 154 348 c 1
 96 339 l 1
 96 431 96 493 95 554 c 1
 50 501 l 1
 8 540 l 1
 50 578 70 604 102 651 c 1
EndSplineSet
Validated: 1
Layer: 2
Layer: 3
EndChar

StartChar: threequarters
Encoding: 190 190 16
Width: 524
Flags: MW
HStem: -4 21G<406 406> 51 47<359 406 315 407> 344 51<64.5 90 62.5 98> 605 50<75.5 82>
VStem: 106 58<559 578> 121 56<431 455.5> 406 56 407 47
LayerCount: 4
Back
Fore
SplineSet
145 -15 m 1xf6
 92 11 l 1
 158 151 291 478 354 660 c 1
 410 639 l 1
 334 459 211 152 145 -15 c 1xf6
407 241 m 1
 387 169 377 148 359 98 c 1
 375 98 391 98 407 98 c 1xf5
 407 153 407 203 407 241 c 1
406 -4 m 1
 406 51 l 1
 315 51 l 1
 305 71 l 1
 336 142 368 230 385 306 c 1
 454 303 l 1
 455 228 456 164 459 100 c 1xfa
 479 100 495 101 502 102 c 1
 502 52 l 1
 461 52 l 1
 462 36 463 21 464 5 c 1
 406 -4 l 1
106 567 m 0
 106 589 94 605 70 605 c 0
 51 605 42 601 26 595 c 1
 13 639 l 1
 33 647 60 655 91 655 c 0xfa
 138 655 164 621 164 575 c 0
 164 543 145 520 128 513 c 1
 157 505 177 482 177 436 c 0xf9
 177 360 123 344 73 344 c 0
 56 344 31 346 15 352 c 1
 24 401 l 1
 40 398 54 395 71 395 c 0
 109 395 121 417 121 445 c 0
 121 466 108 483 77 491 c 1xf5
 75 519 l 1
 100 530 106 545 106 567 c 0
EndSplineSet
Validated: 1
Layer: 2
Layer: 3
EndChar

StartChar: threesuperior
Encoding: 179 179 17
Width: 202
Flags: MW
HStem: 344 51<64.5 90 62.5 98> 605 50<75.5 82>
VStem: 106 58<559 578> 121 56<431 455.5>
LayerCount: 4
Back
Fore
SplineSet
106 567 m 0xd0
 106 589 94 605 70 605 c 0
 51 605 42 601 26 595 c 1xd0
 13 639 l 1
 33 647 60 655 91 655 c 0
 138 655 164 621 164 575 c 0
 164 543 145 520 128 513 c 1
 157 505 177 482 177 436 c 0
 177 360 123 344 73 344 c 0
 56 344 31 346 15 352 c 1
 24 401 l 1xe0
 40 398 54 395 71 395 c 0
 109 395 121 417 121 445 c 0
 121 466 108 483 77 491 c 1
 75 519 l 1
 100 530 106 545 106 567 c 0xd0
EndSplineSet
Validated: 1
Layer: 2
Layer: 3
EndChar

StartChar: twosuperior
Encoding: 178 178 18
Width: 200
Flags: MW
HStem: 350 54<92 106 92 174> 605 50<79.5 88>
VStem: 110 58<531 571.5>
LayerCount: 4
Back
Fore
SplineSet
168 575 m 0
 168 487 114 420 92 404 c 1
 120 404 155 407 175 409 c 1
 174 350 l 1
 24 350 l 1
 21 386 l 1
 71 433 110 490 110 557 c 0
 110 586 100 605 76 605 c 0
 57 605 46 601 30 595 c 1
 17 639 l 1
 37 647 64 655 95 655 c 0
 142 655 168 621 168 575 c 0
EndSplineSet
Validated: 1
Layer: 2
Layer: 3
EndChar

StartChar: brokenbar
Encoding: 166 166 19
Width: 200
Flags: MW
HStem: -140 846<77 125>
VStem: 77 52
LayerCount: 4
Back
Fore
SplineSet
128 353 m 1
 76 351 l 1
 75 472 72 593 66 705 c 1
 125 706 l 1
 126 596 127 475 128 353 c 1
76 248 m 1
 128 252 l 1
 129 251 l 1
 131 112 133 -23 137 -138 c 1
 77 -140 l 1
 77 -24 77 110 76 248 c 1
EndSplineSet
Validated: 1
Layer: 2
Layer: 3
EndChar

StartChar: minus
Encoding: 8722 8722 20
Width: 389
Flags: MW
HStem: -180 63 758 60
VStem: 31 311<-130 -108>
LayerCount: 4
Back
Fore
SplineSet
110 -116 m 1
 157 -116 308 -114 342 -108 c 1
 340 -179 l 1
 37 -180 l 1
 31 -130 l 1
 67 -43 166 254 184 335 c 1
 167 383 65 713 45 776 c 1
 54 816 l 1
 338 820 l 1
 336 758 l 1
 292 758 178 758 127 759 c 1
 141 698 236 400 258 344 c 1
 234 252 130 -53 110 -116 c 1
EndSplineSet
Validated: 1
Layer: 2
Layer: 3
EndChar

StartChar: multiply
Encoding: 215 215 21
Width: 380
Flags: MW
HStem: 155 280<100 279>
VStem: 54 271<200 388>
LayerCount: 4
Back
Fore
SplineSet
96 431 m 1
 189 330 l 1
 279 435 l 1
 318 398 l 1
 226 295 l 1
 325 200 l 1
 283 159 l 1
 189 260 l 1
 100 155 l 1
 60 195 l 1
 153 294 l 1
 54 388 l 1
 96 431 l 1
EndSplineSet
Validated: 1
Layer: 2
Layer: 3
EndChar

StartChar: exclam
Encoding: 33 33 23
Width: 187
Flags: MW
HStem: -7 103<80 104.5>
VStem: 42 103<38.5 49.5> 61 52<189 235>
LayerCount: 4
Back
Fore
SplineSet
145 52 m 0xa0
 145 25 122 -7 87 -7 c 0xc0
 56 -7 42 11 42 36 c 0
 42 63 59 96 101 96 c 0
 130 96 145 75 145 52 c 0xa0
40 643 m 1
 115 652 l 1xa0
 113 466 113 295 113 189 c 1
 61 183 l 1
 61 287 49 491 40 643 c 1
EndSplineSet
Validated: 1
Layer: 2
Layer: 3
EndChar

StartChar: quotedbl
Encoding: 34 34 24
Width: 220
Flags: MW
HStem: 501 189<79 137> 504 180
VStem: 28 46<503 530.5> 122 68<683 688>
LayerCount: 4
Back
Fore
SplineSet
10 680 m 1xb0
 79 690 l 1
 77 638 74 555 74 506 c 1
 28 503 l 1
 27 550 20 608 10 680 c 1xb0
122 683 m 1
 190 688 l 1x70
 186 636 183 559 182 510 c 1
 137 501 l 1
 134 548 131 611 122 683 c 1
EndSplineSet
Validated: 1
Layer: 2
Layer: 3
EndChar

StartChar: numbersign
Encoding: 35 35 25
Width: 408
Flags: MW
HStem: -4 21G<105 105> -2 21G<259 259>
VStem: 89 60<642 649> 101 51<367 380> 105 62<2 2 2 27.5> 243 60<641 641> 253 51<404 417> 259 62<2 2 2 37>
LayerCount: 4
Back
Fore
SplineSet
89 642 m 1x64
 149 649 l 1
 150 564 150 495 151 435 c 1x64
 251 459 l 1
 249 513 246 572 243 641 c 1
 303 652 l 1
 303 583 303 524 304 472 c 1
 383 491 l 1
 390 438 l 1
 304 417 l 1x62
 305 364 306 318 307 272 c 1
 391 292 l 1
 398 239 l 1
 309 217 l 1
 312 153 316 86 321 2 c 1
 259 -2 l 1x61
 259 76 258 142 257 205 c 1x89
 158 180 l 1
 160 127 163 71 167 2 c 1
 105 -4 l 1
 105 59 105 115 104 167 c 1
 27 148 l 1
 18 202 l 1
 104 223 l 1
 103 271 102 318 101 367 c 1x54
 19 347 l 1
 10 401 l 1
 99 422 l 1
 97 487 94 557 89 642 c 1x64
156 235 m 1
 257 260 l 1
 256 307 254 354 253 404 c 1x52
 152 380 l 1
 153 328 154 282 156 235 c 1
EndSplineSet
Validated: 1
Layer: 2
Layer: 3
EndChar

StartChar: dollar
Encoding: 36 36 26
Width: 275
Flags: MW
HStem: 58 55<97 108> 535 54<126 160>
VStem: 20 63<457 495 457 505.5> 103 58 106 58 193 62<150 202.5>
LayerCount: 4
Back
Fore
SplineSet
223 579 m 1xc8
 214 526 l 1
 186 530 165 535 145 535 c 0
 107 535 83 514 83 476 c 0
 83 438 108 406 156 357 c 0
 200 312 255 249 255 189 c 0xec
 255 108 220 73 161 62 c 1
 168 -47 l 1
 105 -52 l 1
 108 58 l 1xc8
 81 58 49 61 22 71 c 1
 30 121 l 1
 57 116 83 113 111 113 c 0
 175 113 193 125 193 175 c 0
 193 230 158 264 116 304 c 0
 70 348 20 413 20 475 c 0xec
 20 536 51 573 107 585 c 1
 99 687 l 1
 163 692 l 1
 160 589 l 1xd0
 185 588 203 584 223 579 c 1xc8
EndSplineSet
Validated: 1
Layer: 2
Layer: 3
EndChar

StartChar: percent
Encoding: 37 37 27
Width: 618
Flags: MW
HStem: -6 21G<262 262> 0 47<463.5 501 463.5 518.5> 278 49<461 497> 321 47<118.5 156 118.5 170.5> 599 49<116 152> 635 20G<349 349>
VStem: 30 55<456 521.5 456 531.5> 182 60<444.5 518 433.5 525.5> 375 57<135 200.5 135 210.5> 531 57<123.5 197 112.5 204.5>
LayerCount: 4
Back
Fore
SplineSet
262 -6 m 1x57c0
 203 7 l 1x5bc0
 245 159 317 463 349 655 c 1
 408 644 l 1
 366 451 296 172 262 -6 c 1x57c0
139 648 m 0
 223 648 242 558 242 478 c 0
 242 389 213 321 128 321 c 0
 66 321 30 378 30 481 c 0
 30 582 65 648 139 648 c 0
182 483 m 0
 182 568 168 599 136 599 c 0
 96 599 85 555 85 488 c 0
 85 424 100 368 137 368 c 0
 175 368 182 406 182 483 c 0
484 327 m 0
 568 327 588 237 588 157 c 0
 588 68 561 0 476 0 c 0
 415 0 375 58 375 160 c 0
 375 261 410 327 484 327 c 0
531 162 m 0
 531 247 513 278 481 278 c 0
 441 278 432 234 432 167 c 0
 432 103 445 47 482 47 c 0
 520 47 531 85 531 162 c 0
EndSplineSet
Validated: 1
Layer: 2
Layer: 3
EndChar

StartChar: ampersand
Encoding: 38 38 28
Width: 400
Flags: MW
HStem: -12 21G<323 323> 0 56<177.5 188.5> 588 60<83.5 98>
VStem: 20 49<532 560 532 572> 85 53<88.5 132.5 88.5 142.5> 110 53<530 544> 298 55
LayerCount: 4
Back
Fore
SplineSet
375 23 m 1xb6
 323 -12 l 1
 315 -1 299 21 278 50 c 1
 248 18 211 0 166 0 c 0x76
 129 0 85 28 85 115 c 0
 85 170 91 250 98 328 c 1xaa
 53 409 20 488 20 544 c 0
 20 600 36 648 108 648 c 0
 155 648 163 600 163 557 c 0
 163 503 156 429 149 346 c 1
 186 282 232 212 279 146 c 1
 297 195 304 267 292 364 c 1x6a
 347 377 l 1
 361 270 348 171 313 101 c 1
 334 74 355 47 375 23 c 1xb6
106 429 m 1
 108 467 110 502 110 530 c 0
 110 558 106 588 90 588 c 0
 77 588 69 574 69 546 c 0
 69 518 83 477 106 429 c 1
249 90 m 1
 217 136 179 192 143 251 c 1
 140 205 138 157 138 108 c 0
 138 69 166 56 189 56 c 0
 208 56 230 67 249 90 c 1
EndSplineSet
Validated: 33
Layer: 2
Layer: 3
EndChar

StartChar: quotesingle
Encoding: 39 39 29
Width: 109
Flags: MW
HStem: 503 187<28 79> 504 180
VStem: 28 46<503 530.5>
LayerCount: 4
Back
Fore
SplineSet
10 680 m 1xa0
 79 690 l 1x60
 77 638 74 555 74 506 c 1
 28 503 l 1
 27 550 20 608 10 680 c 1xa0
EndSplineSet
Validated: 1
Layer: 2
Layer: 3
EndChar

StartChar: parenleft
Encoding: 40 40 30
Width: 188
Flags: MW
HStem: -126 841<138 156>
VStem: 20 60<214 406 214 421>
LayerCount: 4
Back
Fore
SplineSet
138 715 m 1
 173 695 l 1
 106 584 80 496 80 316 c 0
 80 112 127 -9 188 -99 c 1
 156 -126 l 1
 86 -65 20 102 20 310 c 0
 20 532 79 642 138 715 c 1
EndSplineSet
Validated: 1
Layer: 2
Layer: 3
EndChar

StartChar: parenright
Encoding: 41 41 31
Width: 188
Flags: MW
HStem: -126 841<32 50>
VStem: 108 60<207 399>
LayerCount: 4
Back
Fore
SplineSet
50 -126 m 1
 16 -102 l 1
 88 9 108 117 108 297 c 0
 108 501 61 598 0 688 c 1
 32 715 l 1
 105 653 168 511 168 303 c 0
 168 81 115 -53 50 -126 c 1
EndSplineSet
Validated: 1
Layer: 2
Layer: 3
EndChar

StartChar: asterisk
Encoding: 42 42 32
Width: 324
Flags: MW
HStem: 401 291<111 186>
VStem: 20 284<551 570>
LayerCount: 4
Back
Fore
SplineSet
35 613 m 1
 139 574 l 1
 122 687 l 1
 186 692 l 1
 179 575 l 1
 279 628 l 1
 304 570 l 1
 191 538 l 1
 274 454 l 1
 226 413 l 1
 165 507 l 1
 111 401 l 1
 57 434 l 1
 134 535 l 1
 20 551 l 1
 35 613 l 1
EndSplineSet
Validated: 1
Layer: 2
Layer: 3
EndChar

StartChar: plus
Encoding: 43 43 33
Width: 380
Flags: MW
HStem: 267 53 272 52
VStem: 159 56 164 55
LayerCount: 4
Back
Fore
SplineSet
216 454 m 1xa0
 215 321 l 1x60
 348 327 l 1
 349 273 l 1
 216 271 l 1
 223 137 l 1
 164 137 l 1x50
 165 270 l 1
 32 264 l 1
 32 321 l 1x90
 163 319 l 1
 156 453 l 1
 216 454 l 1xa0
EndSplineSet
Validated: 1
Layer: 2
Layer: 3
EndChar

StartChar: comma
Encoding: 44 44 34
Width: 187
Flags: MW
HStem: -108 202<75 95>
VStem: 75 60<88 94>
LayerCount: 4
Back
Fore
SplineSet
75 94 m 1
 135 88 l 1
 131 5 114 -59 95 -108 c 1
 52 -94 l 1
 62 -47 74 22 75 94 c 1
EndSplineSet
Validated: 1
Layer: 2
Layer: 3
EndChar

StartChar: hyphen
Encoding: 45 45 35
Width: 250
Flags: MW
HStem: 267 55
VStem: 32 187<264 325 321 325>
LayerCount: 4
Back
Fore
SplineSet
32 264 m 1
 32 321 l 1
 219 325 l 1
 220 271 l 1
 32 264 l 1
EndSplineSet
Validated: 1
Layer: 2
Layer: 3
EndChar

StartChar: period
Encoding: 46 46 36
Width: 187
Flags: MW
HStem: -7 103<80 104.5>
VStem: 42 103<38.5 49.5>
LayerCount: 4
Back
Fore
SplineSet
145 52 m 0
 145 25 122 -7 87 -7 c 0
 56 -7 42 11 42 36 c 0
 42 63 59 96 101 96 c 0
 130 96 145 75 145 52 c 0
EndSplineSet
Validated: 1
Layer: 2
Layer: 3
EndChar

StartChar: slash
Encoding: 47 47 37
Width: 216
Flags: MW
HStem: -146 847<74 141>
VStem: 15 186
LayerCount: 4
Back
Fore
SplineSet
74 -146 m 1
 15 -138 l 1
 46 14 123 509 141 701 c 1
 201 698 l 1
 170 505 98 32 74 -146 c 1
EndSplineSet
Validated: 1
Layer: 2
Layer: 3
EndChar

StartChar: zero
Encoding: 48 48 38
Width: 345
Flags: MW
HStem: -10 59<149.5 205 149.5 232.5> 600 58<140 195>
VStem: 35 65<219 414.5 219 430> 243 67<221.5 403.5 206.5 432.5>
LayerCount: 4
Back
Fore
SplineSet
174 658 m 0
 297 658 310 518 310 289 c 0
 310 124 297 -10 168 -10 c 0
 69 -10 35 80 35 310 c 0
 35 550 59 658 174 658 c 0
243 319 m 0
 243 546 220 600 170 600 c 0
 110 600 100 508 100 321 c 0
 100 117 118 49 181 49 c 0
 229 49 243 124 243 319 c 0
EndSplineSet
Validated: 1
Layer: 2
Layer: 3
EndChar

StartChar: one
Encoding: 49 49 39
Width: 233
Flags: MW
HStem: -7 21G<122 122>
VStem: 122 52
LayerCount: 4
Back
Fore
SplineSet
132 651 m 1
 174 645 l 1
 178 337 180 250 188 6 c 1
 122 -7 l 1
 122 217 122 313 119 544 c 1
 52 468 l 1
 10 512 l 1
 55 552 100 603 132 651 c 1
EndSplineSet
Validated: 1
Layer: 2
Layer: 3
EndChar

StartChar: two
Encoding: 50 50 40
Width: 284
Flags: MW
HStem: -1 55 594 58<112 139.5>
VStem: 180 62<432 533.5>
LayerCount: 4
Back
Fore
SplineSet
242 526 m 0
 242 338 144 155 91 54 c 1
 138 54 219 60 254 63 c 1
 252 0 l 1
 30 -1 l 1
 26 38 l 1
 115 195 180 355 180 508 c 0
 180 559 163 594 116 594 c 0
 84 594 60 585 33 577 c 1
 20 625 l 1
 53 640 86 652 138 652 c 0
 217 652 242 602 242 526 c 0
EndSplineSet
Validated: 1
Layer: 2
Layer: 3
EndChar

StartChar: three
Encoding: 51 51 41
Width: 285
Flags: MW
HStem: -8 55<84.5 127 81 141> 596 56<96 125.5>
VStem: 170 64<464.5 533> 193 62<125 212.5>
LayerCount: 4
Back
Fore
SplineSet
255 171 m 0xe0
 255 45 183 -8 99 -8 c 0
 70 -8 42 -6 15 5 c 1
 23 55 l 1
 50 50 67 47 95 47 c 0
 159 47 193 83 193 167 c 0
 193 258 162 296 89 305 c 1
 86 352 l 1
 133 373 170 413 170 501 c 0xd0
 170 565 146 596 105 596 c 0
 73 596 57 590 30 582 c 1
 17 630 l 1
 50 644 70 652 122 652 c 0
 212 652 234 581 234 501 c 0
 234 428 212 382 161 346 c 1
 209 322 255 280 255 171 c 0xe0
EndSplineSet
Validated: 1
Layer: 2
Layer: 3
EndChar

StartChar: four
Encoding: 52 52 42
Width: 331
Flags: MW
HStem: -6 21G<199 199> 114 54
VStem: 199 61
LayerCount: 4
Back
Fore
SplineSet
196 545 m 1
 157 392 120 270 87 169 c 1
 132 169 168 169 199 170 c 1
 199 287 198 426 196 545 c 1
199 104 m 1
 199 115 l 1
 26 114 l 1
 22 153 l 1
 84 295 146 500 180 651 c 1
 254 647 l 1
 255 487 255 331 260 173 c 1
 283 174 300 176 313 178 c 1
 313 115 l 1
 262 115 l 1
 263 78 265 40 267 3 c 1
 199 -6 l 1
 199 104 l 1
EndSplineSet
Validated: 1
Layer: 2
Layer: 3
EndChar

StartChar: five
Encoding: 53 53 43
Width: 293
Flags: MW
HStem: -7 54<97 131.5 97 150.5> 1 21G<33 33> 592 56
VStem: 51 62<592 645> 203 63<133 235 117 235.5>
LayerCount: 4
Back
Fore
SplineSet
57 312 m 1xb8
 60 371 59 520 51 645 c 1
 242 651 l 1
 241 592 l 1
 113 592 l 1
 114 496 114 419 117 360 c 1
 217 352 266 289 266 181 c 0
 266 53 200 -7 101 -7 c 0
 88 -7 53 -6 33 1 c 1xb8
 41 51 l 1
 58 48 91 47 103 47 c 0x78
 160 47 203 81 203 185 c 0
 203 286 145 312 57 312 c 1xb8
EndSplineSet
Validated: 33
Layer: 2
Layer: 3
EndChar

StartChar: six
Encoding: 54 54 44
Width: 320
Flags: MW
HStem: -6 50<153.5 192.5 153.5 213.5> 361 63<160 198.5> 639 20G<99 99>
VStem: 35 54 237 61<148.5 265>
LayerCount: 4
Back
Fore
SplineSet
174 44 m 0
 211 44 237 79 237 211 c 0
 237 319 216 361 181 361 c 0
 122 361 102 225 102 173 c 0
 102 78 133 44 174 44 c 0
35 243 m 0
 35 435 73 556 99 659 c 1
 154 642 l 1
 96 449 92 354 89 284 c 1
 100 340 126 424 194 424 c 0
 277 424 298 326 298 218 c 0
 298 79 265 -6 162 -6 c 0
 87 -6 35 53 35 243 c 0
EndSplineSet
Validated: 1
Layer: 2
Layer: 3
EndChar

StartChar: seven
Encoding: 55 55 45
Width: 243
Flags: MW
HStem: -5 21G<126 126> 591 56
VStem: 5 221<648 648>
LayerCount: 4
Back
Fore
SplineSet
6 589 m 1
 5 648 l 1
 226 648 l 1
 228 617 l 1xe0
 185 395 161 246 126 -5 c 1
 59 6 l 1
 111 262 132 366 168 594 c 1
 6 589 l 1
EndSplineSet
Validated: 1
Layer: 2
Layer: 3
EndChar

StartChar: eight
Encoding: 56 56 46
Width: 343
Flags: MW
HStem: -8 59<149 198.5 149 213> 307 47<144.5 185.5 144.5 190.5> 598 58<137.5 181.5>
VStem: 35 62<135 214 135 216> 225 66<444.5 519.5> 242 66<140.5 211.5 118 223>
LayerCount: 4
Back
Fore
SplineSet
225 475 m 0xf4
 225 564 202 598 161 598 c 0
 114 598 99 554 99 481 c 0
 99 412 124 354 165 354 c 0
 206 354 225 398 225 475 c 0xf4
164 656 m 0
 263 656 291 577 291 468 c 0xf8
 291 421 271 355 238 336 c 1
 283 321 308 251 308 172 c 0xf4
 308 64 263 -8 163 -8 c 0
 76 -8 35 65 35 176 c 0
 35 256 59 309 91 330 c 1
 59 354 37 414 37 472 c 0
 37 585 77 656 164 656 c 0
242 179 m 0
 242 267 212 307 169 307 c 0
 117 307 97 243 97 185 c 0
 97 85 123 51 175 51 c 0
 222 51 242 102 242 179 c 0
EndSplineSet
Validated: 1
Layer: 2
Layer: 3
EndChar

StartChar: nine
Encoding: 57 57 47
Width: 339
Flags: MW
HStem: -6 21G<231 231> 185 61<125.5 163.5> 603 54<145 180.5>
VStem: 26 61<345 471.5 345 482> 233 44
LayerCount: 4
Back
Fore
SplineSet
171 603 m 0
 119 603 87 540 87 403 c 0
 87 287 108 246 143 246 c 0
 191 246 218 321 218 590 c 1
 206 601 190 603 171 603 c 0
277 630 m 1
 280 441 288 169 299 6 c 1
 231 -6 l 1
 235 327 l 1
 216 224 187 185 140 185 c 0
 57 185 26 256 26 420 c 0
 26 544 73 657 177 657 c 0
 223 657 242 649 277 630 c 1
EndSplineSet
Validated: 1
Layer: 2
Layer: 3
EndChar

StartChar: colon
Encoding: 58 58 48
Width: 187
Flags: MW
HStem: -7 103<79.5 104.5> 394 102<70.5 100.5>
VStem: 34 103<442.5 447.5> 42 103<38.5 49.5>
LayerCount: 4
Back
Fore
SplineSet
145 52 m 0xe0
 145 25 122 -7 87 -7 c 0
 56 -7 42 11 42 36 c 0
 42 63 58 96 101 96 c 0
 130 96 145 75 145 52 c 0xe0
137 456 m 0
 137 429 118 394 83 394 c 0
 56 394 34 409 34 434 c 0
 34 461 49 496 92 496 c 0
 121 496 137 479 137 456 c 0
EndSplineSet
Validated: 1
Layer: 2
Layer: 3
EndChar

StartChar: semicolon
Encoding: 59 59 49
Width: 187
Flags: MW
HStem: 394 102<70.5 100.5>
VStem: 34 103<442.5 447.5> 75 60<88 94>
LayerCount: 4
Back
Fore
SplineSet
137 456 m 0xa0
 137 429 118 394 83 394 c 0
 56 394 34 409 34 434 c 0
 34 461 49 496 92 496 c 0
 121 496 137 479 137 456 c 0xa0
75 94 m 1
 135 88 l 1
 131 4 114 -59 95 -108 c 1
 52 -94 l 1
 63 -47 74 22 75 94 c 1
EndSplineSet
Validated: 1
Layer: 2
Layer: 3
EndChar

StartChar: less
Encoding: 60 60 50
Width: 491
Flags: MW
HStem: 88 330
VStem: 61 358
LayerCount: 4
Back
Fore
SplineSet
416 107 m 0
 409 91 389 83 372 91 c 2
 80 224 l 2
 64 231 57 251 64 268 c 0
 67 275 72 280 79 283 c 2
 85 287 l 1
 367 415 l 2
 384 423 404 415 411 399 c 0
 418 382 411 362 395 355 c 2
 173 254 l 1
 400 151 l 2
 416 144 423 124 416 107 c 0
EndSplineSet
Validated: 33
Layer: 2
Layer: 3
EndChar

StartChar: equal
Encoding: 61 61 51
Width: 491
Flags: MW
HStem: 130 66<82.5 398 92 398> 310 66<82.5 398 92 398>
VStem: 59 372<153.5 172.5 333.5 352.5>
LayerCount: 4
Back
Fore
SplineSet
59 163 m 0
 59 182 73 196 92 196 c 2
 398 196 l 2
 417 196 431 182 431 163 c 0
 431 144 417 130 398 130 c 2
 92 130 l 2
 73 130 59 144 59 163 c 0
59 343 m 0
 59 362 73 376 92 376 c 2
 398 376 l 2
 417 376 431 362 431 343 c 0
 431 324 417 310 398 310 c 2
 92 310 l 2
 73 310 59 324 59 343 c 0
EndSplineSet
Validated: 1
Layer: 2
Layer: 3
EndChar

StartChar: greater
Encoding: 62 62 52
Width: 491
Flags: MW
HStem: 84 330
VStem: 72 358
LayerCount: 4
Back
Fore
SplineSet
412 219 m 2
 406 215 l 1
 124 87 l 2
 107 79 87 87 80 103 c 0
 73 120 80 140 96 147 c 2
 318 248 l 1
 91 351 l 2
 75 358 68 378 75 395 c 0
 82 411 102 419 119 411 c 2
 411 278 l 2
 427 271 434 251 427 234 c 0
 424 227 419 222 412 219 c 2
EndSplineSet
Validated: 33
Layer: 2
Layer: 3
EndChar

StartChar: question
Encoding: 63 63 53
Width: 284
Flags: MW
HStem: -7 103<139.5 164.5> 594 58<112 139.5>
VStem: 92 60<241.5 287.5 241.5 287.5> 102 103<38.5 49.5> 180 62<476.5 547.5>
LayerCount: 4
Back
Fore
SplineSet
164 190 m 1xd0
 127 171 l 1
 108 190 92 228 92 249 c 0xe8
 92 326 180 431 180 522 c 0
 180 573 163 594 116 594 c 0
 84 594 60 585 33 577 c 1
 20 625 l 1
 53 640 86 652 138 652 c 0
 217 652 242 602 242 526 c 0
 242 427 152 318 152 257 c 0
 152 226 157 209 164 190 c 1xd0
205 52 m 0
 205 25 182 -7 147 -7 c 0
 116 -7 102 11 102 36 c 0
 102 63 118 96 161 96 c 0
 190 96 205 75 205 52 c 0
EndSplineSet
Validated: 1
Layer: 2
Layer: 3
EndChar

StartChar: at
Encoding: 64 64 54
Width: 675
Flags: MW
HStem: -16 66<276.5 372.5 276.5 378> 124 66<493.5 527 493.5 540.5> 351 66<314 347.5> 489 66<275.5 411>
VStem: 48 66<204 326 204 344> 192 66<239.5 288.5 239.5 311> 394 66<242 254 254 338 338 338> 563 66<255 333.5>
LayerCount: 4
Back
Fore
SplineSet
318 191 m 0
 347 191 375 207 394 242 c 1
 394 254 l 1
 394 338 l 1
 377 346 359 351 336 351 c 0
 292 351 258 316 258 261 c 0
 258 218 285 191 318 191 c 0
344 -16 m 0
 168 -16 48 107 48 265 c 0
 48 423 172 555 341 555 c 0
 524 555 629 421 629 279 c 0
 629 171 572 124 509 124 c 0
 474 124 441 139 420 168 c 1
 389 137 353 125 318 125 c 0
 255 125 192 173 192 261 c 0
 192 361 260 417 336 417 c 0
 360 417 382 413 403 406 c 1
 409 413 417 417 427 417 c 0
 446 417 460 403 460 384 c 2
 460 254 l 2
 460 218 478 190 509 190 c 0
 545 190 563 231 563 279 c 0
 563 388 481 489 341 489 c 0
 210 489 114 387 114 265 c 0
 114 143 209 50 344 50 c 0
 401 50 448 63 484 78 c 0
 500 85 520 78 527 61 c 0
 534 45 527 25 510 18 c 0
 467 -1 412 -16 344 -16 c 0
EndSplineSet
Validated: 33
Layer: 2
Layer: 3
EndChar

StartChar: A
Encoding: 65 65 55
Width: 323
Flags: MW
HStem: -5 21G<257 257> 0 21G<-1 -1> 166 53
VStem: -1 323<0 5> 54 217
AnchorPoint: "top" 158 648 basechar 0
AnchorPoint: "bottom" 162 0 basechar 0
LayerCount: 4
Back
Fore
SplineSet
322 5 m 1x68
 257 -5 l 1
 250 39 239 101 225 168 c 1
 93 163 l 1
 83 102 74 44 67 -1 c 1
 -1 0 l 1xb0
 31 128 80 402 117 646 c 1
 194 652 l 1
 210 525 286 169 322 5 c 1x68
102 217 m 1
 215 220 l 1
 192 335 167 457 153 530 c 1
 153 530 112 284 102 217 c 1
EndSplineSet
Validated: 1
Layer: 2
Layer: 3
EndChar

StartChar: B
Encoding: 66 66 56
Width: 338
Flags: MW
HStem: -3 59<118 162.5> 597 57
VStem: 54 64 222 67<458 534.5> 243 67<139 230.5>
LayerCount: 4
Back
Fore
SplineSet
118 352 m 1xf0
 199 368 222 408 222 493 c 0xe8
 222 576 197 609 109 593 c 1
 113 514 115 431 118 352 c 1xf0
118 56 m 1
 211 56 243 85 243 193 c 0
 243 268 214 316 119 305 c 1
 120 222 121 139 118 56 c 1
50 -3 m 1
 58 189 52 448 44 640 c 1
 71 648 98 654 154 654 c 0
 239 654 289 618 289 490 c 0
 289 426 257 370 206 346 c 1
 280 333 310 265 310 199 c 0xf0
 310 59 275 -3 50 -3 c 1
EndSplineSet
Validated: 33
Layer: 2
Layer: 3
EndChar

StartChar: C
Encoding: 67 67 57
Width: 293
Flags: MW
HStem: -9 58 603 55<157 209.5> 638 20G<137.5 221.5>
VStem: 30 65<240 433 240 446.5>
AnchorPoint: "top" 178 648 basechar 0
AnchorPoint: "bottom" 193 0 basechar 0
LayerCount: 4
Back
Fore
SplineSet
276 636 m 1
 258 587 l 1
 243 592 220 603 199 603 c 0
 115 603 95 529 95 337 c 0
 95 143 115 88 151 59 c 0
 171 42 240 48 271 61 c 1
 288 15 l 1
 257 -2 226 -9 199 -9 c 0
 68 -9 30 58 30 319 c 0
 30 574 68 658 207 658 c 0
 236 658 263 651 276 636 c 1
EndSplineSet
Validated: 33
Layer: 2
Layer: 3
EndChar

StartChar: D
Encoding: 68 68 58
Width: 368
Flags: MW
HStem: -3 58 594 58
VStem: 66 59 273 65<223.5 444>
AnchorPoint: "top" 169 648 basechar 0
AnchorPoint: "bottom" 190 0 basechar 0
LayerCount: 4
Back
Fore
SplineSet
61 -3 m 1
 68 192 68 390 59 585 c 1
 25 582 l 1
 20 633 l 1
 52 642 102 652 173 652 c 0
 285 652 338 579 338 350 c 0
 338 63 297 -3 61 -3 c 1
129 55 m 1
 251 60 273 98 273 349 c 0
 273 539 240 609 121 591 c 1
 132 408 136 238 129 55 c 1
EndSplineSet
Validated: 33
Layer: 2
Layer: 3
EndChar

StartChar: E
Encoding: 69 69 59
Width: 285
Flags: MW
HStem: -7 61 0 21G<274 274> 306 55 593 46 593 61
VStem: 54 54
AnchorPoint: "top" 147 648 basechar 0
AnchorPoint: "bottom" 170 0 basechar 0
LayerCount: 4
Back
Fore
SplineSet
40 644 m 1xb4
 248 654 l 1xb4
 250 596 l 1
 109 592 l 1
 110 501 111 428 113 359 c 1
 230 366 l 1
 232 309 l 1
 114 305 l 1
 116 226 118 149 122 51 c 1
 272 60 l 1
 274 0 l 1
 54 -7 l 1x6c
 54 238 53 370 40 644 c 1xb4
EndSplineSet
Validated: 1
Layer: 2
Layer: 3
EndChar

StartChar: F
Encoding: 70 70 60
Width: 270
Flags: MW
HStem: -4 21G<69 69> 0 21G<139 139> 306 55 593 47 593 60
VStem: 69 53
LayerCount: 4
Back
Fore
SplineSet
54 645 m 1x74
 262 653 l 1xb4
 264 595 l 1
 123 592 l 1
 124 502 125 429 127 359 c 1
 244 366 l 1
 246 309 l 1
 129 305 l 1
 132 211 135 120 139 0 c 1
 69 -4 l 1x6c
 69 242 67 371 54 645 c 1x74
EndSplineSet
Validated: 1
Layer: 2
Layer: 3
EndChar

StartChar: G
Encoding: 71 71 61
Width: 336
Flags: MW
HStem: -11 21G<239 239> -4 59 0 21G<304 304> 342 13 603 55<156 208.5>
VStem: 29 65<240 433 240 446.5> 239 53
AnchorPoint: "top" 180 648 basechar 0
AnchorPoint: "bottom" 182 0 basechar 0
LayerCount: 4
Back
Fore
SplineSet
275 636 m 1x3e
 257 587 l 1
 242 592 219 603 198 603 c 0
 114 603 94 529 94 337 c 0
 94 143 114 86 144 64 c 0
 166 48 213 54 238 82 c 1
 237 150 234 227 230 300 c 1
 181 295 l 1
 180 352 l 1
 292 358 l 1
 292 222 299 88 304 0 c 1
 239 -11 l 1x5e
 239 1 239 13 239 26 c 1
 221 8 195 -4 175 -4 c 0x9e
 74 -4 29 57 29 319 c 0
 29 574 67 658 206 658 c 0
 235 658 262 651 275 636 c 1x3e
EndSplineSet
Validated: 33
Layer: 2
Layer: 3
EndChar

StartChar: H
Encoding: 72 72 62
Width: 345
Flags: MW
HStem: -4 21G<51 51 236 236> 0 21G<120 120 305 305> 306 55
VStem: 51 56 236 10
LayerCount: 4
Back
Fore
SplineSet
40 644 m 1x78
 107 651 l 1
 108 536 109 445 111 359 c 1
 232 365 l 1
 230 447 226 535 222 647 c 1
 290 650 l 1
 290 383 297 243 305 0 c 1
 236 -4 l 1xb8
 236 118 235 211 233 309 c 1
 112 305 l 1
 114 210 116 117 120 0 c 1x78
 51 -4 l 1xb8
 51 162 l 2
 51 314 50 438 40 644 c 1x78
EndSplineSet
Validated: 1
Layer: 2
Layer: 3
EndChar

StartChar: I
Encoding: 73 73 63
Width: 164
Flags: MW
HStem: -4 21G<55 55>
VStem: 55 52
AnchorPoint: "top" 73 648 basechar 0
AnchorPoint: "bottom" 93 0 basechar 0
LayerCount: 4
Back
Fore
SplineSet
40 645 m 1
 107 652 l 1
 111 342 116 247 124 2 c 1
 55 -4 l 1
 55 242 53 371 40 645 c 1
EndSplineSet
Validated: 1
Layer: 2
Layer: 3
EndChar

StartChar: J
Encoding: 74 74 64
Width: 258
Flags: MW
HStem: -4 60<107 132.5 107 151> 633 20G<209 209>
VStem: 158 62<99 173.5 74.5 177.5>
LayerCount: 4
Back
Fore
SplineSet
220 128 m 0
 220 21 187 -4 115 -4 c 0
 72 -4 43 0 16 7 c 1
 25 71 l 1
 60 63 95 56 119 56 c 0
 146 56 158 71 158 127 c 0
 158 228 155 414 142 643 c 1
 209 653 l 1
 212 462 220 219 220 128 c 0
EndSplineSet
Validated: 1
Layer: 2
Layer: 3
EndChar

StartChar: K
Encoding: 75 75 65
Width: 342
Flags: MW
HStem: -7 21G<68 68>
VStem: 68 49
AnchorPoint: "top" 164 648 basechar 0
AnchorPoint: "bottom" 183 0 basechar 0
LayerCount: 4
Back
Fore
SplineSet
51 645 m 1
 117 649 l 1
 119 509 121 414 124 329 c 1
 160 402 215 585 230 651 c 1
 299 632 l 1
 262 545 209 405 177 330 c 1
 217 250 295 98 341 22 c 1
 280 -13 l 1
 253 39 171 211 125 297 c 1
 128 207 132 124 136 4 c 1
 68 -7 l 1
 68 239 64 371 51 645 c 1
EndSplineSet
Validated: 1
Layer: 2
Layer: 3
EndChar

StartChar: L
Encoding: 76 76 66
Width: 290
Flags: MW
HStem: -6 62 0 21G<288 288> 633 20G<122 122>
VStem: 68 54
AnchorPoint: "top" 111 648 basechar 0
AnchorPoint: "bottom" 182 0 basechar 0
LayerCount: 4
Back
Fore
SplineSet
54 642 m 1x70
 122 653 l 1
 125 403 125 270 132 53 c 1
 287 64 l 1
 288 0 l 1
 68 -6 l 1xb0
 68 239 67 368 54 642 c 1x70
EndSplineSet
Validated: 1
Layer: 2
Layer: 3
EndChar

StartChar: M
Encoding: 77 77 67
Width: 450
Flags: MW
HStem: -7 21G<349 349> -3 21G<30 30> 633 20G<384 384> 635 20G
VStem: 35 62 305 79<647 653>
LayerCount: 4
Back
Fore
SplineSet
333 510 m 1x5c
 312 382 273 168 252 27 c 1
 191 24 l 1
 170 152 111 383 84 511 c 1
 87 399 89 143 97 2 c 1
 30 -3 l 1
 32 61 35 186 35 312 c 2
 35 438 l 2
 35 521 34 595 33 644 c 1
 57 648 95 652 119 655 c 1
 131 563 197 281 225 159 c 1
 249 289 297 596 305 647 c 1
 384 653 l 1xac
 392 526 404 167 420 3 c 1
 349 -7 l 1
 349 122 336 381 333 510 c 1x5c
EndSplineSet
Validated: 1
Layer: 2
Layer: 3
EndChar

StartChar: N
Encoding: 78 78 68
Width: 364
Flags: MW
HStem: -7 21G<233 233> -3 21G<49 49> 635 20G 637 20G<312 312>
VStem: 40 77 262 50
AnchorPoint: "top" 180 648 basechar 0
AnchorPoint: "bottom" 180 0 basechar 0
LayerCount: 4
Back
Fore
SplineSet
324 4 m 1x9c
 233 -7 l 1
 205 122 133 393 97 522 c 1
 100 410 109 144 117 2 c 1
 49 -3 l 1x5c
 53 124 48 476 40 644 c 1
 64 648 107 652 131 655 c 1
 151 563 230 252 262 129 c 1
 262 258 252 417 241 644 c 1
 312 657 l 1x6c
 312 348 316 248 324 4 c 1x9c
EndSplineSet
Validated: 33
Layer: 2
Layer: 3
EndChar

StartChar: O
Encoding: 79 79 69
Width: 355
Flags: MW
HStem: -10 59<154.5 210.5 154.5 237> 600 58<145 200.5>
VStem: 35 65<219 414.5 219 430> 253 67<221.5 403.5 206.5 432.5>
AnchorPoint: "top" 182 648 basechar 0
AnchorPoint: "bottom" 179 0 basechar 0
LayerCount: 4
Back
Fore
SplineSet
179 658 m 0
 301 658 320 518 320 289 c 0
 320 124 301 -10 173 -10 c 0
 73 -10 35 80 35 310 c 0
 35 550 65 658 179 658 c 0
253 319 m 0
 253 546 226 600 175 600 c 0
 115 600 100 508 100 321 c 0
 100 117 123 49 186 49 c 0
 235 49 253 124 253 319 c 0
EndSplineSet
Validated: 1
Layer: 2
Layer: 3
EndChar

StartChar: P
Encoding: 80 80 70
Width: 337
Flags: MW
HStem: -3 21G<60 60> 597 57
VStem: 65 61 249 68<429.5 518>
LayerCount: 4
Back
Fore
SplineSet
126 3 m 1
 60 -3 l 1
 67 192 67 390 58 585 c 1
 17 578 l 1
 10 632 l 1
 42 641 102 654 173 654 c 0
 270 654 317 608 317 472 c 0
 317 348 245 278 125 271 c 1
 126 181 126 92 126 3 c 1
125 319 m 1
 226 335 249 383 249 476 c 0
 249 560 224 612 120 593 c 1
 122 502 124 411 125 319 c 1
EndSplineSet
Validated: 33
Layer: 2
Layer: 3
EndChar

StartChar: Q
Encoding: 81 81 71
Width: 365
Flags: MW
HStem: -10 10 -10 55 600 58<146 201>
VStem: 40 65<224 419.5 224 435> 157 50 258 67<216.5 398.5 208.5 427.5>
LayerCount: 4
Back
Fore
SplineSet
184 658 m 0xbc
 306 658 325 513 325 284 c 0
 325 133 309 13 209 -7 c 1
 240 -110 l 1
 157 -123 l 1
 157 -8 l 1
 73 5 40 103 40 315 c 0
 40 555 70 658 184 658 c 0xbc
258 314 m 0
 258 541 226 600 176 600 c 0
 116 600 105 513 105 326 c 0
 105 122 130 45 193 45 c 0x7c
 241 45 258 119 258 314 c 0
EndSplineSet
Validated: 1
Layer: 2
Layer: 3
EndChar

StartChar: R
Encoding: 82 82 72
Width: 337
Flags: MW
HStem: -8 21G<245 245> -6 21G<60 60> 321 32 594 60 634 20G<134.5 203.5>
VStem: 65 58 225 68<463.5 529.5>
AnchorPoint: "top" 158 648 basechar 0
AnchorPoint: "bottom" 182 0 basechar 0
LayerCount: 4
Back
Fore
SplineSet
128 5 m 1x76
 60 -6 l 1
 67 189 67 394 58 589 c 1
 17 583 l 1
 10 639 l 1
 61 648 112 654 157 654 c 0
 250 654 293 614 293 501 c 0
 293 426 266 384 222 353 c 1
 249 342 258 322 264 298 c 0
 276 255 281 169 320 10 c 1
 245 -8 l 1xae
 226 122 212 248 199 285 c 0
 190 310 174 329 124 317 c 1
 125 213 126 108 128 5 c 1x76
123 360 m 1
 212 377 225 424 225 493 c 0
 225 566 204 605 119 594 c 1
 121 517 122 439 123 360 c 1
EndSplineSet
Validated: 33
Layer: 2
Layer: 3
EndChar

StartChar: S
Encoding: 83 83 73
Width: 275
Flags: MW
HStem: -8 55<97 143 97 151> 604 54<125.5 155>
VStem: 20 63<517.5 564.5 517.5 582> 193 62<88.5 142>
AnchorPoint: "top" 146 648 basechar 0
AnchorPoint: "bottom" 141 0 basechar 0
LayerCount: 4
Back
Fore
SplineSet
223 648 m 1
 214 595 l 1
 186 599 165 604 145 604 c 0
 106 604 83 584 83 545 c 0
 83 490 112 430 156 362 c 0
 220 263 255 188 255 128 c 0
 255 25 201 -8 101 -8 c 0
 74 -8 49 -6 22 5 c 1
 30 55 l 1
 57 50 83 47 111 47 c 0
 175 47 193 63 193 114 c 0
 193 170 162 228 116 304 c 0
 75 371 20 456 20 544 c 0
 20 620 67 658 150 658 c 0
 181 658 200 655 223 648 c 1
EndSplineSet
Validated: 1
Layer: 2
Layer: 3
EndChar

StartChar: T
Encoding: 84 84 74
Width: 272
Flags: MW
HStem: -7 21G<117 117> 595 24 595 58
VStem: 117 71<4 4 4 111>
AnchorPoint: "top" 140 648 basechar 0
AnchorPoint: "bottom" 153 0 basechar 0
LayerCount: 4
Back
Fore
SplineSet
107 591 m 1
 -9 585 l 1
 -10 642 l 1
 280 654 l 1
 282 597 l 1
 170 594 l 1
 174 397 180 236 188 4 c 1
 117 -7 l 1
 117 229 117 386 107 591 c 1
EndSplineSet
Validated: 1
Layer: 2
Layer: 3
EndChar

StartChar: U
Encoding: 85 85 75
Width: 349
Flags: MW
HStem: -8 58<165 209.5 165 220>
VStem: 38 70<644 650> 248 61<125 171 171 215.5>
AnchorPoint: "top" 181 648 basechar 0
AnchorPoint: "bottom" 187 0 basechar 0
LayerCount: 4
Back
Fore
SplineSet
236 645 m 1
 307 652 l 1
 307 468 309 343 309 252 c 2
 309 171 l 2
 309 36 251 -8 189 -8 c 0
 110 -8 69 31 61 154 c 0
 54 250 49 417 38 644 c 1
 108 650 l 1
 111 411 119 249 125 164 c 0
 131 85 143 50 187 50 c 0
 232 50 248 77 248 173 c 0
 248 258 244 476 236 645 c 1
EndSplineSet
Validated: 1
Layer: 2
Layer: 3
EndChar

StartChar: V
Encoding: 86 86 76
Width: 302
Flags: MW
HStem: -3 21G<125 125> 633 20G<70 70>
VStem: -2 306<642 647>
LayerCount: 4
Back
Fore
SplineSet
164 115 m 1
 185 243 212 458 231 650 c 1
 304 647 l 1
 268 455 213 80 201 3 c 1
 125 -3 l 1
 109 122 34 480 -2 642 c 1
 70 653 l 1
 90 525 140 243 164 115 c 1
EndSplineSet
Validated: 1
Layer: 2
Layer: 3
EndChar

StartChar: W
Encoding: 87 87 77
Width: 470
Flags: MW
HStem: -5 21G<305 305> -3 21G<104 104> 634 20G<71 71>
VStem: -2 474<644 647>
LayerCount: 4
Back
Fore
SplineSet
145 112 m 1xb0
 164 240 188 466 209 608 c 1
 275 611 l 1
 294 483 326 243 350 115 c 1
 366 240 387 508 395 650 c 1
 472 647 l 1
 448 520 392 83 380 6 c 1
 356 2 329 -2 305 -5 c 1
 305 -5 303 14 298 52 c 0
 282 167 256 355 239 458 c 1
 219 329 187 54 179 3 c 1
 104 -3 l 1x70
 88 123 30 481 -2 644 c 1
 71 654 l 1
 87 524 121 241 145 112 c 1xb0
EndSplineSet
Validated: 1
Layer: 2
Layer: 3
EndChar

StartChar: X
Encoding: 88 88 78
Width: 310
Flags: MW
HStem: -6 21G 0 21G<8 8>
VStem: 0 310
LayerCount: 4
Back
Fore
SplineSet
152 391 m 1xa0
 171 461 200 567 216 652 c 1
 281 646 l 1
 242 519 215 424 188 336 c 1
 225 227 262 136 310 15 c 1
 246 -13 l 1
 219 75 175 199 149 278 c 1
 129 198 98 89 75 -6 c 1
 8 0 l 1x60
 44 123 85 232 113 341 c 1
 82 432 43 518 0 630 c 1
 65 660 l 1
 92 572 128 457 152 391 c 1xa0
EndSplineSet
Validated: 1
Layer: 2
Layer: 3
EndChar

StartChar: Y
Encoding: 89 89 79
Width: 278
Flags: MW
HStem: -4 21G<114 114> 634 20G<65 65>
VStem: 110 65<269 269>
AnchorPoint: "top" 145 648 basechar 0
AnchorPoint: "bottom" 150 0 basechar 0
LayerCount: 4
Back
Fore
SplineSet
147 336 m 1
 168 431 189 508 210 650 c 1
 278 647 l 1
 246 520 199 346 175 269 c 1
 176 164 179 78 183 2 c 1
 114 -4 l 1
 113 72 114 176 110 269 c 1
 83 389 46 479 0 643 c 1
 65 654 l 1
 92 525 115 465 147 336 c 1
EndSplineSet
Validated: 1
Layer: 2
Layer: 3
EndChar

StartChar: Z
Encoding: 90 90 80
Width: 286
Flags: MW
HStem: -1 55 592 56<145 162 162 188>
VStem: 21 245<34 57>
AnchorPoint: "top" 151 648 basechar 0
AnchorPoint: "bottom" 150 0 basechar 0
LayerCount: 4
Back
Fore
SplineSet
38 648 m 1
 250 648 l 1
 256 610 l 1
 219 492 121 154 93 53 c 1
 105 53 119 54 136 54 c 2
 184 54 l 1
 266 57 l 1
 264 0 l 1
 28 -1 l 1
 21 34 l 1
 72 190 156 456 188 592 c 1
 162 592 l 2
 128 592 72 591 40 589 c 1
 38 648 l 1
EndSplineSet
Validated: 1
Layer: 2
Layer: 3
EndChar

StartChar: bracketleft
Encoding: 91 91 81
Width: 220
Flags: MW
HStem: -140 51 661 48
VStem: 40 58<661 706>
LayerCount: 4
Back
Fore
SplineSet
40 706 m 1
 196 712 l 1
 194 661 l 1
 98 661 l 1
 101 415 102 138 110 -90 c 1
 215 -86 l 1
 217 -140 l 1
 52 -139 l 1
 51 106 54 432 40 706 c 1
EndSplineSet
Validated: 1
Layer: 2
Layer: 3
EndChar

StartChar: backslash
Encoding: 92 92 82
Width: 189
Flags: MW
HStem: -146 847<59 127>
VStem: 0 186
LayerCount: 4
Back
Fore
SplineSet
186 -138 m 1
 127 -146 l 1
 103 32 31 495 0 688 c 1
 59 701 l 1
 77 509 155 14 186 -138 c 1
EndSplineSet
Validated: 1
Layer: 2
Layer: 3
EndChar

StartChar: bracketright
Encoding: 93 93 83
Width: 220
Flags: MW
HStem: -138 48 660 51
VStem: 122 58<-134 -89>
LayerCount: 4
Back
Fore
SplineSet
180 -134 m 1
 22 -141 l 1
 24 -90 l 1
 122 -89 l 1
 120 157 118 434 110 662 c 1
 8 658 l 1
 7 712 l 1
 168 711 l 1
 169 466 166 140 180 -134 c 1
EndSplineSet
Validated: 1
Layer: 2
Layer: 3
EndChar

StartChar: asciicircum
Encoding: 94 94 84
Width: 320
Flags: MW
HStem: 480 211<68 155>
VStem: 20 280<513 520>
LayerCount: 4
Back
Fore
SplineSet
20 513 m 1
 155 691 l 1
 300 520 l 1
 254 484 l 1
 155 605 l 1
 68 480 l 1
 20 513 l 1
EndSplineSet
Validated: 1
Layer: 2
Layer: 3
EndChar

StartChar: underscore
Encoding: 95 95 85
Width: 400
Flags: MW
HStem: -57 53
VStem: 0 401<-54 -54 -54 -4 -54 -4>
LayerCount: 4
Back
Fore
SplineSet
400 0 m 1
 401 -54 l 1
 295 -55 106 -55 0 -60 c 1
 0 -4 l 1
 105 -4 295 -4 400 0 c 1
EndSplineSet
Validated: 1
Layer: 2
Layer: 3
EndChar

StartChar: grave
Encoding: 96 96 86
Width: 262
Flags: MW
HStem: 512 178<106 177>
VStem: 50 162<544 647>
LayerCount: 4
Back
Fore
SplineSet
50 647 m 1
 106 690 l 1
 146 629 182 580 212 544 c 1
 177 512 l 1
 144 549 86 609 50 647 c 1
EndSplineSet
Validated: 1
Layer: 2
Layer: 3
EndChar

StartChar: a
Encoding: 97 97 87
Width: 340
Flags: MW
HStem: -6 21G<244 244> -2 61<128.5 171.5 128.5 176.5> 448 54<151 186.5>
VStem: 30 64<156.5 301.5 156.5 321.5> 244 43
AnchorPoint: "top" 183 496 basechar 0
AnchorPoint: "bottom" 168 0 basechar 0
LayerCount: 4
Back
Fore
SplineSet
177 448 m 0xb8
 125 448 94 376 94 227 c 0
 94 86 110 59 147 59 c 0
 196 59 214 166 222 435 c 1
 210 446 196 448 177 448 c 0xb8
288 470 m 1
 291 281 294 169 305 6 c 1
 244 -6 l 1
 245 169 l 1
 226 65 207 -2 146 -2 c 0x78
 63 -2 30 53 30 244 c 0
 30 399 79 502 183 502 c 0
 230 502 253 495 288 470 c 1
EndSplineSet
Validated: 1
Layer: 2
Layer: 3
EndChar

StartChar: b
Encoding: 98 98 88
Width: 340
Flags: MW
HStem: -6 49<141.5 178 141.5 209> 439 65<183 221.5>
VStem: 50 52 255 64<184.5 327>
LayerCount: 4
Back
Fore
SplineSet
149 43 m 0
 207 43 255 84 255 256 c 0
 255 398 240 439 203 439 c 0
 154 439 111 324 111 54 c 1
 123 45 134 43 149 43 c 0
50 19 m 1
 50 211 44 499 36 686 c 1
 102 697 l 1
 102 328 l 1
 121 420 148 504 218 504 c 0
 301 504 319 427 319 263 c 0
 319 106 261 -6 157 -6 c 0
 110 -6 85 0 50 19 c 1
EndSplineSet
Validated: 1
Layer: 2
Layer: 3
EndChar

StartChar: c
Encoding: 99 99 89
Width: 253
Flags: MW
HStem: -7 59 449 55<138.5 174.5>
VStem: 30 61<207 307.5 207 346>
AnchorPoint: "top" 160 495 basechar 0
AnchorPoint: "bottom" 159 0 basechar 0
LayerCount: 4
Back
Fore
SplineSet
241 482 m 1
 223 433 l 1
 208 438 185 449 164 449 c 0
 113 449 91 372 91 243 c 0
 91 171 97 91 130 61 c 0
 150 44 204 54 227 64 c 1
 246 18 l 1
 215 1 182 -7 159 -7 c 0
 79 -7 30 49 30 232 c 0
 30 460 80 504 176 504 c 0
 203 504 228 497 241 482 c 1
EndSplineSet
Validated: 33
Layer: 2
Layer: 3
EndChar

StartChar: d
Encoding: 100 100 90
Width: 340
Flags: MW
HStem: -6 21G<238 238> -2 61<127 162.5> 447 49<151 187.5>
VStem: 30 64<152 294 152 319.5> 238 55
AnchorPoint: "top" 259 648 basechar 0
AnchorPoint: "bottom" 173 0 basechar 0
LayerCount: 4
Back
Fore
SplineSet
177 447 m 0xb8
 125 447 94 380 94 208 c 0
 94 96 109 59 145 59 c 0
 197 59 227 174 230 434 c 1
 218 445 198 447 177 447 c 0xb8
302 6 m 1
 238 -6 l 1
 239 151 l 1
 220 40 184 -2 141 -2 c 0x78
 66 -2 30 46 30 242 c 0
 30 397 79 496 183 496 c 0
 203 496 219 495 232 492 c 1
 232 532 231 600 227 687 c 1
 294 698 l 1
 289 466 291 185 302 6 c 1
EndSplineSet
Validated: 33
Layer: 2
Layer: 3
EndChar

StartChar: e
Encoding: 101 101 91
Width: 295
Flags: MW
HStem: -6 51<156 190 156 192> 299 44 445 58<150.5 179>
VStem: 30 66<157 230.5 157 302.5> 215 57<343 416>
AnchorPoint: "top" 172 496 basechar 0
AnchorPoint: "bottom" 175 0 basechar 0
LayerCount: 4
Back
Fore
SplineSet
262 300 m 1
 99 298 l 1
 96 270 96 239 96 222 c 0
 96 92 130 45 182 45 c 0
 198 45 239 54 263 62 c 1
 275 18 l 1
 248 3 210 -6 174 -6 c 0
 87 -6 30 60 30 251 c 0
 30 354 57 503 176 503 c 0
 244 503 272 458 272 374 c 0
 272 361 270 324 262 300 c 1
167 445 m 0
 134 445 107 403 102 344 c 1
 215 343 l 1
 214 423 191 445 167 445 c 0
EndSplineSet
Validated: 1
Layer: 2
Layer: 3
EndChar

StartChar: f
Encoding: 102 102 92
Width: 241
Flags: MW
HStem: -4 21G<84 84> 437 55 631 61<163.5 195>
VStem: 70 61<493 602.5>
LayerCount: 4
Back
Fore
SplineSet
11 432 m 1
 10 489 l 1
 71 491 l 1
 70 516 70 537 70 553 c 0
 70 652 105 692 176 692 c 0
 223 692 263 680 271 673 c 1
 259 618 l 1
 227 627 211 631 179 631 c 0
 148 631 131 605 131 537 c 0
 131 525 131 510 131 493 c 1
 227 497 l 1
 229 443 l 1
 132 438 l 1
 134 315 140 136 148 2 c 1
 84 -4 l 1
 78 133 74 311 71 435 c 1
 11 432 l 1
EndSplineSet
Validated: 1
Layer: 2
Layer: 3
EndChar

StartChar: g
Encoding: 103 103 93
Width: 333
Flags: MW
HStem: -180 60<153.5 174.5> -8 63<122.5 168 122.5 177.5> 448 54<147.5 189.5>
VStem: 30 64<154.5 295.5 154.5 343.5> 239 59<20 25 -58 72 -58 84.5>
AnchorPoint: "top" 178 496 basechar 0
AnchorPoint: "bottom" 165 -180 basechar 0
LayerCount: 4
Back
Fore
SplineSet
239 20 m 2
 239 72 l 2
 239 97 239 127 238 163 c 1
 224 90 212 -8 143 -8 c 0
 59 -8 30 47 30 260 c 0
 30 427 75 502 183 502 c 0
 231 502 249 496 285 470 c 1
 288 277 298 80 298 -30 c 0
 298 -86 293 -112 274 -135 c 0
 247 -168 200 -180 149 -180 c 0
 114 -180 84 -177 51 -170 c 1
 62 -109 l 1
 102 -118 143 -120 164 -120 c 0
 200 -120 220 -119 231 -92 c 0
 239 -73 239 -39 239 20 c 2
178 448 m 0
 117 448 94 382 94 209 c 0
 94 100 103 55 142 55 c 0
 194 55 216 152 224 428 c 1
 212 439 201 448 178 448 c 0
EndSplineSet
Validated: 1
Layer: 2
Layer: 3
EndChar

StartChar: h
Encoding: 104 104 94
Width: 340
Flags: MW
HStem: -3 21G<45 45> 1 21G<316 316> 433 67<184 224.5>
VStem: 45 56 250 66<1 1 1 218>
LayerCount: 4
Back
Fore
SplineSet
110 4 m 1xb8
 45 -3 l 1
 45 189 44 497 36 686 c 1
 101 697 l 1
 102 308 l 1
 121 421 149 500 219 500 c 0
 328 500 312 400 316 1 c 1x78
 250 -4 l 1
 250 218 l 2
 250 392 243 433 206 433 c 0
 154 433 115 315 110 4 c 1xb8
EndSplineSet
Validated: 1
Layer: 2
Layer: 3
EndChar

StartChar: i
Encoding: 105 105 95
Width: 177
Flags: MW
HStem: -7 21G<68 68> 593 98<76 98.5>
VStem: 40 97<635.5 647.5> 63 61
LayerCount: 4
Back
Fore
SplineSet
137 649 m 0xd0
 137 622 115 593 82 593 c 0
 53 593 40 609 40 634 c 0
 40 661 56 691 96 691 c 0
 123 691 137 672 137 649 c 0xd0
58 494 m 1
 124 501 l 1
 127 309 129 193 137 4 c 1xe0
 68 -7 l 1
 71 161 65 326 58 494 c 1
EndSplineSet
Validated: 33
Layer: 2
Layer: 3
EndChar

StartChar: j
Encoding: 106 106 96
Width: 205
Flags: MW
HStem: -180 60<-0.5 33 -3 46> 593 98<76 98.5>
VStem: 40 97<635.5 647.5> 76 60<-66 27 -93 52>
LayerCount: 4
Back
Fore
SplineSet
76 -24 m 0xe0
 76 128 69 327 58 494 c 1
 124 501 l 1
 127 264 136 87 136 -33 c 0
 136 -153 79 -180 13 -180 c 0
 -14 -180 -43 -176 -70 -171 c 1
 -62 -110 l 1
 -31 -117 -13 -120 7 -120 c 0
 59 -120 76 -108 76 -24 c 0xe0
137 649 m 0
 137 622 115 593 82 593 c 0
 53 593 40 609 40 634 c 0
 40 661 56 691 96 691 c 0
 123 691 137 672 137 649 c 0
EndSplineSet
Validated: 1
Layer: 2
Layer: 3
EndChar

StartChar: k
Encoding: 107 107 97
Width: 342
Flags: MW
HStem: -7 21G<68 68>
VStem: 68 50
AnchorPoint: "top" 162 648 basechar 0
AnchorPoint: "bottom" 182 0 basechar 0
LayerCount: 4
Back
Fore
SplineSet
51 688 m 1
 118 695 l 1
 120 511 124 387 128 266 c 1
 163 330 216 453 234 505 c 1
 296 483 l 1
 258 397 217 346 182 270 c 1
 225 191 285 103 342 27 c 1
 287 -16 l 1
 249 37 173 169 129 241 c 1
 131 167 134 93 137 4 c 1
 68 -7 l 1
 68 238 64 413 51 688 c 1
EndSplineSet
Validated: 1
Layer: 2
Layer: 3
EndChar

StartChar: l
Encoding: 108 108 98
Width: 177
Flags: MW
HStem: -7 21G<68 68>
VStem: 68 50
AnchorPoint: "top" 77 648 basechar 0
AnchorPoint: "bottom" 94 0 basechar 0
LayerCount: 4
Back
Fore
SplineSet
51 688 m 1
 118 695 l 1
 122 386 129 248 137 4 c 1
 68 -7 l 1
 68 238 64 413 51 688 c 1
EndSplineSet
Validated: 1
Layer: 2
Layer: 3
EndChar

StartChar: m
Encoding: 109 109 99
Width: 535
Flags: MW
HStem: -5 21G<241 241 434 434> -3 21G<46 46> 1 21G<305 305 500 500> 433 67<176 220 371.5 418>
VStem: 46 51 241 64<-5 1> 434 66<-5 1>
LayerCount: 4
Back
Fore
SplineSet
500 1 m 1x9e
 434 -5 l 1x3e
 437 358 443 433 393 433 c 0
 341 433 310 312 305 1 c 1x5e
 241 -5 l 1x9e
 244 358 242 433 198 433 c 0
 146 433 115 314 110 3 c 1
 46 -3 l 1x3e
 46 189 43 302 32 491 c 1
 97 502 l 1
 98 308 l 1
 117 421 141 500 211 500 c 0
 275 500 290 441 298 338 c 1
 306 405 337 500 406 500 c 0
 515 500 497 400 500 1 c 1x9e
EndSplineSet
Validated: 33
Layer: 2
Layer: 3
EndChar

StartChar: n
Encoding: 110 110 100
Width: 340
Flags: MW
HStem: -5 21G<239 239> -3 21G<46 46> 1 21G<305 305> 433 67<176 223>
VStem: 46 51 239 66<-5 1>
AnchorPoint: "top" 173 496 basechar 0
AnchorPoint: "bottom" 174 0 basechar 0
LayerCount: 4
Back
Fore
SplineSet
110 3 m 1x5c
 46 -3 l 1
 46 189 43 302 32 491 c 1
 97 502 l 1
 98 308 l 1
 117 421 141 500 211 500 c 0
 319 500 302 400 305 1 c 1x9c
 239 -5 l 1x3c
 242 358 248 433 198 433 c 0
 146 433 115 314 110 3 c 1x5c
EndSplineSet
Validated: 33
Layer: 2
Layer: 3
EndChar

StartChar: o
Encoding: 111 111 101
Width: 308
Flags: MW
HStem: -8 59<134.5 183.5 134.5 207> 445 58<132 179>
VStem: 30 62<185.5 302.5 185.5 311.5> 215 66<180.5 293.5 180.5 323>
AnchorPoint: "top" 160 496 basechar 0
AnchorPoint: "bottom" 156 0 basechar 0
LayerCount: 4
Back
Fore
SplineSet
162 503 m 0
 274 503 281 347 281 240 c 0
 281 121 267 -8 147 -8 c 0
 64 -8 30 68 30 244 c 0
 30 379 62 503 162 503 c 0
215 247 m 0
 215 399 200 445 158 445 c 0
 106 445 92 352 92 253 c 0
 92 118 110 51 159 51 c 0
 208 51 215 114 215 247 c 0
EndSplineSet
Validated: 1
Layer: 2
Layer: 3
EndChar

StartChar: p
Encoding: 112 112 102
Width: 340
Flags: MW
HStem: -186 21G<41 41> 0 49<149.5 186.5 149.5 204> 442 61<177 206.5>
VStem: 44 59 241 64<200.5 343.5>
LayerCount: 4
Back
Fore
SplineSet
158 49 m 0
 215 49 241 120 241 281 c 0
 241 406 225 442 188 442 c 0
 139 442 103 328 103 63 c 1
 118 52 141 49 158 49 c 0
32 493 m 1
 97 505 l 1
 96 348 l 1
 115 459 155 503 199 503 c 0
 274 503 305 452 305 256 c 0
 305 102 256 0 152 0 c 0
 132 0 116 1 103 4 c 1
 103 -36 104 -88 108 -175 c 1
 41 -186 l 1
 46 47 45 312 32 493 c 1
EndSplineSet
Validated: 33
Layer: 2
Layer: 3
EndChar

StartChar: q
Encoding: 113 113 103
Width: 340
Flags: MW
HStem: -2 61<128.5 171.5 128.5 175> 453 51<151 188.5>
VStem: 30 64<153.5 296.5 153.5 319> 243 45
LayerCount: 4
Back
Fore
SplineSet
177 453 m 0
 125 453 94 377 94 216 c 0
 94 91 110 59 147 59 c 0
 196 59 214 164 222 440 c 1
 210 451 200 453 177 453 c 0
288 472 m 1
 291 283 293 -10 304 -172 c 1
 241 -184 l 1
 245 169 l 1
 226 65 206 -2 144 -2 c 0
 64 -2 30 51 30 242 c 0
 30 396 79 504 183 504 c 0
 228 504 253 497 288 472 c 1
EndSplineSet
Validated: 1
Layer: 2
Layer: 3
EndChar

StartChar: r
Encoding: 114 114 104
Width: 268
Flags: MW
HStem: -3 21G<51 51> 425 77<195.5 256>
VStem: 51 54
AnchorPoint: "top" 152 496 basechar 0
AnchorPoint: "bottom" 86 0 basechar 0
LayerCount: 4
Back
Fore
SplineSet
236 502 m 0
 247 502 261 501 268 496 c 1
 256 425 l 1
 236 426 222 424 210 417 c 0
 184 401 153 324 145 285 c 0
 126 200 112 87 112 37 c 2
 112 16 l 2
 112 12 112 8 113 3 c 1
 51 -3 l 1
 51 123 54 308 38 488 c 1
 103 498 l 1
 107 291 l 1
 123 400 155 502 236 502 c 0
EndSplineSet
Validated: 33
Layer: 2
Layer: 3
EndChar

StartChar: s
Encoding: 115 115 105
Width: 280
Flags: MW
HStem: -8 55<98 134 98 150> 449 54<145 161 145 161>
VStem: 40 63<391.5 426.5 391.5 433.5> 187 62<77.5 122>
AnchorPoint: "top" 146 496 basechar 0
AnchorPoint: "bottom" 145 0 basechar 0
LayerCount: 4
Back
Fore
SplineSet
225 496 m 1
 216 443 l 1
 188 447 171 449 151 449 c 0
 126 449 103 441 103 412 c 0
 103 371 116 357 157 293 c 0
 214 204 249 164 249 104 c 0
 249 17 182 -8 118 -8 c 0
 78 -8 61 -6 34 5 c 1
 42 55 l 1
 69 50 84 47 112 47 c 0
 156 47 187 55 187 100 c 0
 187 144 163 172 117 240 c 0
 78 299 40 339 40 411 c 0
 40 456 73 502 145 503 c 0
 177 503 190 503 225 496 c 1
EndSplineSet
Validated: 1
Layer: 2
Layer: 3
EndChar

StartChar: t
Encoding: 116 116 106
Width: 276
Flags: MW
HStem: -7 21G<110 110> 437 55
VStem: 110 54
AnchorPoint: "top" 112 648 basechar 0
AnchorPoint: "bottom" 125 0 basechar 0
LayerCount: 4
Back
Fore
SplineSet
97 616 m 1
 164 623 l 1
 165 575 165 532 166 494 c 1
 273 499 l 1
 276 445 l 1
 167 439 l 1
 170 273 173 189 179 4 c 1
 110 -7 l 1
 110 105 l 2
 110 226 109 315 104 436 c 1
 1 430 l 1
 0 487 l 1
 102 491 l 1
 101 529 99 570 97 616 c 1
EndSplineSet
Validated: 1
Layer: 2
Layer: 3
EndChar

StartChar: u
Encoding: 117 117 107
Width: 340
Flags: MW
HStem: -7 21G<242 242> -3 63<117 170 117 175.5>
VStem: 34 69<494 494> 243 48
AnchorPoint: "top" 173 496 basechar 0
AnchorPoint: "bottom" 144 0 basechar 0
LayerCount: 4
Back
Fore
SplineSet
226 495 m 1xb0
 292 502 l 1
 295 310 297 194 305 5 c 1
 242 -7 l 1
 245 187 l 1
 226 81 210 -3 141 -3 c 0x70
 32 -3 37 91 34 494 c 1
 103 500 l 1
 103 136 91 60 143 60 c 0
 197 60 221 164 226 495 c 1xb0
EndSplineSet
Validated: 33
Layer: 2
Layer: 3
EndChar

StartChar: v
Encoding: 118 118 108
Width: 276
Flags: MW
HStem: -3 21G<104 104>
VStem: 11 266<494 497>
LayerCount: 4
Back
Fore
SplineSet
145 112 m 1
 166 239 188 358 209 500 c 1
 277 497 l 1
 245 370 188 80 176 3 c 1
 104 -3 l 1
 88 123 46 331 11 494 c 1
 76 504 l 1
 95 375 121 241 145 112 c 1
EndSplineSet
Validated: 1
Layer: 2
Layer: 3
EndChar

StartChar: w
Encoding: 119 119 109
Width: 470
Flags: MW
HStem: -7 21G -2 21G<334 334>
VStem: 11 458<494 495>
LayerCount: 4
Back
Fore
SplineSet
145 107 m 1x60
 166 234 190 328 211 470 c 1
 272 473 l 1
 291 344 314 233 338 104 c 1
 365 229 382 355 397 498 c 1
 469 495 l 1
 441 368 382 80 370 4 c 1
 334 -2 l 2
 322 -4 310 -6 298 -7 c 1xa0
 285 84 261 215 237 338 c 1
 211 208 184 54 176 3 c 1
 104 -3 l 1
 88 123 46 331 11 494 c 1
 76 504 l 1
 95 375 121 236 145 107 c 1x60
EndSplineSet
Validated: 1
Layer: 2
Layer: 3
EndChar

StartChar: x
Encoding: 120 120 110
Width: 299
Flags: MW
HStem: -9 21G<92 92> 495 20G<70 70>
VStem: 10 289
LayerCount: 4
Back
Fore
SplineSet
149 309 m 1
 169 369 190 450 206 506 c 1
 271 492 l 1
 240 405 211 328 187 252 c 1
 222 173 256 104 299 23 c 1
 241 -13 l 1
 218 47 183 125 151 193 c 1
 131 134 111 56 92 -9 c 1
 26 2 l 1
 54 81 82 164 113 251 c 1
 81 327 45 411 10 480 c 1
 70 515 l 1
 94 452 124 369 149 309 c 1
EndSplineSet
Validated: 1
Layer: 2
Layer: 3
EndChar

StartChar: y
Encoding: 121 121 111
Width: 340
Flags: MW
HStem: -180 60<149.5 202.5 149.5 213.5> -3 63<116.5 169.5 116.5 175.5>
VStem: 35 66<494 500> 247 58<-52.5 18.5>
AnchorPoint: "top" 169 496 basechar 0
AnchorPoint: "bottom" 165 -180 basechar 0
LayerCount: 4
Back
Fore
SplineSet
247 -6 m 0
 247 43 245 107 245 187 c 1
 226 81 210 -3 141 -3 c 0
 33 -3 38 95 35 494 c 1
 101 500 l 1
 98 136 90 60 143 60 c 0
 196 60 223 164 228 495 c 1
 291 502 l 1
 294 279 305 83 305 -32 c 0
 305 -137 266 -180 161 -180 c 0
 126 -180 89 -177 49 -170 c 1
 60 -109 l 1
 95 -116 131 -120 168 -120 c 0
 237 -120 247 -99 247 -6 c 0
EndSplineSet
Validated: 33
Layer: 2
Layer: 3
EndChar

StartChar: z
Encoding: 122 122 112
Width: 272
Flags: MW
HStem: -1 55 441 56<133 150 150 175>
VStem: 25 227<39 57> 26 224
AnchorPoint: "top" 140 496 basechar 0
AnchorPoint: "bottom" 146 0 basechar 0
LayerCount: 4
Back
Fore
SplineSet
30 497 m 1xe0
 240 497 l 1
 245 459 l 1
 199 341 132 154 100 53 c 1
 112 53 125 54 139 54 c 2
 181 54 l 1
 252 57 l 1
 250 0 l 1xe0
 28 -1 l 1
 25 39 l 1xd0
 89 194 135 305 175 441 c 1
 150 441 l 2
 116 441 64 440 32 438 c 1
 30 497 l 1xe0
EndSplineSet
Validated: 1
Layer: 2
Layer: 3
EndChar

StartChar: braceleft
Encoding: 123 123 113
Width: 250
Flags: MW
HStem: -151 55 269 42<0 0> 661 51<178 218>
VStem: 67 57<577.5 618 568 646.5> 78 63 84 56<361.5 422 361.5 430>
LayerCount: 4
Back
Fore
SplineSet
124 598 m 0xb0
 124 538 140 458 140 386 c 0
 140 337 123 304 89 294 c 1
 123 287 141 258 141 205 c 0
 141 124 134 22 134 -41 c 0
 134 -99 163 -104 231 -88 c 1xe8
 237 -140 l 1
 208 -147 184 -151 164 -151 c 0xe4
 101 -151 78 -118 78 -44 c 0
 78 67 84 125 84 207 c 0
 84 247 55 262 0 269 c 1
 0 311 l 1
 55 318 84 339 84 384 c 0
 84 476 67 539 67 616 c 0
 67 677 102 711 218 712 c 1
 217 661 l 1
 139 661 124 638 124 598 c 0xb0
EndSplineSet
Validated: 33
Layer: 2
Layer: 3
EndChar

StartChar: bar
Encoding: 124 124 114
Width: 200
Flags: MW
HStem: -139 846<76 123>
VStem: 64 59<706 707>
LayerCount: 4
Back
Fore
SplineSet
64 706 m 1
 123 707 l 1
 126 440 127 107 136 -137 c 1
 76 -139 l 1
 75 106 78 432 64 706 c 1
EndSplineSet
Validated: 1
Layer: 2
Layer: 3
EndChar

StartChar: braceright
Encoding: 125 125 115
Width: 250
Flags: MW
HStem: -151 51<32 72> 276 42<250 250> 654 55
VStem: 109 63 110 56<165 225.5> 126 57<-65 -21.5 -90.5 -15>
LayerCount: 4
Back
Fore
SplineSet
126 -45 m 0xa8
 126 15 110 129 110 201 c 0xf0
 110 250 127 283 161 293 c 1
 127 300 109 329 109 382 c 0
 109 463 116 539 116 602 c 0
 116 660 86 658 19 651 c 1xe8
 13 703 l 1
 42 708 66 709 86 709 c 0xa4
 149 709 172 679 172 605 c 0
 172 494 166 462 166 380 c 0
 166 340 195 325 250 318 c 1
 250 276 l 1
 195 269 166 248 166 203 c 0
 166 111 183 17 183 -60 c 0
 183 -121 148 -150 32 -151 c 1
 33 -100 l 1
 111 -100 126 -85 126 -45 c 0xa8
EndSplineSet
Validated: 33
Layer: 2
Layer: 3
EndChar

StartChar: asciitilde
Encoding: 126 126 116
Width: 380
Flags: MW
HStem: 233 58<233.5 274.5 233.5 284> 298 58<103.5 137.5>
VStem: 10 360<288 301>
LayerCount: 4
Back
Fore
SplineSet
331 339 m 1
 370 301 l 1
 347 269 308 233 260 233 c 0
 193 233 159 298 116 298 c 0xa0
 91 298 73 280 47 249 c 1
 10 288 l 1
 35 319 75 356 118 356 c 0
 184 356 208 291 259 291 c 0
 290 291 308 309 331 339 c 1
EndSplineSet
Validated: 1
Layer: 2
Layer: 3
EndChar

StartChar: Adieresis
Encoding: 196 196 117
Width: 323
Flags: MW
HStem: -5 21G<257 257> 0 21G<-1 -1> 165 53 714 83<69 91 202 225>
VStem: -1 323<0 5> 41 83<750 760> 175 83<750 760>
LayerCount: 4
Back
Fore
SplineSet
153 530 m 1x68
 140 455 120 333 102 217 c 1
 215 220 l 1
 192 335 167 457 153 530 c 1x68
225 168 m 1
 93 163 l 1
 83 102 74 44 67 -1 c 1
 -1 0 l 1xa8
 30 128 81 402 117 646 c 1
 194 652 l 1
 211 526 286 168 322 5 c 1
 257 -5 l 1
 250 39 238 101 225 168 c 1
124 761 m 0x68
 124 739 105 714 77 714 c 0
 52 714 41 729 41 749 c 0
 41 771 52 797 86 797 c 0
 109 797 124 779 124 761 c 0x68
258 761 m 0
 258 739 239 714 211 714 c 0
 186 714 175 729 175 749 c 0
 175 771 185 797 219 797 c 0
 242 797 258 779 258 761 c 0
EndSplineSet
Validated: 1
Layer: 2
Layer: 3
EndChar

StartChar: Aring
Encoding: 197 197 118
Width: 323
Flags: MW
HStem: -5 21G<257 257> 0 21G<-1 -1> 165 53 665 38<144.5 164.5 144.5 177> 781 39<143.5 162.5>
VStem: 74 45<730.5 755.5 730.5 765.5> 186 49<729.5 755.5>
LayerCount: 4
Back
Fore
SplineSet
153 530 m 1x7e
 140 455 120 333 102 217 c 1
 215 220 l 1
 192 335 167 457 153 530 c 1x7e
225 168 m 1
 93 163 l 1
 83 102 74 44 67 -1 c 1
 -1 0 l 1
 30 128 81 402 117 646 c 1
 194 652 l 1
 211 526 286 168 322 5 c 1
 257 -5 l 1
 250 39 238 101 225 168 c 1
157 820 m 0xbe
 213 820 235 779 235 741 c 0
 235 702 205 665 149 665 c 0
 106 665 74 694 74 741 c 0
 74 790 105 820 157 820 c 0xbe
186 741 m 0
 186 770 171 781 154 781 c 0
 133 781 119 766 119 745 c 0
 119 716 135 703 154 703 c 0
 175 703 186 718 186 741 c 0
EndSplineSet
Validated: 1
Layer: 2
Layer: 3
EndChar

StartChar: Ccedilla
Encoding: 199 199 119
Width: 293
Flags: MW
HStem: -9 58 -5 21G<151 151> 603 55<156.5 209.5>
VStem: 30 65<239.5 432.5 239.5 446.5> 189 54<-115 -98>
LayerCount: 4
Back
Fore
SplineSet
276 636 m 1x78
 258 587 l 1
 243 592 220 603 199 603 c 0
 114 603 95 528 95 337 c 0xb0
 95 142 115 89 151 59 c 0
 171 42 240 48 271 61 c 1
 288 15 l 1
 257 -2 225 -9 199 -9 c 2
 197 -9 l 1
 187 -39 l 1xb8
 225 -54 243 -76 243 -111 c 0
 243 -144 199 -175 168 -180 c 1
 151 -147 l 1
 177 -135 189 -123 189 -107 c 0
 189 -89 167 -75 134 -59 c 1
 151 -5 l 1
 59 12 30 92 30 319 c 0
 30 574 68 658 207 658 c 0
 236 658 263 650 276 636 c 1x78
EndSplineSet
Validated: 33
Layer: 2
Layer: 3
EndChar

StartChar: Eacute
Encoding: 201 201 120
Width: 285
Flags: MW
HStem: -7 62 0 21G<274 274> 307 55 594 60
VStem: 40 69<592 644>
LayerCount: 4
Back
Fore
SplineSet
40 644 m 1xb8
 248 654 l 1
 250 596 l 1
 109 592 l 1
 110 501 111 428 112 359 c 1
 230 366 l 1
 232 309 l 1
 113 305 l 1
 115 226 118 149 121 51 c 1
 272 60 l 1
 274 0 l 1
 54 -7 l 1
 53 238 54 370 40 644 c 1xb8
213 820 m 1x78
 240 760 l 1
 190 739 117 706 72 685 c 1
 52 728 l 1xb8
 94 749 152 781 213 820 c 1x78
EndSplineSet
Validated: 1
Layer: 2
Layer: 3
EndChar

StartChar: Ntilde
Encoding: 209 209 121
Width: 364
Flags: MW
HStem: -7 21G<233 233> -3 21G<49 49> 635 20G 637 20G<312 312> 716 55<201 230 201 237> 753 57<110 134>
VStem: 40 77 241 71<644 657>
LayerCount: 4
Back
Fore
SplineSet
324 4 m 1x5b
 233 -7 l 1
 205 122 133 393 97 522 c 1x9b
 101 410 110 144 117 2 c 1
 49 -3 l 1
 52 125 48 476 40 644 c 1x6b
 64 648 107 652 131 655 c 1
 150 563 230 252 262 129 c 1
 261 258 253 418 241 644 c 1
 312 657 l 1x9b
 313 348 315 248 324 4 c 1x5b
270 802 m 1
 301 766 l 1
 285 744 254 716 220 716 c 0
 173 716 149 753 119 753 c 0
 101 753 88 741 70 724 c 1x57
 40 758 l 1
 58 780 91 810 121 810 c 0
 167 810 183 771 219 771 c 0
 241 771 254 781 270 802 c 1
EndSplineSet
Validated: 33
Layer: 2
Layer: 3
EndChar

StartChar: Odieresis
Encoding: 214 214 122
Width: 355
Flags: MW
HStem: -10 59<154.5 210.5 154.5 237.5> 600 58<145 200> 714 83<93 115 226 249>
VStem: 35 65<219 414 219 430> 65 83<750 760> 199 83<750 760> 253 67<221.5 403.5 206.5 432.5>
LayerCount: 4
Back
Fore
SplineSet
179 658 m 0xf2
 301 658 320 518 320 289 c 0
 320 124 302 -10 173 -10 c 0
 74 -10 35 80 35 310 c 0
 35 550 65 658 179 658 c 0xf2
253 319 m 0
 253 546 225 600 175 600 c 0
 115 600 100 507 100 321 c 0
 100 117 123 49 186 49 c 0
 235 49 253 124 253 319 c 0
148 761 m 0
 148 739 129 714 101 714 c 0
 76 714 65 729 65 749 c 0
 65 771 76 797 110 797 c 0
 133 797 148 779 148 761 c 0
282 761 m 0
 282 739 263 714 235 714 c 0
 210 714 199 729 199 749 c 0
 199 771 209 797 243 797 c 0
 266 797 282 779 282 761 c 0
EndSplineSet
Validated: 1
Layer: 2
Layer: 3
EndChar

StartChar: Udieresis
Encoding: 220 220 123
Width: 349
Flags: MW
HStem: -8 58<165 209.5 165 220> 714 83<92 114 225 248>
VStem: 38 70<644 650> 64 83<750 760> 198 83<750 760> 248 61<125 215.5>
LayerCount: 4
Back
Fore
SplineSet
236 645 m 1xe4
 307 652 l 1xd8
 308 407 309 267 309 171 c 0
 309 36 251 -8 189 -8 c 0
 110 -8 70 32 61 154 c 0
 54 250 49 419 38 644 c 1
 108 650 l 1
 110 413 119 249 125 164 c 0
 131 85 143 50 187 50 c 0
 232 50 248 77 248 173 c 0
 248 258 243 476 236 645 c 1xe4
147 761 m 0
 147 739 128 714 100 714 c 0
 75 714 64 729 64 749 c 0
 64 771 75 797 109 797 c 0
 132 797 147 779 147 761 c 0
281 761 m 0
 281 739 262 714 234 714 c 0
 209 714 198 729 198 749 c 0
 198 771 208 797 242 797 c 0
 265 797 281 779 281 761 c 0
EndSplineSet
Validated: 1
Layer: 2
Layer: 3
EndChar

StartChar: aacute
Encoding: 225 225 124
Width: 340
Flags: MW
HStem: -6 21G<244 244> -2 61<128 171.5 128 176.5> 448 54<151 186>
VStem: 30 64<156.5 301.5 156.5 321> 244 43
LayerCount: 4
Back
Fore
SplineSet
177 448 m 0x78
 125 448 94 376 94 227 c 0
 94 86 109 59 147 59 c 0
 196 59 215 165 222 435 c 1
 210 446 195 448 177 448 c 0x78
288 470 m 1
 291 281 295 168 305 6 c 1
 244 -6 l 1
 245 169 l 1
 227 66 207 -2 146 -2 c 0
 63 -2 30 53 30 244 c 0
 30 398 79 502 183 502 c 0x78
 229 502 254 495 288 470 c 1
219 746 m 1
 275 703 l 1
 239 665 181 605 148 568 c 1
 113 600 l 1
 143 636 179 685 219 746 c 1
EndSplineSet
Validated: 1
Layer: 2
Layer: 3
EndChar

StartChar: agrave
Encoding: 224 224 125
Width: 340
Flags: MW
HStem: -6 21G<244 244> -2 61<128 171.5 128 176.5> 448 54<151 186>
VStem: 30 64<156.5 301.5 156.5 321> 244 43
LayerCount: 4
Back
Fore
SplineSet
177 448 m 0x78
 125 448 94 376 94 227 c 0
 94 86 109 59 147 59 c 0
 196 59 215 165 222 435 c 1
 210 446 195 448 177 448 c 0x78
288 470 m 1xb8
 291 281 295 168 305 6 c 1
 244 -6 l 1
 245 169 l 1
 227 66 207 -2 146 -2 c 0
 63 -2 30 53 30 244 c 0x78
 30 398 79 502 183 502 c 0
 229 502 254 495 288 470 c 1xb8
82 703 m 1
 138 746 l 1
 178 685 214 636 244 600 c 1
 209 568 l 1
 176 605 118 665 82 703 c 1
EndSplineSet
Validated: 1
Layer: 2
Layer: 3
EndChar

StartChar: acircumflex
Encoding: 226 226 126
Width: 340
Flags: MW
HStem: -6 21G<244 244> -2 61<128 171.5 128 176.5> 448 54<151 186>
VStem: 30 64<156.5 301.5 156.5 321> 244 43
LayerCount: 4
Back
Fore
SplineSet
177 448 m 0x78
 125 448 94 376 94 227 c 0
 94 86 109 59 147 59 c 0
 196 59 215 165 222 435 c 1
 210 446 195 448 177 448 c 0x78
288 470 m 1
 291 281 295 168 305 6 c 1
 244 -6 l 1
 245 169 l 1
 227 66 207 -2 146 -2 c 0x78
 63 -2 30 53 30 244 c 0
 30 398 79 502 183 502 c 0xb8
 229 502 254 495 288 470 c 1
53 597 m 1
 175 742 l 1
 300 600 l 1
 254 564 l 1
 175 663 l 1
 101 564 l 1
 53 597 l 1
EndSplineSet
Validated: 1
Layer: 2
Layer: 3
EndChar

StartChar: adieresis
Encoding: 228 228 127
Width: 340
Flags: MW
HStem: -6 21G<244 244> -2 61<128 171.5 128 176.5> 448 54<151 186> 608 83<94 116 227 250>
VStem: 30 64<156.5 301.5 156.5 321> 66 83<644 654> 200 83<644 654> 244 43
LayerCount: 4
Back
Fore
SplineSet
177 448 m 0x79
 125 448 94 376 94 227 c 0
 94 86 109 59 147 59 c 0
 196 59 215 165 222 435 c 1
 210 446 195 448 177 448 c 0x79
288 470 m 1
 291 281 295 168 305 6 c 1
 244 -6 l 1x79
 245 169 l 1xb9
 227 66 207 -2 146 -2 c 0
 63 -2 30 53 30 244 c 0
 30 398 79 502 183 502 c 0
 229 502 254 495 288 470 c 1
149 655 m 0
 149 633 130 608 102 608 c 0
 77 608 66 623 66 643 c 0
 66 665 77 691 111 691 c 0
 134 691 149 673 149 655 c 0
283 655 m 0
 283 633 264 608 236 608 c 0
 211 608 200 623 200 643 c 0
 200 665 210 691 244 691 c 0
 267 691 283 673 283 655 c 0
EndSplineSet
Validated: 1
Layer: 2
Layer: 3
EndChar

StartChar: atilde
Encoding: 227 227 128
Width: 340
Flags: MW
HStem: -6 21G<244 244> -2 61<128 171.5 128 176.5> 448 54<151 186> 598 55<204 233 204 240> 635 57<113 137>
VStem: 30 64<156.5 301.5 156.5 321> 244 43
LayerCount: 4
Back
Fore
SplineSet
177 448 m 0x76
 125 448 94 376 94 227 c 0
 94 86 109 59 147 59 c 0
 196 59 215 165 222 435 c 1xb6
 210 446 195 448 177 448 c 0x76
288 470 m 1x76
 291 281 295 168 305 6 c 1x76
 244 -6 l 1
 245 169 l 1x6e
 227 66 207 -2 146 -2 c 0
 63 -2 30 53 30 244 c 0
 30 398 79 502 183 502 c 0
 229 502 254 495 288 470 c 1x76
273 684 m 1
 304 648 l 1
 288 626 257 598 223 598 c 0
 176 598 152 635 122 635 c 0
 104 635 91 623 73 606 c 1
 43 640 l 1
 61 662 94 692 124 692 c 0
 170 692 186 653 222 653 c 0
 244 653 257 663 273 684 c 1
EndSplineSet
Validated: 1
Layer: 2
Layer: 3
EndChar

StartChar: aring
Encoding: 229 229 129
Width: 340
Flags: MW
HStem: -6 21G<244 244> -2 61<128 171.5 128 176.5> 448 54<151 186> 573 38<166.5 186.5 166.5 201> 709 39<165.5 184.5>
VStem: 30 64<156.5 301.5 156.5 321> 96 45<642.5 678.5 642.5 686> 208 49<643.5 678.5> 244 43
LayerCount: 4
Back
Fore
SplineSet
177 448 m 0x7c80
 125 448 94 376 94 227 c 0
 94 86 109 59 147 59 c 0
 196 59 215 165 222 435 c 1
 210 446 195 448 177 448 c 0x7c80
288 470 m 1
 291 281 295 168 305 6 c 1
 244 -6 l 1x7c80
 245 169 l 1xbc80
 227 66 207 -2 146 -2 c 0
 63 -2 30 53 30 244 c 0
 30 398 79 502 183 502 c 0
 229 502 254 495 288 470 c 1
179 748 m 0
 235 748 257 704 257 659 c 0
 257 612 231 573 171 573 c 0
 128 573 96 604 96 659 c 0
 96 713 127 748 179 748 c 0
208 659 m 0
 208 698 193 709 176 709 c 0
 155 709 141 694 141 663 c 0
 141 622 157 611 176 611 c 0
 197 611 208 628 208 659 c 0
EndSplineSet
Validated: 1
Layer: 2
Layer: 3
EndChar

StartChar: ccedilla
Encoding: 231 231 130
Width: 253
Flags: MW
HStem: -7 58<163 163> -1 21G<118 118> 449 55<138.5 174.5>
VStem: 30 61<207 307.5 207 346.5> 155 54<-115 -98>
LayerCount: 4
Back
Fore
SplineSet
241 482 m 1xb8
 223 433 l 1
 208 438 185 449 164 449 c 0
 113 449 91 372 91 243 c 0
 91 171 97 90 130 61 c 0
 138 54 151 51 166 51 c 0
 188 51 213 57 227 64 c 1
 246 18 l 1
 217 2 186 -6 163 -7 c 1
 153 -39 l 1x78
 191 -54 209 -76 209 -111 c 0
 209 -144 165 -175 134 -180 c 1
 117 -147 l 1
 143 -135 155 -123 155 -107 c 0
 155 -89 133 -75 100 -59 c 1
 118 -1 l 1
 62 17 30 82 30 232 c 0
 30 461 80 504 176 504 c 0
 202 504 228 496 241 482 c 1xb8
EndSplineSet
Validated: 1
Layer: 2
Layer: 3
EndChar

StartChar: eacute
Encoding: 233 233 131
Width: 295
Flags: MW
HStem: -6 51<156 190 156 192> 299 44 445 57<150.5 179>
VStem: 30 66<157 230.5 157 302.5> 215 57<343 416>
LayerCount: 4
Back
Fore
SplineSet
262 300 m 1
 99 298 l 1
 97 270 96 239 96 222 c 0
 96 92 130 45 182 45 c 0
 198 45 240 54 263 62 c 1
 275 18 l 1
 248 4 210 -6 174 -6 c 0
 87 -6 30 60 30 251 c 0
 30 354 57 502 176 502 c 0
 243 502 272 458 272 374 c 0
 272 362 271 323 262 300 c 1
167 445 m 0
 134 445 107 402 102 344 c 1
 215 343 l 1
 214 423 191 445 167 445 c 0
208 746 m 1
 264 703 l 1
 228 665 170 605 137 568 c 1
 102 600 l 1
 132 636 168 685 208 746 c 1
EndSplineSet
Validated: 1
Layer: 2
Layer: 3
EndChar

StartChar: egrave
Encoding: 232 232 132
Width: 295
Flags: MW
HStem: -6 51<156 190 156 192> 299 44 445 57<150.5 179>
VStem: 30 66<157 230.5 157 302.5> 215 57<343 416>
LayerCount: 4
Back
Fore
SplineSet
262 300 m 1
 99 298 l 1
 97 270 96 239 96 222 c 0
 96 92 130 45 182 45 c 0
 198 45 240 54 263 62 c 1
 275 18 l 1
 248 4 210 -6 174 -6 c 0
 87 -6 30 60 30 251 c 0
 30 354 57 502 176 502 c 0
 243 502 272 458 272 374 c 0
 272 362 271 323 262 300 c 1
167 445 m 0
 134 445 107 402 102 344 c 1
 215 343 l 1
 214 423 191 445 167 445 c 0
71 703 m 1
 127 746 l 1
 167 685 203 636 233 600 c 1
 198 568 l 1
 165 605 107 665 71 703 c 1
EndSplineSet
Validated: 1
Layer: 2
Layer: 3
EndChar

StartChar: ecircumflex
Encoding: 234 234 133
Width: 295
Flags: MW
HStem: -6 51<156 190 156 192> 299 44 445 57<150.5 179>
VStem: 30 66<157 230.5 157 302.5> 215 57<343 416>
LayerCount: 4
Back
Fore
SplineSet
262 300 m 1
 99 298 l 1
 97 270 96 239 96 222 c 0
 96 92 130 45 182 45 c 0
 198 45 240 54 263 62 c 1
 275 18 l 1
 248 4 210 -6 174 -6 c 0
 87 -6 30 60 30 251 c 0
 30 354 57 502 176 502 c 0
 243 502 272 458 272 374 c 0
 272 362 271 323 262 300 c 1
167 445 m 0
 134 445 107 402 102 344 c 1
 215 343 l 1
 214 423 191 445 167 445 c 0
42 597 m 1
 164 742 l 1
 289 600 l 1
 243 564 l 1
 164 663 l 1
 90 564 l 1
 42 597 l 1
EndSplineSet
Validated: 1
Layer: 2
Layer: 3
EndChar

StartChar: edieresis
Encoding: 235 235 134
Width: 295
Flags: MW
HStem: -6 51<156 190 156 192> 299 44 445 57<150.5 179> 608 83<83 105 216 239>
VStem: 30 66<157 230.5 157 302.5> 55 83<644 654> 189 83<644 654> 215 57<343 416>
LayerCount: 4
Back
Fore
SplineSet
262 300 m 1xf9
 99 298 l 1xf6
 97 270 96 239 96 222 c 0
 96 92 130 45 182 45 c 0
 198 45 240 54 263 62 c 1
 275 18 l 1
 248 4 210 -6 174 -6 c 0
 87 -6 30 60 30 251 c 0
 30 354 57 502 176 502 c 0
 243 502 272 458 272 374 c 0
 272 362 271 323 262 300 c 1xf9
167 445 m 0
 134 445 107 402 102 344 c 1
 215 343 l 1
 214 423 191 445 167 445 c 0
138 655 m 0
 138 633 119 608 91 608 c 0
 66 608 55 623 55 643 c 0
 55 665 66 691 100 691 c 0
 123 691 138 673 138 655 c 0
272 655 m 0
 272 633 253 608 225 608 c 0
 200 608 189 623 189 643 c 0
 189 665 199 691 233 691 c 0
 256 691 272 673 272 655 c 0
EndSplineSet
Validated: 1
Layer: 2
Layer: 3
EndChar

StartChar: iacute
Encoding: 237 237 135
Width: 177
Flags: MW
HStem: -7 21G<68 68>
VStem: 63 61
LayerCount: 4
Back
Fore
SplineSet
58 494 m 1
 124 501 l 1
 127 308 129 194 137 4 c 1
 68 -7 l 1
 70 160 65 327 58 494 c 1
127 746 m 1
 183 703 l 1
 147 665 89 605 56 568 c 1
 21 600 l 1
 51 636 87 685 127 746 c 1
EndSplineSet
Validated: 33
Layer: 2
Layer: 3
EndChar

StartChar: igrave
Encoding: 236 236 136
Width: 177
Flags: MW
HStem: -7 21G<68 68>
VStem: 63 61
LayerCount: 4
Back
Fore
SplineSet
58 494 m 1
 124 501 l 1
 127 308 129 194 137 4 c 1
 68 -7 l 1
 70 160 65 327 58 494 c 1
-10 703 m 1
 46 746 l 1
 86 685 122 636 152 600 c 1
 117 568 l 1
 84 605 26 665 -10 703 c 1
EndSplineSet
Validated: 33
Layer: 2
Layer: 3
EndChar

StartChar: icircumflex
Encoding: 238 238 137
Width: 177
Flags: MW
HStem: -7 21G<68 68>
VStem: 63 61
LayerCount: 4
Back
Fore
SplineSet
58 494 m 1
 124 501 l 1
 127 308 129 194 137 4 c 1
 68 -7 l 1
 70 160 65 327 58 494 c 1
-39 597 m 1
 83 742 l 1
 208 600 l 1
 162 564 l 1
 83 663 l 1
 9 564 l 1
 -39 597 l 1
EndSplineSet
Validated: 33
Layer: 2
Layer: 3
EndChar

StartChar: idieresis
Encoding: 239 239 138
Width: 177
Flags: MW
HStem: -7 21G<68 68> 608 83<2 24 135 158>
VStem: -26 83<644 654> 63 61 108 83<644 654>
LayerCount: 4
Back
Fore
SplineSet
58 494 m 1xd0
 124 501 l 1
 127 308 129 194 137 4 c 1
 68 -7 l 1
 70 160 65 327 58 494 c 1xd0
57 655 m 0
 57 633 38 608 10 608 c 0
 -15 608 -26 623 -26 643 c 0
 -26 665 -15 691 19 691 c 0
 42 691 57 673 57 655 c 0
191 655 m 0xe8
 191 633 172 608 144 608 c 0
 119 608 108 623 108 643 c 0
 108 665 118 691 152 691 c 0
 175 691 191 673 191 655 c 0xe8
EndSplineSet
Validated: 33
Layer: 2
Layer: 3
EndChar

StartChar: ntilde
Encoding: 241 241 139
Width: 340
Flags: MW
HStem: -5 21G<239 239> -3 21G<46 46> 1 21G<305 305> 433 67<176 223.5> 598 55<194 223 194 230> 635 57<103 127>
VStem: 46 51 239 66<-5 1>
LayerCount: 4
Back
Fore
SplineSet
110 3 m 1x3b
 46 -3 l 1
 46 190 44 301 32 491 c 1
 97 502 l 1
 98 308 l 1x9b
 117 421 141 500 211 500 c 0
 319 500 302 400 305 1 c 1
 239 -5 l 1
 241 358 249 433 198 433 c 0x5b
 147 433 115 314 110 3 c 1x3b
263 684 m 1x3b
 294 648 l 1
 278 626 247 598 213 598 c 0x37
 166 598 142 635 112 635 c 0x5b
 94 635 81 623 63 606 c 1
 33 640 l 1
 51 662 84 692 114 692 c 0
 160 692 176 653 212 653 c 0
 234 653 247 663 263 684 c 1x3b
EndSplineSet
Validated: 33
Layer: 2
Layer: 3
EndChar

StartChar: oacute
Encoding: 243 243 140
Width: 311
Flags: MW
HStem: -8 59<134.5 184 134.5 206.5> 445 58<131.5 179>
VStem: 30 62<186 302 186 311.5> 215 66<180.5 293.5 180.5 323>
LayerCount: 4
Back
Fore
SplineSet
162 503 m 0
 274 503 281 347 281 240 c 0
 281 121 266 -8 147 -8 c 0
 65 -8 30 68 30 244 c 0
 30 379 63 503 162 503 c 0
215 247 m 0
 215 399 200 445 158 445 c 0
 105 445 92 351 92 253 c 0
 92 119 110 51 159 51 c 0
 209 51 215 114 215 247 c 0
196 746 m 1
 252 703 l 1
 216 665 158 605 125 568 c 1
 90 600 l 1
 120 636 156 685 196 746 c 1
EndSplineSet
Validated: 1
Layer: 2
Layer: 3
EndChar

StartChar: ograve
Encoding: 242 242 141
Width: 311
Flags: MW
HStem: -8 59<134.5 184 134.5 206.5> 445 58<131.5 179>
VStem: 30 62<186 302 186 311.5> 215 66<180.5 293.5 180.5 323>
LayerCount: 4
Back
Fore
SplineSet
162 503 m 0
 274 503 281 347 281 240 c 0
 281 121 266 -8 147 -8 c 0
 65 -8 30 68 30 244 c 0
 30 379 63 503 162 503 c 0
215 247 m 0
 215 399 200 445 158 445 c 0
 105 445 92 351 92 253 c 0
 92 119 110 51 159 51 c 0
 209 51 215 114 215 247 c 0
59 703 m 1
 115 746 l 1
 155 685 191 636 221 600 c 1
 186 568 l 1
 153 605 95 665 59 703 c 1
EndSplineSet
Validated: 1
Layer: 2
Layer: 3
EndChar

StartChar: ocircumflex
Encoding: 244 244 142
Width: 311
Flags: MW
HStem: -8 59<134.5 184 134.5 206.5> 445 58<131.5 179>
VStem: 30 62<186 302 186 311.5> 215 66<180.5 293.5 180.5 323>
LayerCount: 4
Back
Fore
SplineSet
162 503 m 0
 274 503 281 347 281 240 c 0
 281 121 266 -8 147 -8 c 0
 65 -8 30 68 30 244 c 0
 30 379 63 503 162 503 c 0
215 247 m 0
 215 399 200 445 158 445 c 0
 105 445 92 351 92 253 c 0
 92 119 110 51 159 51 c 0
 209 51 215 114 215 247 c 0
30 597 m 1
 152 742 l 1
 277 600 l 1
 231 564 l 1
 152 663 l 1
 78 564 l 1
 30 597 l 1
EndSplineSet
Validated: 1
Layer: 2
Layer: 3
EndChar

StartChar: odieresis
Encoding: 246 246 143
Width: 311
Flags: MW
HStem: -8 59<134.5 184 134.5 206.5> 445 58<131.5 179> 608 83<71 93 204 227>
VStem: 30 62<186 302 186 311.5> 43 83<644 654> 177 83<644 654> 215 66<180.5 293.5 180.5 323>
LayerCount: 4
Back
Fore
SplineSet
162 503 m 0xf2
 274 503 281 347 281 240 c 0
 281 121 266 -8 147 -8 c 0
 65 -8 30 68 30 244 c 0
 30 379 63 503 162 503 c 0xf2
215 247 m 0
 215 399 200 445 158 445 c 0
 105 445 92 351 92 253 c 0
 92 119 110 51 159 51 c 0
 209 51 215 114 215 247 c 0
126 655 m 0
 126 633 107 608 79 608 c 0
 54 608 43 623 43 643 c 0
 43 665 54 691 88 691 c 0
 111 691 126 673 126 655 c 0
260 655 m 0
 260 633 241 608 213 608 c 0
 188 608 177 623 177 643 c 0
 177 665 187 691 221 691 c 0
 244 691 260 673 260 655 c 0
EndSplineSet
Validated: 1
Layer: 2
Layer: 3
EndChar

StartChar: otilde
Encoding: 245 245 144
Width: 311
Flags: MW
HStem: -8 59<134.5 184 134.5 206.5> 445 58<131.5 179> 598 55<181 210 181 217> 635 57<90 114>
VStem: 30 62<186 302 186 311.5> 215 66<180.5 293.5 180.5 323>
LayerCount: 4
Back
Fore
SplineSet
162 503 m 0xec
 274 503 281 347 281 240 c 0
 281 121 266 -8 147 -8 c 0
 65 -8 30 68 30 244 c 0xdc
 30 379 63 503 162 503 c 0xec
215 247 m 0xec
 215 399 200 445 158 445 c 0
 105 445 92 351 92 253 c 0
 92 119 110 51 159 51 c 0
 209 51 215 114 215 247 c 0xec
250 684 m 1
 281 648 l 1
 265 626 234 598 200 598 c 0
 153 598 129 635 99 635 c 0
 81 635 68 623 50 606 c 1
 20 640 l 1
 38 662 71 692 101 692 c 0
 147 692 163 653 199 653 c 0
 221 653 234 663 250 684 c 1
EndSplineSet
Validated: 1
Layer: 2
Layer: 3
EndChar

StartChar: uacute
Encoding: 250 250 145
Width: 340
Flags: MW
HStem: -7 21G<242 242> -3 63<117.5 170 117.5 176>
VStem: 34 69<494 500> 243 48
LayerCount: 4
Back
Fore
SplineSet
226 495 m 1x70
 292 502 l 1
 295 309 297 195 305 5 c 1
 242 -7 l 1xb0
 245 187 l 1
 226 81 211 -3 141 -3 c 0
 32 -3 37 91 34 494 c 1
 103 500 l 1
 102 137 92 60 143 60 c 0
 197 60 221 165 226 495 c 1x70
209 746 m 1
 265 703 l 1
 229 665 171 605 138 568 c 1
 103 600 l 1
 133 636 169 685 209 746 c 1
EndSplineSet
Validated: 33
Layer: 2
Layer: 3
EndChar

StartChar: ugrave
Encoding: 249 249 146
Width: 340
Flags: MW
HStem: -7 21G<242 242> -3 63<117.5 170 117.5 176>
VStem: 34 69<494 500> 243 48
LayerCount: 4
Back
Fore
SplineSet
226 495 m 1x70
 292 502 l 1
 295 309 297 195 305 5 c 1xb0
 242 -7 l 1
 245 187 l 1
 226 81 211 -3 141 -3 c 0
 32 -3 37 91 34 494 c 1
 103 500 l 1
 102 137 92 60 143 60 c 0
 197 60 221 165 226 495 c 1x70
72 703 m 1
 128 746 l 1
 168 685 204 636 234 600 c 1
 199 568 l 1
 166 605 108 665 72 703 c 1
EndSplineSet
Validated: 33
Layer: 2
Layer: 3
EndChar

StartChar: ucircumflex
Encoding: 251 251 147
Width: 340
Flags: MW
HStem: -7 21G<242 242> -3 63<117.5 170 117.5 176>
VStem: 34 69<494 500> 243 48
LayerCount: 4
Back
Fore
SplineSet
226 495 m 1x70
 292 502 l 1xb0
 295 309 297 195 305 5 c 1
 242 -7 l 1
 245 187 l 1
 226 81 211 -3 141 -3 c 0
 32 -3 37 91 34 494 c 1
 103 500 l 1
 102 137 92 60 143 60 c 0
 197 60 221 165 226 495 c 1x70
43 597 m 1
 165 742 l 1
 290 600 l 1
 244 564 l 1
 165 663 l 1
 91 564 l 1
 43 597 l 1
EndSplineSet
Validated: 33
Layer: 2
Layer: 3
EndChar

StartChar: udieresis
Encoding: 252 252 148
Width: 340
Flags: MW
HStem: -7 21G<242 242> -3 63<117.5 170 117.5 176> 608 83<84 106 217 240>
VStem: 34 69<494 500> 56 83<644 654> 190 83<644 654> 243 48
LayerCount: 4
Back
Fore
SplineSet
226 495 m 1x72
 292 502 l 1
 295 309 297 195 305 5 c 1
 242 -7 l 1
 245 187 l 1
 226 81 211 -3 141 -3 c 0xaa
 32 -3 37 91 34 494 c 1
 103 500 l 1
 102 137 92 60 143 60 c 0
 197 60 221 165 226 495 c 1x72
139 655 m 0
 139 633 120 608 92 608 c 0x74
 67 608 56 623 56 643 c 0
 56 665 67 691 101 691 c 0
 124 691 139 673 139 655 c 0
273 655 m 0
 273 633 254 608 226 608 c 0
 201 608 190 623 190 643 c 0
 190 665 200 691 234 691 c 0
 257 691 273 673 273 655 c 0
EndSplineSet
Validated: 33
Layer: 2
Layer: 3
EndChar

StartChar: dagger
Encoding: 8224 8224 149
Width: 380
Flags: MW
HStem: 0 21G<162 221 162 162> 440 53 445 52
VStem: 158 56 162 55
LayerCount: 4
Back
Fore
SplineSet
215 649 m 1xd0
 213 494 l 1xb0
 352 500 l 1
 353 446 l 1
 214 444 l 1
 221 0 l 1
 162 0 l 1xa8
 163 443 l 1
 23 437 l 1
 23 494 l 1xc8
 161 492 l 1
 155 648 l 1
 215 649 l 1xd0
EndSplineSet
Validated: 1
Layer: 2
Layer: 3
EndChar

StartChar: degree
Encoding: 176 176 150
Width: 292
Flags: MW
HStem: 348 47<128.5 166 128.5 180.5> 606 49<126 162>
VStem: 30 55<473 538.5 473 549.5> 202 60<461.5 539 454.5 540>
LayerCount: 4
Back
Fore
SplineSet
149 655 m 0
 233 655 262 579 262 499 c 0
 262 410 223 348 138 348 c 0
 76 348 30 396 30 499 c 0
 30 600 75 655 149 655 c 0
202 500 m 0
 202 580 178 606 146 606 c 0
 106 606 85 572 85 505 c 0
 85 441 110 395 147 395 c 0
 185 395 202 423 202 500 c 0
EndSplineSet
Validated: 1
Layer: 2
Layer: 3
EndChar

StartChar: cent
Encoding: 162 162 151
Width: 253
Flags: MW
HStem: -50 163 395 55<139 180>
VStem: 30 61<199 300.5 199 301> 123 58 129 58
LayerCount: 4
Back
Fore
SplineSet
227 128 m 1xe8
 246 82 l 1
 224 70 203 62 183 59 c 1
 191 -47 l 1
 128 -52 l 1xe8
 130 60 l 1
 66 73 30 129 30 232 c 0
 30 370 63 428 127 445 c 1
 119 550 l 1
 183 555 l 1
 180 450 l 1
 204 449 227 439 241 428 c 1xf0
 223 379 l 1
 208 384 185 395 164 395 c 0
 114 395 91 358 91 243 c 0
 91 155 117 114 168 114 c 0
 185 114 205 119 227 128 c 1xe8
EndSplineSet
Validated: 1
Layer: 2
Layer: 3
EndChar

StartChar: sterling
Encoding: 163 163 152
Width: 310
Flags: MW
HStem: -2 51 267 51 272 51 532 60<165 196>
VStem: 72 57<434.5 485.5 433 502> 87 57<105 134>
LayerCount: 4
Back
Fore
SplineSet
32 266 m 1xd4
 31 317 l 1xd4
 77 319 l 1
 75 369 72 416 72 453 c 0
 72 551 108 592 178 592 c 0
 225 592 264 581 272 575 c 1
 260 520 l 1
 228 529 212 532 180 532 c 0
 150 532 129 519 129 452 c 0
 129 414 131 368 134 322 c 1
 209 325 l 1xd8
 211 274 l 1xb8
 136 271 l 1
 140 208 144 152 144 123 c 0
 144 87 140 70 130 49 c 1
 177 49 262 56 296 58 c 1
 297 0 l 1
 38 -2 l 1
 35 38 l 1
 71 48 87 66 87 111 c 0
 87 157 84 213 81 268 c 1xb4
 32 266 l 1xd4
EndSplineSet
Validated: 1
Layer: 2
Layer: 3
EndChar

StartChar: section
Encoding: 167 167 153
Width: 315
Flags: MW
HStem: -180 55<120 166 120 177.5> 647 54<145 174>
VStem: 35 63<255 288.5 255 300> 39 63<569 607 569 625> 216 62<-87 -42>
LayerCount: 4
Back
Fore
SplineSet
182 120 m 1xd8
 230 65 278 8 278 -49 c 0
 278 -151 223 -180 132 -180 c 0
 105 -180 72 -177 45 -167 c 1
 53 -117 l 1
 80 -122 106 -125 134 -125 c 0
 198 -125 216 -111 216 -63 c 0xe8
 216 -21 189 18 134 80 c 0
 55 169 35 207 35 269 c 0
 35 331 69 384 134 402 c 1
 133 403 l 2
 81 454 39 525 39 587 c 0
 39 663 87 701 169 701 c 0
 199 701 219 697 242 691 c 1
 233 638 l 1xd8
 205 642 184 647 164 647 c 0xe8
 126 647 102 626 102 588 c 0
 102 550 126 507 173 457 c 0
 221 406 280 330 280 270 c 0
 280 188 243 137 182 120 c 1xd8
178 354 m 1
 118 353 98 307 98 270 c 0
 98 240 106 213 140 168 c 1
 199 171 218 210 218 256 c 0
 218 292 203 323 178 354 c 1
EndSplineSet
Validated: 1
Layer: 2
Layer: 3
EndChar

StartChar: bullet
Encoding: 8226 8226 154
Width: 292
Flags: MW
HStem: 207 169<125.5 166.5>
VStem: 70 152<265.5 320>
LayerCount: 4
Back
Fore
SplineSet
222 293 m 0
 222 228 187 207 146 207 c 0
 105 207 70 240 70 291 c 0
 70 349 102 376 148 376 c 0
 186 376 222 348 222 293 c 0
EndSplineSet
Validated: 1
Layer: 2
Layer: 3
EndChar

StartChar: paragraph
Encoding: 182 182 155
Width: 425
Flags: MW
HStem: -4 21G<198 198> -2 21G<317 317> 262 57<132.5 156.5> 600 55<138 167>
VStem: 20 61<408 509.5 408 528> 198 44 301 60<641 641>
LayerCount: 4
Back
Fore
SplineSet
184 599 m 1x7e
 178 600 171 600 163 600 c 0xbe
 113 600 81 567 81 452 c 0
 81 364 107 319 158 319 c 0
 169 319 181 321 195 325 c 1
 193 406 190 491 184 599 c 1x7e
196 269 m 1
 180 264 164 262 149 262 c 0
 68 262 20 329 20 447 c 0
 20 609 77 655 173 655 c 0x7e
 199 655 222 649 242 645 c 1
 244 336 247 246 260 2 c 1
 198 -4 l 1
 198 102 197 186 196 269 c 1
301 641 m 1
 361 652 l 1
 361 343 364 246 379 2 c 1
 317 -2 l 1
 316 243 314 367 301 641 c 1
EndSplineSet
Validated: 1
Layer: 2
Layer: 3
EndChar

StartChar: germandbls
Encoding: 223 223 156
Width: 380
Flags: MW
HStem: -8 55<184 188> -7 21G<69 69> 641 56<152.5 200>
VStem: 58 66<416 513.5> 242 64<496 570.5> 288 62<135 237>
LayerCount: 4
Back
Fore
SplineSet
124 475 m 0x78
 124 288 128 248 138 4 c 1
 69 -7 l 1x74
 69 238 58 364 58 468 c 0
 58 559 59 697 187 697 c 0
 271 697 306 623 306 539 c 0x78
 306 453 284 406 249 370 c 1
 305 352 350 305 350 196 c 0
 350 44 275 -2 188 -8 c 1
 184 47 l 1
 243 54 288 78 288 192 c 0xb4
 288 282 251 325 177 329 c 1
 174 376 l 1
 221 397 242 432 242 539 c 0
 242 602 219 641 181 641 c 0
 124 641 124 557 124 475 c 0x78
EndSplineSet
Validated: 1
Layer: 2
Layer: 3
EndChar

StartChar: registered
Encoding: 174 174 157
Width: 566
Flags: MW
HStem: -12 51<236.5 353 236.5 372> 306 40<261 261> 449 62 606 50<225.5 334.5>
VStem: 35 55<219 414 219 424> 206 55 326 56<393 431.5> 474 57<213.5 409.5 211.5 432.5>
LayerCount: 4
Back
Fore
SplineSet
267 140 m 1
 206 129 l 1
 209 219 206 365 204 452 c 1
 168 446 l 1
 161 496 l 1
 212 505 237 511 282 511 c 0
 343 511 382 490 382 421 c 0
 382 360 358 334 327 324 c 1
 344 320 355 312 361 288 c 0
 372 245 380 217 401 146 c 1
 335 128 l 1
 327 185 315 238 305 275 c 0
 298 300 279 311 261 306 c 1
 263 247 265 188 267 140 c 1
260 346 m 1
 309 350 326 373 326 413 c 0
 326 450 303 466 258 457 c 1
 258 424 259 386 260 346 c 1
288 656 m 0
 467 656 531 524 531 295 c 0
 531 128 454 -12 290 -12 c 0
 126 -12 35 104 35 310 c 0
 35 538 134 656 288 656 c 0
474 319 m 0
 474 546 385 606 284 606 c 0
 167 606 90 507 90 321 c 0
 90 117 173 39 300 39 c 0
 406 39 474 108 474 319 c 0
EndSplineSet
Validated: 33
Layer: 2
Layer: 3
EndChar

StartChar: copyright
Encoding: 169 169 158
Width: 566
Flags: MW
HStem: -12 51<236.5 353 236.5 372> 123 57<283.5 313.5> 461 55<280 315.5> 496 20G<269 330> 606 50<225.5 334.5>
VStem: 35 55<219 414 219 424> 171 61<265 366.5 265 383> 474 57<213.5 409.5 211.5 432.5>
LayerCount: 4
Back
Fore
SplineSet
368 194 m 1xef
 387 148 l 1
 357 131 327 123 300 123 c 0
 219 123 171 180 171 298 c 0
 171 468 221 516 317 516 c 0
 343 516 367 506 382 494 c 1
 364 445 l 1
 349 450 326 461 305 461 c 0
 255 461 232 424 232 309 c 0
 232 221 258 180 309 180 c 0
 326 180 346 185 368 194 c 1xef
288 656 m 0
 467 656 531 524 531 295 c 0xdf
 531 128 454 -12 290 -12 c 0
 126 -12 35 104 35 310 c 0
 35 538 134 656 288 656 c 0
474 319 m 0
 474 546 385 606 284 606 c 0
 167 606 90 507 90 321 c 0
 90 117 173 39 300 39 c 0
 406 39 474 108 474 319 c 0
EndSplineSet
Validated: 1
Layer: 2
Layer: 3
EndChar

StartChar: trademark
Encoding: 8482 8482 159
Width: 609
Flags: MW
HStem: 586 62 600 47
VStem: 116 52<597 599> 283 52<351 351 351 380> 482 57<353 353 353 379>
LayerCount: 4
Back
Fore
SplineSet
116 597 m 1xb8
 41 594 l 1x78
 40 645 l 1
 249 651 l 1
 250 602 l 1
 168 599 l 1
 169 514 172 422 177 353 c 1
 122 345 l 1
 121 410 120 507 116 597 c 1xb8
478 586 m 1
 464 500 451 422 440 351 c 1
 383 349 l 1
 371 413 342 515 328 579 c 1
 330 523 331 422 335 351 c 1
 283 348 l 1
 283 412 282 571 279 645 c 1
 291 647 353 649 365 651 c 1
 373 605 396 505 411 443 c 1
 424 508 435 602 439 647 c 1xb8
 526 649 l 1
 530 586 531 435 539 353 c 1
 482 347 l 1
 482 411 480 522 478 586 c 1
EndSplineSet
Validated: 1
Layer: 2
Layer: 3
EndChar

StartChar: acute
Encoding: 180 180 160
Width: 262
Flags: MW
HStem: 568 178<85 156>
VStem: 50 162<600 703>
LayerCount: 4
Back
Fore
SplineSet
156 746 m 1
 212 703 l 1
 176 665 118 605 85 568 c 1
 50 600 l 1
 80 636 116 685 156 746 c 1
EndSplineSet
Validated: 1
Layer: 2
Layer: 3
EndChar

StartChar: dieresis
Encoding: 168 168 161
Width: 317
Flags: MW
HStem: 608 83<78 100 211 234>
VStem: 50 83<644 654> 50 217<644 654> 184 83<644 654>
LayerCount: 4
Back
Fore
SplineSet
133 655 m 0xa0
 133 633 114 608 86 608 c 0
 61 608 50 623 50 643 c 0
 50 665 61 691 95 691 c 0
 118 691 133 673 133 655 c 0xa0
267 655 m 0
 267 633 248 608 220 608 c 0
 195 608 184 623 184 643 c 0
 184 665 194 691 228 691 c 0
 251 691 267 673 267 655 c 0
EndSplineSet
Validated: 1
Layer: 2
Layer: 3
EndChar

StartChar: notequal
Encoding: 8800 8800 162
Width: 380
Flags: MW
HStem: 169 58<229.5 270.5 229.5 280> 224 58<109.5 143.5> 312 58<226.5 267.5 226.5 277> 367 58<106.5 140.5>
VStem: 13 353<240 354>
LayerCount: 4
Back
Fore
SplineSet
324 421 m 1xa8
 363 383 l 1
 340 351 301 312 253 312 c 0
 186 312 162 367 119 367 c 0
 94 367 76 346 50 315 c 1
 13 354 l 1x98
 38 385 78 425 121 425 c 0
 187 425 201 370 252 370 c 0
 283 370 301 391 324 421 c 1xa8
327 278 m 1xa8
 366 240 l 1
 343 208 304 169 256 169 c 0
 189 169 165 224 122 224 c 0x68
 97 224 79 203 53 172 c 1
 16 211 l 1
 41 242 81 282 124 282 c 0
 190 282 204 227 255 227 c 0
 286 227 304 248 327 278 c 1xa8
EndSplineSet
Validated: 1
Layer: 2
Layer: 3
EndChar

StartChar: AE
Encoding: 198 198 163
Width: 433
Flags: MW
HStem: -4 60 0 21G<-1 -1 422 422> 165 53 307 55 590 64 594 60
VStem: 191 65<590 592> 202 67<-4 53>
LayerCount: 4
Back
Fore
SplineSet
131 646 m 1xb6
 132 646 l 1xb5
 132 646 l 1
 396 654 l 1
 398 596 l 1
 256 592 l 1
 258 501 259 427 260 359 c 1x76
 378 366 l 1
 380 309 l 1
 261 305 l 1
 263 227 266 151 269 53 c 1
 420 60 l 1
 422 0 l 1xb5
 202 -4 l 1
 202 59 202 115 201 167 c 1
 96 163 l 1
 85 99 74 41 67 -1 c 1
 -1 0 l 1x75
 32 128 91 402 131 646 c 1xb6
106 217 m 1xb6
 201 219 l 1xb6
 200 334 198 440 191 590 c 1
 179 590 l 1
 178 591 l 1
 178 590 l 1xba
 162 510 132 356 106 217 c 1xb6
EndSplineSet
Validated: 5
Layer: 2
Layer: 3
EndChar

StartChar: Oslash
Encoding: 216 216 164
Width: 355
Flags: MW
HStem: -10 59<169 202 159 237.5> 600 58<122 195 122 192> 636 20G
VStem: 35 60<255 424 255 430> 103 48 258 62<211.5 376 206.5 388.5>
LayerCount: 4
Back
Fore
SplineSet
143 -65 m 1xd4
 89 -57 l 1
 93 -38 98 -14 103 13 c 1xd4
 55 53 35 146 35 310 c 0
 35 550 65 658 179 658 c 0
 187 658 194 657 201 656 c 1
 203 672 205 687 206 701 c 1
 261 698 l 1
 251 634 l 1xbc
 309 585 320 463 320 289 c 0
 320 124 302 -10 173 -10 c 0
 165 -10 158 -9 151 -8 c 1
 148 -29 145 -48 143 -65 c 1xd4
159 49 m 1
 162 49 165 49 168 49 c 0
 236 49 258 104 258 319 c 0
 258 458 253 530 240 565 c 1
 214 406 182 200 159 49 c 1
195 600 m 1
 192 600 l 2
 120 601 95 527 95 321 c 0
 95 189 101 120 115 84 c 1
 142 237 175 447 195 600 c 1
EndSplineSet
Validated: 33
Layer: 2
Layer: 3
EndChar

StartChar: infinity
Encoding: 8734 8734 165
Width: 420
Flags: MW
HStem: -2 21G<141 141>
VStem: 13 407
LayerCount: 4
Back
Fore
SplineSet
68 291 m 1
 22 284 l 1
 13 336 l 1
 117 355 l 1
 182 78 l 1
 240 319 295 538 360 820 c 1
 420 820 l 1
 348 562 278 264 219 4 c 1
 141 -2 l 1
 68 291 l 1
EndSplineSet
Validated: 1
Layer: 2
Layer: 3
EndChar

StartChar: plusminus
Encoding: 177 177 166
Width: 380
Flags: MW
HStem: 0 53<30 82.5> 267 53 272 52
VStem: 159 56 164 55
LayerCount: 4
Back
Fore
SplineSet
216 454 m 1xa8
 215 321 l 1xa8
 348 327 l 1
 349 273 l 1
 216 271 l 1xc8
 223 137 l 1
 164 137 l 1
 165 270 l 1xd0
 32 264 l 1
 32 321 l 1
 163 319 l 1
 156 453 l 1
 216 454 l 1xa8
345 58 m 1
 346 8 l 1
 240 7 136 5 30 0 c 1
 30 53 l 1
 135 53 240 53 345 58 c 1
EndSplineSet
Validated: 1
Layer: 2
Layer: 3
EndChar

StartChar: lessequal
Encoding: 8804 8804 167
Width: 380
Flags: MW
HStem: 197 49 343 48
VStem: 192 51<496 499>
LayerCount: 4
Back
Fore
SplineSet
131 93 m 1
 152 192 180 370 192 499 c 1
 243 496 l 1
 223 373 200 204 183 85 c 1
 131 93 l 1
346 396 m 1
 347 347 l 1
 241 345 138 343 32 339 c 1
 32 391 l 1
 137 391 241 392 346 396 c 1
347 250 m 1
 348 200 l 1
 242 199 139 199 33 194 c 1
 33 246 l 1
 138 246 242 246 347 250 c 1
EndSplineSet
Validated: 5
Layer: 2
Layer: 3
EndChar

StartChar: greaterequal
Encoding: 8805 8805 168
Width: 380
Flags: MW
HStem: -3 53<104 130.5>
VStem: 104 197<-3 53 50 53>
LayerCount: 4
Back
Fore
SplineSet
100 294 m 1
 243 465 l 1
 287 423 l 1
 166 294 l 1
 291 177 l 1
 250 133 l 1
 100 294 l 1
301 53 m 1
 302 3 l 1
 250 2 166 2 104 -3 c 1
 104 50 l 1
 157 50 244 50 301 53 c 1
EndSplineSet
Validated: 1
Layer: 2
Layer: 3
EndChar

StartChar: yen
Encoding: 165 165 169
Width: 297
Flags: MW
HStem: -4 21G<123 123> 94 53<110 121 33 122> 210 54 216 51
VStem: 121 63<147 214> 123 69<2 2 2 14>
LayerCount: 4
Back
Fore
SplineSet
156 266 m 1xe8
 177 361 192 442 214 584 c 1
 282 581 l 1
 257 477 223 351 199 267 c 1xe4
 217 267 237 268 262 269 c 1
 263 216 l 1
 230 215 205 215 184 214 c 1
 184 188 185 167 185 148 c 1
 206 148 231 149 263 150 c 1xd8
 264 96 l 1
 232 96 208 96 187 95 c 1
 188 66 190 39 192 2 c 1
 123 -4 l 1
 123 32 123 62 122 94 c 1
 98 94 71 93 33 91 c 1xe4
 33 147 l 1
 71 147 98 147 121 147 c 1
 121 167 120 188 119 212 c 1
 32 209 l 1
 32 265 l 1
 63 265 87 265 107 265 c 1
 84 359 54 435 15 575 c 1
 80 586 l 1
 107 457 123 395 156 266 c 1xe8
EndSplineSet
Validated: 1
Layer: 2
Layer: 3
EndChar

StartChar: partialdiff
Encoding: 8706 8706 170
Width: 513
Flags: MW
HStem: -10 29<215 285 215 291.5> 205 28<113 397 113 480 113 397> 411 29<215 296>
VStem: 30 83<152.5 205 233 277> 397 83<233 279.5 205 336 205 345>
LayerCount: 4
Back
Fore
SplineSet
113 233 m 1
 397 233 l 1
 397 336 l 2
 397 354 336 411 256 411 c 0
 174 411 113 352 113 333 c 2
 113 233 l 1
255 440 m 0
 363 440 480 354 480 205 c 1
 113 205 l 1
 113 103 l 2
 113 80 174 19 256 19 c 0
 314 19 365 43 400 88 c 1
 434 77 l 1
 393 25 328 -10 255 -10 c 0
 131 -10 30 90 30 215 c 0
 30 339 131 440 255 440 c 0
EndSplineSet
Validated: 1
Layer: 2
Layer: 3
EndChar

StartChar: summation
Encoding: 8721 8721 171
Width: 489
Flags: MW
HStem: 757 59
VStem: 63 73<805 814 805 814> 337 72<789 789>
LayerCount: 4
Back
Fore
SplineSet
409 820 m 1
 409 553 416 70 426 -174 c 1
 351 -180 l 1
 349 65 347 515 337 789 c 1
 409 820 l 1
63 814 m 1
 410 820 l 1
 380 758 l 1
 84 757 l 1
 63 814 l 1
136 805 m 1
 139 538 145 69 154 -175 c 1
 79 -177 l 1
 78 68 77 540 63 814 c 1
 136 805 l 1
EndSplineSet
Validated: 5
Layer: 2
Layer: 3
EndChar

StartChar: product
Encoding: 8719 8719 172
Width: 323
Flags: MW
HStem: -1 56
VStem: 10 301<40 45>
LayerCount: 4
Back
Fore
SplineSet
75 54 m 1
 245 56 l 1
 220 195 174 417 153 531 c 1
 133 412 98 198 75 54 c 1
10 40 m 1
 41 168 82 402 118 646 c 1
 195 652 l 1
 212 526 275 208 311 45 c 1
 305 3 l 1
 16 -1 l 1
 10 40 l 1
EndSplineSet
Validated: 1
Layer: 2
Layer: 3
EndChar

StartChar: pi
Encoding: 960 960 173
Width: 643
Flags: MW
HStem: -5 21G 374 66<86.5 546 96 170 236 410 236 236 476 476 476 546>
VStem: 170 66<223 374> 410 66<27 374>
LayerCount: 4
Back
Fore
SplineSet
443 -6 m 0
 424 -6 410 8 410 27 c 2
 410 374 l 1
 236 374 l 1
 236 223 l 2
 236 88 202 37 140 -1 c 0
 125 -10 104 -5 95 10 c 0
 86 25 91 46 106 55 c 0
 152 82 170 127 170 223 c 2
 170 374 l 1
 96 374 l 2
 77 374 63 388 63 407 c 0
 63 426 77 440 96 440 c 2
 546 440 l 2
 565 440 579 426 579 407 c 0
 579 388 565 374 546 374 c 2
 476 374 l 1
 476 27 l 2
 476 8 462 -6 443 -6 c 0
EndSplineSet
Validated: 33
Layer: 2
Layer: 3
EndChar

StartChar: integral
Encoding: 8747 8747 174
Width: 511
Flags: MW
HStem: 138 54<354 390 354 401.5> 395 54<121 157>
VStem: 30 55<261.5 330.5 261.5 341.5> 426 55<256.5 325.5>
LayerCount: 4
Back
Fore
SplineSet
219 295 m 0
 193 357 173 395 141 395 c 0
 101 395 85 364 85 297 c 0
 85 226 110 190 147 190 c 0
 179 190 207 212 219 295 c 1
 263 283 l 1
 245 190 221 138 138 138 c 0
 71 138 30 194 30 291 c 0
 30 392 70 449 149 449 c 0
 233 449 272 350 293 294 c 0
 313 241 338 192 370 192 c 0
 410 192 426 223 426 290 c 0
 426 361 401 397 364 397 c 0
 330 397 308 371 293 294 c 1
 246 306 l 1
 270 404 304 449 373 449 c 0
 440 449 481 393 481 296 c 0
 481 195 441 138 362 138 c 0
 278 138 242 240 219 295 c 0
EndSplineSet
Validated: 5
Layer: 2
Layer: 3
EndChar

StartChar: ordfeminine
Encoding: 170 170 175
Width: 300
Flags: MW
HStem: 344 57<116 141.5 116 144> 606 49<122 157>
VStem: 35 54<461.5 524 461.5 533.5> 198 40
LayerCount: 4
Back
Fore
SplineSet
148 606 m 0
 96 606 89 549 89 499 c 0
 89 424 104 401 128 401 c 0
 155 401 180 453 183 596 c 1
 175 603 166 606 148 606 c 0
238 634 m 1
 242 547 249 422 255 353 c 1
 199 341 l 1
 197 488 l 1
 186 378 164 344 124 344 c 0
 49 344 35 411 35 507 c 0
 35 560 50 655 154 655 c 0
 191 655 220 648 238 634 c 1
EndSplineSet
Validated: 1
Layer: 2
Layer: 3
EndChar

StartChar: ordmasculine
Encoding: 186 186 176
Width: 292
Flags: MW
HStem: 344 47<128.5 166 128.5 180.5> 606 49<126 162>
VStem: 35 55<467.5 536.5 467.5 547.5> 197 60<458 535 452.5 538>
LayerCount: 4
Back
Fore
SplineSet
149 655 m 0
 233 655 257 573 257 497 c 0
 257 408 223 344 138 344 c 0
 76 344 35 400 35 497 c 0
 35 598 75 655 149 655 c 0
197 498 m 0
 197 578 178 606 146 606 c 0
 106 606 90 570 90 503 c 0
 90 432 110 391 147 391 c 0
 185 391 197 418 197 498 c 0
EndSplineSet
Validated: 1
Layer: 2
Layer: 3
EndChar

StartChar: ae
Encoding: 230 230 177
Width: 295
Flags: MW
HStem: -7 58<-61 -27 -61 -22.5> -6 51<156 190 156 192> 228 46<30 30> 299 44 445 58<150.5 179> 449 53<-51 -20>
VStem: -160 57<97.5 122> 30 66<157 339> 215 57<343 416>
LayerCount: 4
Back
Fore
SplineSet
262 300 m 1x9b80
 99 298 l 1
 97 270 96 239 96 222 c 0
 96 92 130 45 182 45 c 0
 198 45 240 54 263 62 c 1
 275 18 l 1x5b80
 248 4 210 -6 174 -6 c 0
 125 -6 85 15 60 68 c 1
 39 24 5 -7 -50 -7 c 0
 -117 -7 -160 38 -160 122 c 0
 -161 221 -121 270 30 274 c 1
 30 404 6 449 -46 449 c 0
 -75 449 -107 442 -130 434 c 1
 -142 478 l 1
 -115 492 -69 502 -33 502 c 0
 15 502 47 482 67 433 c 1xb780
 89 474 123 503 176 503 c 0
 243 503 272 458 272 374 c 0
 272 362 271 323 262 300 c 1x9b80
167 445 m 0
 134 445 107 402 102 344 c 1
 215 343 l 1
 214 423 191 445 167 445 c 0
-49 51 m 0
 -5 51 27 69 30 228 c 1
 -60 226 -103 198 -103 130 c 0
 -103 65 -73 51 -49 51 c 0
EndSplineSet
Validated: 33
Layer: 2
Layer: 3
EndChar

StartChar: oslash
Encoding: 248 248 178
Width: 308
Flags: MW
HStem: -8 59<147 184 147 206.5> 0 21G<0 0> 445 58<131.5 169.5>
VStem: 30 56<235.5 302 235.5 311.5> 221 60<180.5 262.5>
LayerCount: 4
Back
Fore
SplineSet
162 503 m 0xb8
 195 503 218 490 235 469 c 1
 243 485 251 502 259 518 c 1
 308 494 l 1
 293 468 278 441 263 413 c 1
 279 360 281 294 281 240 c 0
 281 121 266 -8 147 -8 c 0
 116 -8 92 3 74 25 c 1
 65 7 56 -11 47 -28 c 1
 0 0 l 1
 15 24 31 51 47 80 c 1
 36 120 30 174 30 244 c 0
 30 379 63 503 162 503 c 0xb8
221 247 m 0
 221 278 220 304 219 326 c 1
 180 247 143 166 106 90 c 1
 118 64 135 51 159 51 c 0
 209 51 221 114 221 247 c 0
90 162 m 1x78
 129 239 168 325 206 406 c 1
 197 434 181 445 158 445 c 0xb8
 105 445 86 351 86 253 c 0
 86 218 87 188 90 162 c 1x78
EndSplineSet
Validated: 1
Layer: 2
Layer: 3
EndChar

StartChar: questiondown
Encoding: 191 191 179
Width: 284
Flags: MW
HStem: -157 58<145 172> 403 103<116 140.5>
VStem: 42 62<-52.5 18.5 -52.5 18.5> 78 103<448.5 459.5> 132 60<207 253>
LayerCount: 4
Back
Fore
SplineSet
120 305 m 1xe0
 157 324 l 1
 176 305 192 268 192 246 c 0
 192 168 104 64 104 -27 c 0
 104 -78 122 -99 168 -99 c 0
 200 -99 225 -90 251 -82 c 1
 264 -130 l 1xe0
 231 -144 198 -157 146 -157 c 0
 68 -157 42 -107 42 -31 c 0xe8
 42 68 132 176 132 238 c 0
 132 268 126 286 120 305 c 1xe0
181 462 m 0
 181 435 158 403 123 403 c 0
 92 403 78 421 78 446 c 0
 78 473 95 506 137 506 c 0xe8
 166 506 181 485 181 462 c 0
EndSplineSet
Validated: 1
Layer: 2
Layer: 3
EndChar

StartChar: exclamdown
Encoding: 161 161 180
Width: 187
Flags: MW
HStem: 403 103<80 104.5>
VStem: 42 103<448.5 459.5> 68 69
LayerCount: 4
Back
Fore
SplineSet
145 462 m 0xa0
 145 435 122 403 87 403 c 0xc0
 56 403 42 421 42 446 c 0
 42 473 59 506 101 506 c 0
 130 506 145 485 145 462 c 0xa0
137 -150 m 1
 63 -159 l 1xa0
 67 27 68 198 68 304 c 1
 120 310 l 1
 122 206 128 2 137 -150 c 1
EndSplineSet
Validated: 1
Layer: 2
Layer: 3
EndChar

StartChar: logicalnot
Encoding: 172 172 181
Width: 390
Flags: MW
HStem: 271 48
VStem: 295 53
LayerCount: 4
Back
Fore
SplineSet
347 324 m 1
 348 323 l 1
 347 323 l 1
 348 260 348 201 349 138 c 1
 291 138 l 1
 294 182 294 226 295 271 c 1
 197 271 115 270 32 266 c 1
 32 319 l 1
 140 319 245 319 347 323 c 1
 347 324 l 1
EndSplineSet
Validated: 5
Layer: 2
Layer: 3
EndChar

StartChar: radical
Encoding: 8730 8730 182
Width: 187
Flags: MW
HStem: 244 103<80 104.5>
VStem: 42 103<289.5 300.5>
LayerCount: 4
Back
Fore
SplineSet
145 303 m 0
 145 276 122 244 87 244 c 0
 56 244 42 262 42 287 c 0
 42 314 59 347 101 347 c 0
 130 347 145 326 145 303 c 0
EndSplineSet
Validated: 1
Layer: 2
Layer: 3
EndChar

StartChar: florin
Encoding: 402 402 183
Width: 364
Flags: MW
HStem: -180 63<20 51 20 74> 265 56 272 54 595 61<258 289> 636 20G<235 293.5>
VStem: 58 141
LayerCount: 4
Back
Fore
SplineSet
59 263 m 1xb4
 58 320 l 1xd4
 137 323 l 1
 148 400 157 471 164 517 c 0
 174 584 200 656 270 656 c 0
 317 656 351 643 359 637 c 1
 347 582 l 1
 315 591 305 595 273 595 c 0
 243 595 228 542 223 501 c 0
 217 456 209 393 200 325 c 1xac
 275 328 l 1
 277 274 l 1
 192 270 l 1
 176 147 158 20 147 -41 c 0
 135 -108 109 -180 39 -180 c 0
 -8 -180 -42 -167 -50 -161 c 1
 -38 -103 l 1xb4
 -6 -112 4 -117 36 -117 c 0xd4
 66 -117 76 -88 85 -48 c 0
 92 -15 111 127 130 267 c 1
 59 263 l 1xb4
EndSplineSet
Validated: 1
Layer: 2
Layer: 3
EndChar

StartChar: approxequal
Encoding: 8776 8776 184
Width: 325
Flags: MW
HStem: -180 64<71.5 105.5 69 118> 758 62<229.5 260.5 215.5 263>
VStem: 127 88
LayerCount: 4
Back
Fore
SplineSet
215 -33 m 0
 215 -153 151 -180 85 -180 c 0
 58 -180 27 -176 0 -171 c 1
 10 -107 l 1
 40 -114 59 -116 79 -116 c 0
 132 -116 148 -108 148 -24 c 0
 148 128 127 506 127 673 c 0
 127 793 184 820 247 820 c 0
 274 820 298 817 325 811 c 1
 315 749 l 1
 285 755 273 758 253 758 c 0
 206 758 194 748 194 664 c 0
 194 512 215 134 215 -33 c 0
EndSplineSet
Validated: 1
Layer: 2
Layer: 3
EndChar

StartChar: guillemotleft
Encoding: 171 171 185
Width: 376
Flags: MW
HStem: 127 343<139 146>
VStem: 36 296<164 294>
LayerCount: 4
Back
Fore
SplineSet
146 127 m 1
 36 294 l 1
 139 470 l 1
 188 443 l 1
 97 294 l 1
 194 159 l 1
 146 127 l 1
284 132 m 1
 170 295 l 1
 273 470 l 1
 322 443 l 1
 231 295 l 1
 332 164 l 1
 284 132 l 1
EndSplineSet
Validated: 1
Layer: 2
Layer: 3
EndChar

StartChar: guillemotright
Encoding: 187 187 186
Width: 376
Flags: MW
HStem: 118 345<103 230>
VStem: 44 296<296 417>
LayerCount: 4
Back
Fore
SplineSet
230 463 m 1
 340 296 l 1
 237 120 l 1
 188 147 l 1
 279 296 l 1
 182 431 l 1
 230 463 l 1
92 455 m 1
 206 292 l 1
 103 118 l 1
 54 145 l 1
 145 292 l 1
 44 417 l 1
 92 455 l 1
EndSplineSet
Validated: 1
Layer: 2
Layer: 3
EndChar

StartChar: ellipsis
Encoding: 8230 8230 187
Width: 661
Flags: MW
HStem: -7 103<98 122.5 317 341.5 536 560.5>
VStem: 60 103<38.5 49.5> 60 541<38.5 49.5> 279 103<38.5 49.5> 498 103<38.5 49.5>
LayerCount: 4
Back
Fore
SplineSet
163 52 m 0xa0
 163 25 140 -7 105 -7 c 0
 74 -7 60 11 60 36 c 0
 60 63 77 96 119 96 c 0
 148 96 163 75 163 52 c 0xa0
382 52 m 0
 382 25 359 -7 324 -7 c 0
 293 -7 279 11 279 36 c 0
 279 63 296 96 338 96 c 0
 367 96 382 75 382 52 c 0
601 52 m 0
 601 25 578 -7 543 -7 c 0
 512 -7 498 11 498 36 c 0
 498 63 515 96 557 96 c 0
 586 96 601 75 601 52 c 0
EndSplineSet
Validated: 1
Layer: 2
Layer: 3
EndChar

StartChar: Agrave
Encoding: 192 192 188
Width: 323
Flags: MW
HStem: -5 21G<257 257> 0 21G<-1 -1> 165 53
VStem: -1 323<0 5>
LayerCount: 4
Back
Fore
SplineSet
153 530 m 1x70
 140 455 120 333 102 217 c 1
 215 220 l 1
 192 335 167 457 153 530 c 1x70
225 168 m 1
 93 163 l 1
 83 102 74 44 67 -1 c 1
 -1 0 l 1
 30 128 81 402 117 646 c 1xb0
 194 652 l 1
 211 526 286 168 322 5 c 1
 257 -5 l 1
 250 39 238 101 225 168 c 1
63 760 m 1
 90 820 l 1
 151 781 209 749 251 728 c 1
 230 685 l 1
 185 706 113 739 63 760 c 1
EndSplineSet
Validated: 1
Layer: 2
Layer: 3
EndChar

StartChar: Atilde
Encoding: 195 195 189
Width: 323
Flags: MW
HStem: -5 21G<257 257> 0 21G<-1 -1> 165 53 716 55<179 208 179 215> 753 57<88 112>
VStem: -1 323<0 5>
LayerCount: 4
Back
Fore
SplineSet
153 530 m 1x74
 140 455 120 333 102 217 c 1
 215 220 l 1xb4
 192 335 167 457 153 530 c 1x74
225 168 m 1
 93 163 l 1
 83 102 74 44 67 -1 c 1
 -1 0 l 1
 30 128 81 402 117 646 c 1
 194 652 l 1
 211 526 286 168 322 5 c 1
 257 -5 l 1x74
 250 39 238 101 225 168 c 1
248 802 m 1
 279 766 l 1
 263 744 232 716 198 716 c 0
 151 716 127 753 97 753 c 0
 79 753 66 741 48 724 c 1
 18 758 l 1x74
 36 780 69 810 99 810 c 0
 145 810 161 771 197 771 c 0
 219 771 232 781 248 802 c 1
EndSplineSet
Validated: 1
Layer: 2
Layer: 3
EndChar

StartChar: Otilde
Encoding: 213 213 190
Width: 355
Flags: MW
HStem: -10 59<154.5 210.5 154.5 237.5> 600 58<145 200> 716 55<203 232 203 239> 753 57<112 136>
VStem: 35 65<219 414 219 430> 253 67<221.5 403.5 206.5 432.5>
LayerCount: 4
Back
Fore
SplineSet
179 658 m 0xec
 301 658 320 518 320 289 c 0
 320 124 302 -10 173 -10 c 0
 74 -10 35 80 35 310 c 0xdc
 35 550 65 658 179 658 c 0xec
253 319 m 0xec
 253 546 225 600 175 600 c 0
 115 600 100 507 100 321 c 0
 100 117 123 49 186 49 c 0
 235 49 253 124 253 319 c 0xec
272 802 m 1
 303 766 l 1
 287 744 256 716 222 716 c 0
 175 716 151 753 121 753 c 0
 103 753 90 741 72 724 c 1
 42 758 l 1
 60 780 93 810 123 810 c 0
 169 810 185 771 221 771 c 0
 243 771 256 781 272 802 c 1
EndSplineSet
Validated: 1
Layer: 2
Layer: 3
EndChar

StartChar: OE
Encoding: 338 338 191
Width: 485
Flags: MW
HStem: -9 58 -6 55 0 21G<473 473> 307 55 594 60 603 55<156.5 206>
VStem: 30 65<239.5 432.5 239.5 446.5> 242 66<593 593>
LayerCount: 4
Back
Fore
SplineSet
264 645 m 1x97
 447 654 l 1
 449 596 l 1
 308 592 l 1
 309 501 310 428 311 359 c 1
 429 366 l 1
 431 309 l 1
 312 305 l 1
 314 226 317 148 320 50 c 1
 471 60 l 1
 473 0 l 1
 227 -6 l 2
 217 -8 208 -9 199 -9 c 0
 69 -9 30 57 30 319 c 0x3b
 30 574 68 658 207 658 c 0
 229 658 250 653 264 645 c 1x97
253 55 m 1x57
 252 255 252 371 242 593 c 1x5b
 229 598 213 603 199 603 c 0
 114 603 95 528 95 337 c 0
 95 142 115 89 151 59 c 0
 168 45 218 47 253 55 c 1x57
EndSplineSet
Validated: 33
Layer: 2
Layer: 3
EndChar

StartChar: oe
Encoding: 339 339 192
Width: 493
Flags: MW
HStem: -8 59<134.5 173.5> -6 51<341 375 341 377> 299 44 445 58<131.5 179 335.5 364>
VStem: 30 62<186 302 186 311.5> 215 66<182.5 239.5 164.5 325> 400 57<343 416>
LayerCount: 4
Back
Fore
SplineSet
162 503 m 0xbe
 208 503 236 475 253 435 c 1
 276 475 310 503 361 503 c 0
 428 503 457 458 457 374 c 0
 457 362 456 323 447 300 c 1
 284 298 l 1x7e
 282 270 281 248 281 231 c 0
 281 98 315 45 367 45 c 0
 383 45 425 54 448 62 c 1
 460 18 l 1
 433 4 395 -6 359 -6 c 0
 314 -6 277 11 252 53 c 1
 233 16 200 -8 147 -8 c 0
 65 -8 30 68 30 244 c 0
 30 379 63 503 162 503 c 0xbe
215 249 m 0
 215 401 200 445 158 445 c 0
 105 445 92 351 92 253 c 0
 92 119 110 51 159 51 c 0
 209 51 215 116 215 249 c 0
352 445 m 0
 319 445 292 402 287 344 c 1
 400 343 l 1
 399 423 376 445 352 445 c 0
EndSplineSet
Validated: 1
Layer: 2
Layer: 3
EndChar

StartChar: endash
Encoding: 8211 8211 193
Width: 460
Flags: MW
HStem: 271 45
VStem: 32 395<274 316 316 316>
LayerCount: 4
Back
Fore
SplineSet
32 269 m 1
 32 316 l 1
 427 318 l 1
 427 274 l 1
 32 269 l 1
EndSplineSet
Validated: 1
Layer: 2
Layer: 3
EndChar

StartChar: emdash
Encoding: 8212 8212 194
Width: 800
Flags: MW
HStem: 273 45
VStem: 32 736<277 277 277 316 277 316>
LayerCount: 4
Back
Fore
SplineSet
32 269 m 1
 32 316 l 1
 767 321 l 1
 768 277 l 1
 32 269 l 1
EndSplineSet
Validated: 1
Layer: 2
Layer: 3
EndChar

StartChar: quotedblleft
Encoding: 8220 8220 195
Width: 240
Flags: MW
HStem: 498 189<28 72> 506 179
VStem: 20 52 141 52
LayerCount: 4
Back
Fore
SplineSet
99 514 m 1xb0
 28 498 l 1x70
 24 515 20 532 20 550 c 0
 20 600 21 648 33 684 c 1
 72 687 l 1
 72 640 81 571 99 514 c 1xb0
220 511 m 1
 146 502 l 1
 143 515 141 547 141 565 c 0
 141 586 142 650 154 686 c 1
 193 685 l 1
 193 620 202 568 220 511 c 1
EndSplineSet
Validated: 1
Layer: 2
Layer: 3
EndChar

StartChar: quotedblright
Encoding: 8221 8221 196
Width: 238
Flags: MW
HStem: 494 195<91 193>
VStem: 32 65 154 64
LayerCount: 4
Back
Fore
SplineSet
20 677 m 1
 91 689 l 1
 95 672 97 655 97 637 c 0
 97 587 84 534 72 498 c 1
 26 507 l 1
 36 554 35 618 20 677 c 1
141 680 m 1
 212 687 l 1
 216 670 218 655 218 637 c 0
 218 587 205 530 193 494 c 1
 150 504 l 1
 157 551 155 621 141 680 c 1
EndSplineSet
Validated: 33
Layer: 2
Layer: 3
EndChar

StartChar: quoteleft
Encoding: 8216 8216 197
Width: 109
Flags: MW
HStem: 498 189<23 67>
VStem: 15 52
LayerCount: 4
Back
Fore
SplineSet
94 514 m 1
 23 498 l 1
 19 515 15 532 15 550 c 0
 15 600 16 648 28 684 c 1
 67 687 l 1
 67 640 76 571 94 514 c 1
EndSplineSet
Validated: 1
Layer: 2
Layer: 3
EndChar

StartChar: quoteright
Encoding: 8217 8217 198
Width: 109
Flags: MW
HStem: 498 191<68 87>
VStem: 28 65
LayerCount: 4
Back
Fore
SplineSet
16 677 m 1
 87 689 l 1
 91 672 93 655 93 637 c 0
 93 587 80 534 68 498 c 1
 22 507 l 1
 32 554 31 618 16 677 c 1
EndSplineSet
Validated: 33
Layer: 2
Layer: 3
EndChar

StartChar: divide
Encoding: 247 247 199
Width: 380
Flags: MW
HStem: 116 83<179 198> 270 49 400 83<178 197>
VStem: 32 316<274 274 274 319 274 319> 147 83<436 446>
LayerCount: 4
Back
Fore
SplineSet
347 324 m 1x50
 348 274 l 1
 242 273 138 271 32 266 c 1
 32 319 l 1
 137 319 242 319 347 324 c 1x50
230 447 m 0
 230 425 211 400 183 400 c 0
 158 400 147 415 147 435 c 0
 147 457 161 483 195 483 c 0
 218 483 230 465 230 447 c 0
231 163 m 0
 231 141 212 116 184 116 c 0
 159 116 148 131 148 151 c 0
 148 173 162 199 196 199 c 0
 219 199 231 181 231 163 c 0
EndSplineSet
Validated: 1
Layer: 2
Layer: 3
EndChar

StartChar: lozenge
Encoding: 9674 9674 200
Width: 380
Flags: MW
HStem: -3 53<85 111.5>
VStem: 85 197<-3 53 50 53>
LayerCount: 4
Back
Fore
SplineSet
282 53 m 1
 283 3 l 1
 231 2 147 2 85 -3 c 1
 85 50 l 1
 138 50 225 50 282 53 c 1
280 298 m 1
 139 127 l 1
 95 168 l 1
 213 295 l 1
 86 413 l 1
 128 459 l 1
 280 298 l 1
EndSplineSet
Validated: 1
Layer: 2
Layer: 3
EndChar

StartChar: ydieresis
Encoding: 255 255 201
Width: 340
Flags: MW
HStem: -180 60<149.5 202.5 149.5 213.5> -3 63<116.5 170 116.5 176> 608 83<80 102 213 236>
VStem: 35 66<494 500> 52 83<644 654> 186 83<644 654> 247 58<-52.5 18.5>
LayerCount: 4
Back
Fore
SplineSet
247 -6 m 0xf2
 247 43 245 107 245 187 c 1
 226 81 211 -3 141 -3 c 0
 32 -3 38 95 35 494 c 1
 101 500 l 1xec
 99 137 90 60 143 60 c 0
 197 60 223 165 228 495 c 1
 291 502 l 1
 294 279 305 82 305 -32 c 0
 305 -137 266 -180 161 -180 c 0
 127 -180 89 -176 49 -170 c 1
 60 -109 l 1
 94 -116 131 -120 168 -120 c 0
 237 -120 247 -99 247 -6 c 0xf2
135 655 m 0
 135 633 116 608 88 608 c 0
 63 608 52 623 52 643 c 0
 52 665 63 691 97 691 c 0
 120 691 135 673 135 655 c 0
269 655 m 0
 269 633 250 608 222 608 c 0
 197 608 186 623 186 643 c 0
 186 665 196 691 230 691 c 0
 253 691 269 673 269 655 c 0
EndSplineSet
Validated: 33
Layer: 2
Layer: 3
EndChar

StartChar: Ydieresis
Encoding: 376 376 202
Width: 278
Flags: MW
HStem: -4 21G<114 114> 634 20G<65 65> 714 83<56 78 189 212>
VStem: 28 83<750 760> 110 65<269 269> 162 83<750 760>
LayerCount: 4
Back
Fore
SplineSet
147 336 m 1xe8
 168 431 188 508 210 650 c 1
 278 647 l 1
 247 519 198 346 175 269 c 1
 176 164 179 78 183 2 c 1
 114 -4 l 1
 113 71 114 176 110 269 c 1
 84 389 46 480 0 643 c 1
 65 654 l 1
 92 525 114 465 147 336 c 1xe8
111 761 m 0
 111 739 92 714 64 714 c 0
 39 714 28 729 28 749 c 0
 28 771 39 797 73 797 c 0
 96 797 111 779 111 761 c 0
245 761 m 0
 245 739 226 714 198 714 c 0
 173 714 162 729 162 749 c 0
 162 771 172 797 206 797 c 0
 229 797 245 779 245 761 c 0
EndSplineSet
Validated: 1
Layer: 2
Layer: 3
EndChar

StartChar: fraction
Encoding: 8260 8260 203
Width: 464
Flags: MW
HStem: -6 21G
VStem: 60 349
LayerCount: 4
Back
Fore
SplineSet
391 541 m 0
 406 533 412 510 403 495 c 2
 120 10 l 2
 111 -5 89 -11 74 -2 c 0
 58 6 52 29 62 44 c 2
 345 529 l 2
 353 544 375 550 391 541 c 0
EndSplineSet
Validated: 33
Layer: 2
Layer: 3
EndChar

StartChar: currency
Encoding: 164 164 204
Width: 423
Flags: MW
HStem: 0 21G<76 76 344 344> 84 47<193.5 217.5> 363 49<201 226.5 201 227>
VStem: 85 55<219.5 270.5> 277 60<220.5 269.5 220.5 293.5>
LayerCount: 4
Back
Fore
SplineSet
214 412 m 0
 239 412 260 407 278 396 c 1
 301 426 318 454 347 496 c 1
 403 453 l 1
 371 419 341 393 312 362 c 1
 329 333 337 294 337 245 c 0
 337 196 328 159 311 133 c 1
 339 102 366 76 398 46 c 1
 344 0 l 1
 318 39 299 69 275 100 c 1
 256 89 232 84 203 84 c 0
 182 84 162 88 145 98 c 1
 123 68 104 38 76 0 c 1
 20 43 l 1
 55 74 83 101 110 132 c 1
 94 158 85 194 85 245 c 0
 85 296 95 335 112 362 c 1
 83 393 55 419 23 453 c 1
 79 496 l 1
 105 452 123 426 147 396 c 1
 166 407 188 412 214 412 c 0
277 246 m 0
 277 341 243 363 211 363 c 0
 171 363 140 336 140 251 c 0
 140 161 175 131 212 131 c 0
 254 131 277 169 277 246 c 0
EndSplineSet
Validated: 1
Layer: 2
Layer: 3
EndChar

StartChar: guilsinglleft
Encoding: 8249 8249 205
Width: 238
Flags: MW
HStem: 127 343<139 146>
VStem: 36 158<159 294>
LayerCount: 4
Back
Fore
SplineSet
146 127 m 1
 36 294 l 1
 139 470 l 1
 188 443 l 1
 97 294 l 1
 194 159 l 1
 146 127 l 1
EndSplineSet
Validated: 1
Layer: 2
Layer: 3
EndChar

StartChar: guilsinglright
Encoding: 8250 8250 206
Width: 242
Flags: MW
HStem: 118 337<92 103>
VStem: 44 162<292 417>
LayerCount: 4
Back
Fore
SplineSet
92 455 m 1
 206 292 l 1
 103 118 l 1
 54 145 l 1
 145 292 l 1
 44 417 l 1
 92 455 l 1
EndSplineSet
Validated: 1
Layer: 2
Layer: 3
EndChar

StartChar: fi
Encoding: 64257 64257 207
Width: 418
Flags: MW
HStem: -7 21G<309 309> -4 21G<84 84> 437 55 631 61<183.5 224>
VStem: 70 61<507 570.5 486.5 602> 304 61
LayerCount: 4
Back
Fore
SplineSet
70 553 m 0x7c
 70 651 119 692 205 692 c 0
 252 692 297 682 315 673 c 1
 303 614 l 1
 271 625 240 631 208 631 c 0
 159 631 131 604 131 537 c 0
 131 436 138 179 148 2 c 1
 84 -4 l 1
 77 187 70 461 70 553 c 0x7c
10 489 m 1
 227 497 l 1
 229 443 l 1
 11 432 l 1
 10 489 l 1
365 501 m 1
 368 308 370 194 378 4 c 1
 309 -7 l 1xbc
 311 160 306 330 299 497 c 1
 365 501 l 1
EndSplineSet
Validated: 37
Layer: 2
Layer: 3
Ligature2: "'dlig' Discretionary Ligatures lookup 0-1" f i
EndChar

StartChar: fl
Encoding: 64258 64258 208
Width: 407
Flags: MW
HStem: -7 21G<298 298> -4 21G<84 84> 437 55 633 59<174 218>
VStem: 70 61<507 570.5 486.5 602> 298 50
LayerCount: 4
Back
Fore
SplineSet
348 667 m 1x7c
 348 413 358 248 367 4 c 1
 298 -7 l 1xbc
 297 238 295 433 284 621 c 1
 255 629 234 633 202 633 c 0
 146 633 131 604 131 537 c 0
 131 436 138 179 148 2 c 1
 84 -4 l 1
 77 187 70 461 70 553 c 0
 70 651 116 692 206 692 c 0
 253 692 302 686 348 667 c 1x7c
10 489 m 1
 227 497 l 1
 229 443 l 1
 11 432 l 1
 10 489 l 1
EndSplineSet
Validated: 5
Layer: 2
Layer: 3
Ligature2: "'dlig' Discretionary Ligatures lookup 0-1" f l
EndChar

StartChar: daggerdbl
Encoding: 8225 8225 209
Width: 380
Flags: MW
HStem: 1 21G<163 163> 153 52 157 53 440 53 445 52
VStem: 158 56 163 51<443 444> 164 56
LayerCount: 4
Back
Fore
SplineSet
214 444 m 1xcc
 215 207 l 1
 355 213 l 1
 355 156 l 1
 217 158 l 1xaa
 223 2 l 1
 163 1 l 1
 165 156 l 1xa9
 26 150 l 1
 25 204 l 1
 164 206 l 1xc9
 163 443 l 1
 23 437 l 1
 23 494 l 1
 161 492 l 1xd2
 155 648 l 1
 215 649 l 1
 213 494 l 1xd4
 352 500 l 1
 353 446 l 1
 214 444 l 1xcc
EndSplineSet
Validated: 1
Layer: 2
Layer: 3
EndChar

StartChar: periodcentered
Encoding: 183 183 210
Width: 187
Flags: MW
HStem: 244 103<80 104.5>
VStem: 42 103<289.5 300.5>
LayerCount: 4
Back
Fore
SplineSet
145 303 m 0
 145 276 122 244 87 244 c 0
 56 244 42 262 42 287 c 0
 42 314 59 347 101 347 c 0
 130 347 145 326 145 303 c 0
EndSplineSet
Validated: 1
Layer: 2
Layer: 3
EndChar

StartChar: quotesinglbase
Encoding: 8218 8218 211
Width: 109
Flags: MW
HStem: -118 191<64 83>
VStem: 24 65
LayerCount: 4
Back
Fore
SplineSet
12 61 m 1
 83 73 l 1
 87 56 89 39 89 21 c 0
 89 -29 76 -82 64 -118 c 1
 18 -109 l 1
 28 -62 27 2 12 61 c 1
EndSplineSet
Validated: 33
Layer: 2
Layer: 3
EndChar

StartChar: quotedblbase
Encoding: 8222 8222 212
Width: 238
Flags: MW
HStem: -122 195<91 193>
VStem: 32 65 154 64
LayerCount: 4
Back
Fore
SplineSet
20 61 m 1
 91 73 l 1
 95 56 97 39 97 21 c 0
 97 -29 84 -82 72 -118 c 1
 26 -109 l 1
 36 -62 35 2 20 61 c 1
141 64 m 1
 212 71 l 1
 216 54 218 39 218 21 c 0
 218 -29 205 -86 193 -122 c 1
 150 -112 l 1
 157 -65 155 5 141 64 c 1
EndSplineSet
Validated: 33
Layer: 2
Layer: 3
EndChar

StartChar: perthousand
Encoding: 8240 8240 213
Width: 874
Flags: MW
HStem: -6 21G<262 262> 0 47<463.5 501 463.5 518.5 719.5 757> 278 49<461 497 717 753> 321 47<118.5 156 118.5 170.5> 599 49<116 152> 635 20G<349 349>
VStem: 30 55<456 521.5 456 531.5> 182 60<444.5 518 433.5 525.5> 375 57<135 200.5 135 210.5> 531 57<123.5 197 112.5 204.5> 631 57<135 200.5 135 210.5> 787 57<123.5 197 112.5 204.5>
LayerCount: 4
Back
Fore
SplineSet
262 -6 m 1x67f0
 203 7 l 1x1b
 245 159 317 463 349 655 c 1
 408 644 l 1
 366 451 296 172 262 -6 c 1x67f0
139 648 m 0
 223 648 242 558 242 478 c 0
 242 389 213 321 128 321 c 0
 66 321 30 378 30 481 c 0
 30 582 65 648 139 648 c 0
182 483 m 0
 182 568 168 599 136 599 c 0
 96 599 85 555 85 488 c 0
 85 424 100 368 137 368 c 0
 175 368 182 406 182 483 c 0
484 327 m 0
 568 327 588 237 588 157 c 0
 588 68 561 0 476 0 c 0
 415 0 375 58 375 160 c 0
 375 261 410 327 484 327 c 0
531 162 m 0
 531 247 513 278 481 278 c 0
 441 278 432 234 432 167 c 0
 432 103 445 47 482 47 c 0
 520 47 531 85 531 162 c 0
740 327 m 0
 824 327 844 237 844 157 c 0
 844 68 817 0 732 0 c 0
 671 0 631 58 631 160 c 0
 631 261 666 327 740 327 c 0
787 162 m 0
 787 247 769 278 737 278 c 0
 697 278 688 234 688 167 c 0
 688 103 701 47 738 47 c 0
 776 47 787 85 787 162 c 0
EndSplineSet
Validated: 1
Layer: 2
Layer: 3
EndChar

StartChar: Acircumflex
Encoding: 194 194 214
Width: 323
Flags: MW
HStem: -5 21G<257 257> 0 21G<-1 -1> 165 53
VStem: -1 323<0 5>
LayerCount: 4
Back
Fore
SplineSet
153 530 m 1x70
 140 455 120 333 102 217 c 1
 215 220 l 1
 192 335 167 457 153 530 c 1x70
225 168 m 1
 93 163 l 1
 83 102 74 44 67 -1 c 1
 -1 0 l 1xb0
 30 128 81 402 117 646 c 1
 194 652 l 1
 211 526 286 168 322 5 c 1
 257 -5 l 1
 250 39 238 101 225 168 c 1
28 725 m 1x70
 150 820 l 1
 275 725 l 1
 239 681 l 1
 150 755 l 1
 61 680 l 1
 28 725 l 1x70
EndSplineSet
Validated: 1
Layer: 2
Layer: 3
EndChar

StartChar: Ecircumflex
Encoding: 202 202 215
Width: 285
Flags: MW
HStem: -7 62 0 21G<274 274> 307 55 594 60
VStem: 40 69<592 644>
LayerCount: 4
Back
Fore
SplineSet
40 644 m 1xb8
 248 654 l 1
 250 596 l 1
 109 592 l 1
 110 501 111 428 112 359 c 1
 230 366 l 1
 232 309 l 1
 113 305 l 1
 115 226 118 149 121 51 c 1
 272 60 l 1
 274 0 l 1
 54 -7 l 1
 53 238 54 370 40 644 c 1xb8
17 725 m 1
 139 820 l 1
 264 725 l 1
 228 681 l 1xb8
 139 755 l 1x78
 50 680 l 1
 17 725 l 1
EndSplineSet
Validated: 1
Layer: 2
Layer: 3
EndChar

StartChar: Aacute
Encoding: 193 193 216
Width: 323
Flags: MW
HStem: -5 21G<257 257> 0 21G<-1 -1> 165 53
VStem: -1 323<0 5>
LayerCount: 4
Back
Fore
SplineSet
153 530 m 1x70
 140 455 120 333 102 217 c 1
 215 220 l 1
 192 335 167 457 153 530 c 1x70
225 168 m 1
 93 163 l 1x70
 83 102 74 44 67 -1 c 1
 -1 0 l 1
 30 128 81 402 117 646 c 1
 194 652 l 1xb0
 211 526 286 168 322 5 c 1
 257 -5 l 1
 250 39 238 101 225 168 c 1
224 820 m 1
 251 760 l 1
 201 739 128 706 83 685 c 1
 63 728 l 1
 105 749 163 781 224 820 c 1
EndSplineSet
Validated: 1
Layer: 2
Layer: 3
EndChar

StartChar: Edieresis
Encoding: 203 203 217
Width: 285
Flags: MW
HStem: -7 62 0 21G<274 274> 307 55 594 60 714 83<58 80 191 214>
VStem: 40 69<592 644> 164 83<750 760>
LayerCount: 4
Back
Fore
SplineSet
40 644 m 1xb4
 248 654 l 1
 250 596 l 1
 109 592 l 1x74
 110 501 111 428 112 359 c 1
 230 366 l 1
 232 309 l 1
 113 305 l 1
 115 226 118 149 121 51 c 1
 272 60 l 1
 274 0 l 1
 54 -7 l 1
 53 238 54 370 40 644 c 1xb4
113 761 m 0
 113 739 94 714 66 714 c 0
 41 714 30 729 30 749 c 0
 30 771 41 797 75 797 c 0
 98 797 113 779 113 761 c 0
247 761 m 0
 247 739 228 714 200 714 c 0
 175 714 164 729 164 749 c 0xbe
 164 771 174 797 208 797 c 0xb4
 231 797 247 779 247 761 c 0
EndSplineSet
Validated: 1
Layer: 2
Layer: 3
EndChar

StartChar: Egrave
Encoding: 200 200 218
Width: 285
Flags: MW
HStem: -7 62 0 21G<274 274> 307 55 594 60
VStem: 40 69<592 644>
LayerCount: 4
Back
Fore
SplineSet
40 644 m 1xb8
 248 654 l 1
 250 596 l 1
 109 592 l 1
 110 501 111 428 112 359 c 1
 230 366 l 1
 232 309 l 1
 113 305 l 1
 115 226 118 149 121 51 c 1
 272 60 l 1
 274 0 l 1
 54 -7 l 1
 53 238 54 370 40 644 c 1xb8
52 760 m 1
 79 820 l 1
 140 781 198 749 240 728 c 1xb8
 219 685 l 1x78
 174 706 102 739 52 760 c 1
EndSplineSet
Validated: 1
Layer: 2
Layer: 3
EndChar

StartChar: Iacute
Encoding: 205 205 219
Width: 164
Flags: MW
HStem: -4 21G<55 55>
VStem: 40 67<645 652>
LayerCount: 4
Back
Fore
SplineSet
40 645 m 1
 107 652 l 1
 111 343 115 246 124 2 c 1
 55 -4 l 1
 54 241 54 371 40 645 c 1
139 820 m 1
 166 760 l 1
 116 739 43 706 -2 685 c 1
 -22 728 l 1
 20 749 78 781 139 820 c 1
EndSplineSet
Validated: 1
Layer: 2
Layer: 3
EndChar

StartChar: Icircumflex
Encoding: 206 206 220
Width: 164
Flags: MW
HStem: -4 21G<55 55>
VStem: 40 67<645 652>
LayerCount: 4
Back
Fore
SplineSet
40 645 m 1
 107 652 l 1
 111 343 115 246 124 2 c 1
 55 -4 l 1
 54 241 54 371 40 645 c 1
-57 725 m 1
 65 820 l 1
 190 725 l 1
 154 681 l 1
 65 755 l 1
 -24 680 l 1
 -57 725 l 1
EndSplineSet
Validated: 1
Layer: 2
Layer: 3
EndChar

StartChar: Idieresis
Encoding: 207 207 221
Width: 164
Flags: MW
HStem: -4 21G<55 55> 714 83<-16 6 117 140>
VStem: -44 83<750 760> 40 67<645 652> 90 83<750 760>
LayerCount: 4
Back
Fore
SplineSet
40 645 m 1xd0
 107 652 l 1
 111 343 115 246 124 2 c 1
 55 -4 l 1
 54 241 54 371 40 645 c 1xd0
39 761 m 0
 39 739 20 714 -8 714 c 0
 -33 714 -44 729 -44 749 c 0
 -44 771 -33 797 1 797 c 0
 24 797 39 779 39 761 c 0
173 761 m 0xe8
 173 739 154 714 126 714 c 0
 101 714 90 729 90 749 c 0
 90 771 100 797 134 797 c 0
 157 797 173 779 173 761 c 0xe8
EndSplineSet
Validated: 1
Layer: 2
Layer: 3
EndChar

StartChar: Igrave
Encoding: 204 204 222
Width: 164
Flags: MW
HStem: -4 21G<55 55>
VStem: 40 67<645 652>
LayerCount: 4
Back
Fore
SplineSet
40 645 m 1
 107 652 l 1
 111 343 115 246 124 2 c 1
 55 -4 l 1
 54 241 54 371 40 645 c 1
-22 760 m 1
 5 820 l 1
 66 781 124 749 166 728 c 1
 145 685 l 1
 100 706 28 739 -22 760 c 1
EndSplineSet
Validated: 1
Layer: 2
Layer: 3
EndChar

StartChar: Oacute
Encoding: 211 211 223
Width: 355
Flags: MW
HStem: -10 59<154.5 210.5 154.5 237.5> 600 58<145 200>
VStem: 35 65<219 414 219 430> 253 67<221.5 403.5 206.5 432.5>
LayerCount: 4
Back
Fore
SplineSet
179 658 m 0
 301 658 320 518 320 289 c 0
 320 124 302 -10 173 -10 c 0
 74 -10 35 80 35 310 c 0
 35 550 65 658 179 658 c 0
253 319 m 0
 253 546 225 600 175 600 c 0
 115 600 100 507 100 321 c 0
 100 117 123 49 186 49 c 0
 235 49 253 124 253 319 c 0
248 820 m 1
 275 760 l 1
 225 739 152 706 107 685 c 1
 87 728 l 1
 129 749 187 781 248 820 c 1
EndSplineSet
Validated: 1
Layer: 2
Layer: 3
EndChar

StartChar: Ocircumflex
Encoding: 212 212 224
Width: 355
Flags: MW
HStem: -10 59<154.5 210.5 154.5 237.5> 600 58<145 200>
VStem: 35 65<219 414 219 430> 253 67<221.5 403.5 206.5 432.5>
LayerCount: 4
Back
Fore
SplineSet
179 658 m 0
 301 658 320 518 320 289 c 0
 320 124 302 -10 173 -10 c 0
 74 -10 35 80 35 310 c 0
 35 550 65 658 179 658 c 0
253 319 m 0
 253 546 225 600 175 600 c 0
 115 600 100 507 100 321 c 0
 100 117 123 49 186 49 c 0
 235 49 253 124 253 319 c 0
52 725 m 1
 174 820 l 1
 299 725 l 1
 263 681 l 1
 174 755 l 1
 85 680 l 1
 52 725 l 1
EndSplineSet
Validated: 1
Layer: 2
Layer: 3
EndChar

StartChar: Ograve
Encoding: 210 210 225
Width: 355
Flags: MW
HStem: -10 59<154.5 210.5 154.5 237.5> 600 58<145 200>
VStem: 35 65<219 414 219 430> 253 67<221.5 403.5 206.5 432.5>
LayerCount: 4
Back
Fore
SplineSet
179 658 m 0
 301 658 320 518 320 289 c 0
 320 124 302 -10 173 -10 c 0
 74 -10 35 80 35 310 c 0
 35 550 65 658 179 658 c 0
253 319 m 0
 253 546 225 600 175 600 c 0
 115 600 100 507 100 321 c 0
 100 117 123 49 186 49 c 0
 235 49 253 124 253 319 c 0
87 760 m 1
 114 820 l 1
 175 781 233 749 275 728 c 1
 254 685 l 1
 209 706 137 739 87 760 c 1
EndSplineSet
Validated: 1
Layer: 2
Layer: 3
EndChar

StartChar: Uacute
Encoding: 218 218 226
Width: 349
Flags: MW
HStem: -8 58<165 209.5 165 220>
VStem: 38 70<644 650> 248 61<125 215.5>
LayerCount: 4
Back
Fore
SplineSet
236 645 m 1
 307 652 l 1
 308 407 309 267 309 171 c 0
 309 36 251 -8 189 -8 c 0
 110 -8 70 32 61 154 c 0
 54 250 49 419 38 644 c 1
 108 650 l 1
 110 413 119 249 125 164 c 0
 131 85 143 50 187 50 c 0
 232 50 248 77 248 173 c 0
 248 258 243 476 236 645 c 1
247 820 m 1
 274 760 l 1
 224 739 151 706 106 685 c 1
 86 728 l 1
 128 749 186 781 247 820 c 1
EndSplineSet
Validated: 1
Layer: 2
Layer: 3
EndChar

StartChar: Ucircumflex
Encoding: 219 219 227
Width: 349
Flags: MW
HStem: -8 58<165 209.5 165 220>
VStem: 38 70<644 650> 248 61<125 215.5>
LayerCount: 4
Back
Fore
SplineSet
236 645 m 1
 307 652 l 1
 308 407 309 267 309 171 c 0
 309 36 251 -8 189 -8 c 0
 110 -8 70 32 61 154 c 0
 54 250 49 419 38 644 c 1
 108 650 l 1
 110 413 119 249 125 164 c 0
 131 85 143 50 187 50 c 0
 232 50 248 77 248 173 c 0
 248 258 243 476 236 645 c 1
51 725 m 1
 173 820 l 1
 298 725 l 1
 262 681 l 1
 173 755 l 1
 84 680 l 1
 51 725 l 1
EndSplineSet
Validated: 1
Layer: 2
Layer: 3
EndChar

StartChar: Ugrave
Encoding: 217 217 228
Width: 349
Flags: MW
HStem: -8 58<165 209.5 165 220>
VStem: 38 70<644 650> 248 61<125 215.5>
LayerCount: 4
Back
Fore
SplineSet
236 645 m 1
 307 652 l 1
 308 407 309 267 309 171 c 0
 309 36 251 -8 189 -8 c 0
 110 -8 70 32 61 154 c 0
 54 250 49 419 38 644 c 1
 108 650 l 1
 110 413 119 249 125 164 c 0
 131 85 143 50 187 50 c 0
 232 50 248 77 248 173 c 0
 248 258 243 476 236 645 c 1
86 760 m 1
 113 820 l 1
 174 781 232 749 274 728 c 1
 253 685 l 1
 208 706 136 739 86 760 c 1
EndSplineSet
Validated: 1
Layer: 2
Layer: 3
EndChar

StartChar: dotlessi
Encoding: 305 305 229
Width: 177
Flags: MW
HStem: -7 21G<68 68>
VStem: 63 61
AnchorPoint: "top" 91 496 basechar 0
AnchorPoint: "bottom" 103 0 basechar 0
LayerCount: 4
Back
Fore
SplineSet
58 494 m 1
 124 501 l 1
 127 308 129 194 137 4 c 1
 68 -7 l 1
 70 160 65 327 58 494 c 1
EndSplineSet
Validated: 33
Layer: 2
Layer: 3
EndChar

StartChar: circumflex
Encoding: 710 710 230
Width: 347
Flags: MW
HStem: 564 178<98 172 172 251>
VStem: 50 247<597 600>
LayerCount: 4
Back
Fore
SplineSet
50 597 m 1
 172 742 l 1
 297 600 l 1
 251 564 l 1
 172 663 l 1
 98 564 l 1
 50 597 l 1
EndSplineSet
Validated: 1
Layer: 2
Layer: 3
EndChar

StartChar: tilde
Encoding: 732 732 231
Width: 361
Flags: MW
HStem: 598 55<211 240 211 247> 635 57<120 144>
VStem: 50 261<640 648>
LayerCount: 4
Back
Fore
SplineSet
280 684 m 1xa0
 311 648 l 1
 295 626 264 598 230 598 c 0
 183 598 159 635 129 635 c 0xa0
 111 635 98 623 80 606 c 1
 50 640 l 1
 68 662 101 692 131 692 c 0
 177 692 193 653 229 653 c 0x60
 251 653 264 663 280 684 c 1xa0
EndSplineSet
Validated: 1
Layer: 2
Layer: 3
EndChar

StartChar: macron
Encoding: 175 175 232
Width: 289
Flags: MW
HStem: 624 52
VStem: 50 189<624 675 675 675>
LayerCount: 4
Back
Fore
SplineSet
50 624 m 1
 50 675 l 1
 239 678 l 1
 239 624 l 1
 50 624 l 1
EndSplineSet
Validated: 1
Layer: 2
Layer: 3
EndChar

StartChar: breve
Encoding: 728 728 233
Width: 262
Flags: MW
HStem: 568 178<85 156>
VStem: 50 162<600 703>
LayerCount: 4
Back
Fore
SplineSet
156 746 m 1
 212 703 l 1
 176 665 118 605 85 568 c 1
 50 600 l 1
 80 636 116 685 156 746 c 1
EndSplineSet
Validated: 1
Layer: 2
Layer: 3
EndChar

StartChar: dotaccent
Encoding: 729 729 234
Width: 262
Flags: MW
HStem: 568 178<106 177>
VStem: 50 162<600 703>
LayerCount: 4
Back
Fore
SplineSet
50 703 m 1
 106 746 l 1
 146 685 182 636 212 600 c 1
 177 568 l 1
 144 605 86 665 50 703 c 1
EndSplineSet
Validated: 1
Layer: 2
Layer: 3
EndChar

StartChar: ring
Encoding: 730 730 235
Width: 360
Flags: MW
HStem: 577 56<160 202 160 210.5>
VStem: 50 260<692 696>
LayerCount: 4
Back
Fore
SplineSet
181 577 m 0
 127 577 68 616 50 692 c 1
 100 717 l 1
 119 658 139 633 181 633 c 0
 223 633 248 664 261 718 c 1
 310 696 l 1
 292 619 240 577 181 577 c 0
EndSplineSet
Validated: 1
Layer: 2
Layer: 3
EndChar

StartChar: cedilla
Encoding: 184 184 236
Width: 209
Flags: MW
HStem: -180 197<84 84>
VStem: 105 54<-115 -98>
LayerCount: 4
Back
Fore
SplineSet
74 17 m 1
 121 17 l 1
 103 -39 l 1
 141 -54 159 -76 159 -111 c 0
 159 -144 115 -175 84 -180 c 1
 67 -147 l 1
 93 -135 105 -123 105 -107 c 0
 105 -89 83 -75 50 -59 c 1
 74 17 l 1
EndSplineSet
Validated: 1
Layer: 2
Layer: 3
EndChar

StartChar: hungarumlaut
Encoding: 733 733 237
Width: 261
Flags: MW
HStem: 573 38<120.5 140.5 120.5 155> 709 39<119.5 138.5>
VStem: 50 45<642.5 678.5 642.5 686> 162 49<643.5 678.5>
LayerCount: 4
Back
Fore
SplineSet
133 748 m 0
 189 748 211 704 211 659 c 0
 211 612 185 573 125 573 c 0
 82 573 50 604 50 659 c 0
 50 713 81 748 133 748 c 0
162 659 m 0
 162 698 147 709 130 709 c 0
 109 709 95 694 95 663 c 0
 95 622 111 611 130 611 c 0
 151 611 162 628 162 659 c 0
EndSplineSet
Validated: 1
Layer: 2
Layer: 3
EndChar

StartChar: ogonek
Encoding: 731 731 238
Width: 197
Flags: MW
HStem: 593 98<86 108.5>
VStem: 50 97<635.5 647.5>
LayerCount: 4
Back
Fore
SplineSet
147 649 m 0
 147 622 125 593 92 593 c 0
 63 593 50 609 50 634 c 0
 50 661 66 691 106 691 c 0
 133 691 147 672 147 649 c 0
EndSplineSet
Validated: 1
Layer: 2
Layer: 3
EndChar

StartChar: caron
Encoding: 711 711 239
Width: 347
Flags: MW
HStem: 564 179<175 249>
VStem: 50 247<705 709>
LayerCount: 4
Back
Fore
SplineSet
297 709 m 1
 175 564 l 1
 50 705 l 1
 96 741 l 1
 175 643 l 1
 249 743 l 1
 297 709 l 1
EndSplineSet
Validated: 1
Layer: 2
Layer: 3
EndChar

StartChar: knA
Encoding: 3205 3205 240
Width: 446
Flags: MW
HStem: 0 55<186 263.5 186 279> 170 42<223 286.5> 238 50<121.5 138 118.5 162.5> 543 51<316 339.5> 546 48<110.5 116>
VStem: 6 49 121 57 210 55 226 48 329 53
LayerCount: 4
Back
Fore
SplineSet
116 546 m 0xef40
 105 546 84 539 84 463 c 0
 84 312 107 288 130 288 c 0
 146 288 153 320 150 417 c 0
 147 517 144 549 116 546 c 0xef40
226 0 m 0xf6c0
 133 0 40 67 37 204 c 0
 36 264 35 327 35 379 c 2
 35 446 l 1
 35 487 l 2
 35 538 60 594 112 594 c 0
 187 594 207 528 207 417 c 0
 207 310 193 238 132 238 c 0
 111 238 93 248 84 259 c 1
 85 240 83 227 84 199 c 0
 87 106 149 55 223 55 c 0
 304 55 349 125 354 226 c 0
 359 349 357 380 355 475 c 0
 354 495 353 543 326 543 c 0
 306 543 294 514 294 394 c 0
 294 316 298 301 303 250 c 0
 306 215 305 170 268 170 c 0
 247 170 161 166 131 166 c 1
 131 186 131 191 136 211 c 1
 223 212 l 2
 256 212 260 217 255 251 c 0
 250 288 239 348 239 397 c 0
 239 506 247 594 326 594 c 0
 365 594 385 571 396 544 c 0
 405 521 406 496 407 472 c 0
 409 410 411 361 411 298 c 2
 411 227 l 2
 411 95 332 0 226 0 c 0xf6c0
EndSplineSet
Validated: 33
Layer: 2
Layer: 3
EndChar

StartChar: knAA
Encoding: 3206 3206 241
Width: 433
Flags: MW
HStem: 0 57<173.5 235.5 173.5 258> 168 50<116 231 116 233> 244 50<120.5 129 115.5 156.5> 545 49<109.5 126>
VStem: 4 56 124 57 207 53 299 54 321 54
LayerCount: 4
Back
Fore
SplineSet
114 545 m 0xfe80
 105 545 87 544 87 450 c 0
 87 315 109 294 122 294 c 0
 136 294 151 305 151 401 c 0
 151 522 138 545 114 545 c 0xfe80
323 543 m 0
 294 543 287 489 287 450 c 2
 287 419 l 2
 287 383 303 334 316 316 c 1
 332 334 348 402 348 441 c 2
 348 441 348 449 348 464 c 0
 348 496 342 543 323 543 c 0
353 283 m 1xff
 378 235 380 208 380 175 c 0
 380 80 310 0 206 0 c 0
 115 0 37 77 33 205 c 0
 29 322 31 350 31 486 c 0
 31 554 69 594 110 594 c 0
 191 594 208 528 208 419 c 0
 208 306 187 244 126 244 c 0
 115 244 98 249 87 260 c 1
 88 243 87 228 87 205 c 0
 87 113 140 57 207 57 c 0
 264 57 326 109 326 172 c 0
 326 187 324 202 320 225 c 1
 305 201 278 168 231 168 c 2
 116 168 l 1
 116 218 l 1
 233 218 l 2
 260 218 285 252 293 269 c 1
 264 295 234 362 234 418 c 0
 234 566 267 594 322 594 c 0
 394 594 402 517 402 460 c 0
 402 376 373 311 353 283 c 1xff
EndSplineSet
Validated: 33
Layer: 2
Layer: 3
EndChar

StartChar: knI
Encoding: 3207 3207 242
Width: 476
Flags: MW
HStem: -2 21G<385 385> 1 51<175 219 175 244.5> 178 51<160.5 216> 543 52<103.5 148 304.5 339>
VStem: 3 54 150 32 336 54
LayerCount: 4
Back
Fore
SplineSet
442 7 m 1x7e
 385 -2 l 1xbe
 329 141 243 178 189 178 c 0
 132 178 95 141 96 117 c 0
 98 77 159 52 191 52 c 0
 247 52 366 77 366 368 c 0
 366 531 353 543 325 543 c 0
 284 543 244 429 244 357 c 1
 180 350 l 1
 177 403 170 543 126 543 c 0
 81 543 82 422 96 346 c 1
 39 338 l 1
 26 421 27 595 123 595 c 0
 184 595 207 502 212 415 c 1
 220 523 268 595 325 595 c 0
 392 595 420 541 420 376 c 0
 420 82 296 1 193 1 c 0
 118 1 50 59 50 112 c 0
 50 175 103 229 187 229 c 0
 291 229 378 148 442 7 c 1x7e
EndSplineSet
Validated: 37
Layer: 2
Layer: 3
EndChar

StartChar: knII
Encoding: 3208 3208 243
Width: 592
Flags: MW
HStem: 0 42<199 263 199 281> 286 41 492 39<473 504.5> 546 44
VStem: 51 52 277 52 375 44 480 44
LayerCount: 4
Back
Fore
SplineSet
501 12 m 1
 447 4 l 1
 443 25 423 249 407 378 c 0
 399 436 415 531 486 531 c 0
 541 531 564 479 553 423 c 0
 534 326 472 287 388 286 c 0
 364 286 51 274 39 274 c 1
 37 327 l 1
 90 327 l 1
 90 327 119 327 176 327 c 0
 237 327 296 328 340 328 c 2
 384 328 l 2
 453 328 496 362 507 415 c 0
 512 438 522 492 487 492 c 0
 459 492 445 430 455 379 c 0
 460 354 493 39 501 12 c 1
465 672 m 1
 465 622 438 548 332 546 c 0
 299 545 97 540 53 536 c 1
 52 590 l 1
 126 590 286 592 329 595 c 0
 385 598 415 626 412 666 c 1
 421 667 444 667 465 672 c 1
309 290 m 0
 309 499 273 543 216 543 c 0
 148 543 135 472 135 301 c 0
 135 113 163 42 235 42 c 0
 291 42 309 110 309 290 c 0
361 263 m 0
 361 116 344 0 218 0 c 0
 121 0 83 85 83 291 c 0
 83 507 113 588 224 588 c 0
 344 588 361 468 361 263 c 0
EndSplineSet
Validated: 37
Layer: 2
Layer: 3
EndChar

StartChar: knU
Encoding: 3209 3209 244
Width: 586
Flags: MW
HStem: 0 43<143 201.5 143 218.5 423.5 461> 240 49<121.5 145 121 156.5> 517 45<305 341.5> 555 38
VStem: 5 49 126 45 201 53 315 54 452 55
LayerCount: 4
Back
Fore
SplineSet
481 576 m 1xef80
 537 584 l 1
 536 459 534 353 534 226 c 0
 534 93 510 0 438 0 c 0
 378 0 352 76 349 204 c 0
 348 280 350 321 350 353 c 0
 350 450 359 517 324 517 c 0xef80
 286 517 288 453 288 349 c 2
 288 226 l 2
 288 93 270 0 167 0 c 0
 87 0 47 75 42 203 c 0
 38 323 42 339 42 480 c 0
 42 564 83 593 117 593 c 0xdf80
 191 593 208 530 205 418 c 0
 202 279 181 240 132 240 c 0
 111 240 93 260 86 284 c 1
 89 257 89 234 90 202 c 0
 94 110 117 43 169 43 c 0
 234 43 234 120 235 224 c 2
 237 380 l 2
 238 477 248 562 326 562 c 0
 401 562 403 461 403 352 c 0
 403 232 403 263 403 203 c 0
 403 111 406 43 441 43 c 0
 481 43 486 121 486 225 c 0
 486 372 481 432 481 576 c 1xef80
160 405 m 0
 161 500 153 558 121 555 c 0xdf80
 106 554 89 530 88 491 c 0
 88 312 107 289 135 289 c 0
 155 289 160 310 160 405 c 0
EndSplineSet
Validated: 33
Layer: 2
Layer: 3
EndChar

StartChar: knUU
Encoding: 3210 3210 245
Width: 760
Flags: MW
HStem: 0 43<149 207.5 149 224.5 429.5 463> 0 47<618.5 649.5 618.5 669.5> 239 42 240 49<127.5 151 127 162.5> 517 45 529 46<582.5 632.5> 555 38
VStem: 5 49 126 45 201 50 316 50 445 53 522 46 628 13
LayerCount: 4
Back
Fore
SplineSet
173 0 m 0x69fc
 93 0 53 75 48 203 c 0
 44 323 48 339 48 480 c 0
 48 564 89 593 123 593 c 0
 197 593 214 530 211 418 c 0
 208 279 187 240 138 240 c 0x93fc
 117 240 99 260 92 284 c 1
 95 257 95 234 96 202 c 0
 100 110 123 43 175 43 c 0
 240 43 239 120 241 224 c 2
 244 379 l 2
 246 499 266 562 332 562 c 0
 389 562 408 506 409 352 c 2
 410 202 l 2
 411 110 412 43 447 43 c 0xa9fc
 479 43 489 82 491 147 c 2
 493 225 l 1
 493 363 l 2
 493 514 543 575 600 575 c 0
 713 575 714 397 714 203 c 0
 714 85 705 0 634 0 c 0
 589 0 562 61 562 130 c 0
 562 258 642 303 681 272 c 1
 681 272 681 265 681 252 c 0
 681 242 682 235 683 232 c 1
 648 253 608 227 608 139 c 0
 608 101 601 47 636 47 c 0
 663 47 668 91 668 192 c 0
 668 389 665 529 600 529 c 0x65fc
 565 529 542 467 541 375 c 2
 540 224 l 2
 539 91 516 0 444 0 c 0
 384 0 357 76 355 204 c 0
 353 280 356 321 356 353 c 0
 356 450 366 516 330 517 c 0
 297 518 297 485 296 347 c 2
 295 224 l 2
 294 91 276 0 173 0 c 0x69fc
166 405 m 0
 166 500 159 558 127 555 c 0
 112 554 94 530 94 491 c 0
 93 312 113 289 141 289 c 0
 161 289 165 310 166 405 c 0
EndSplineSet
Validated: 37
Layer: 2
Layer: 3
EndChar

StartChar: knvR
Encoding: 3211 3211 246
Width: 649
Flags: MW
HStem: 0 48<117.5 156 117.5 172.5 311 354.5> 215 44<114.5 150> 321 49<127 152.5 127 157.5> 544 51<132 161.5 331 338>
VStem: 12 51 143 38 144 31 199 46 292 40 351 50 505 63
LayerCount: 4
Back
Fore
SplineSet
597 227 m 0xfbe0
 594 87 552 0 484 0 c 0
 439 0 417 27 400 59 c 1
 428 110 l 1
 432 81 453 47 482 47 c 0
 535 47 542 196 542 226 c 2
 542 261 l 2
 542 296 543 344 543 396 c 2
 543 469 l 2
 543 514 542 550 542 559 c 1
 606 575 l 1
 606 541 l 2
 606 458 598 264 597 227 c 0xfbe0
335 0 m 0
 280 0 252 76 241 119 c 1
 230 81 201 0 144 0 c 0
 71 0 43 79 43 127 c 0
 43 204 68 259 131 259 c 0
 213 259 213 171 213 161 c 1
 224 202 237 284 237 320 c 0
 237 360 234 427 219 495 c 1
 227 376 177 321 138 321 c 0
 107 321 50 338 50 459 c 0
 50 507 78 595 159 595 c 0
 239 595 285 477 283 317 c 0
 282 272 271 216 266 193 c 1
 266 172 291 48 331 48 c 0
 378 48 389 103 389 180 c 2
 389 261 l 2
 389 344 379 507 371 546 c 1
 358 545 346 544 331 544 c 1
 330 595 l 1
 346 595 387 595 430 598 c 0
 486 601 499 626 499 665 c 1
 508 666 531 666 552 671 c 1
 552 622 537 564 433 552 c 2
 424 551 l 1
 427 503 439 370 439 263 c 2
 439 263 439 247 439 216 c 0
 439 127 423 0 335 0 c 0
181 532 m 1xfde0
 172 537 169 544 154 544 c 0
 110 544 101 486 101 458 c 0
 101 390 115 370 139 370 c 0
 166 370 190 423 181 532 c 1xfde0
182 118 m 0
 184 160 167 215 133 215 c 0
 96 215 87 168 87 133 c 0
 87 111 93 48 142 48 c 0
 170 48 181 90 182 118 c 0
EndSplineSet
Validated: 37
Layer: 2
Layer: 3
EndChar

StartChar: knvRR
Encoding: 3296 3296 247
Width: 826
Flags: MW
HStem: 0 41<677.5 708.5 677.5 731.5> 0 48<113.5 152 113.5 168.5 307 350.5> 215 44<110.5 146> 237 45 321 49<123 148.5 123 153.5> 515 52<629 703> 544 51<128 157.5 327 334>
VStem: 12 51 143 38 199 46 292 40 351 50 461 53 495 55 569 46 706 46
LayerCount: 4
Back
Fore
SplineSet
331 0 m 0x5dfb
 276 0 248 76 237 119 c 1
 226 81 197 0 140 0 c 0
 67 0 39 79 39 127 c 0
 39 204 64 259 127 259 c 0x6bfb
 209 259 209 171 209 161 c 1
 220 202 233 284 233 320 c 0
 233 360 230 427 215 495 c 1
 223 376 173 321 134 321 c 0
 103 321 46 338 46 459 c 0
 46 507 74 595 155 595 c 0
 235 595 282 477 279 317 c 0
 279 272 267 216 262 193 c 1
 262 172 287 48 327 48 c 0
 374 48 385 103 385 180 c 2
 385 261 l 2
 385 344 375 507 367 546 c 1
 354 545 342 544 327 544 c 1
 326 595 l 1
 342 595 383 595 426 598 c 0
 482 601 495 626 495 665 c 1x5bf7
 504 666 527 666 548 671 c 1
 548 622 533 564 429 552 c 2
 420 551 l 1
 423 503 435 370 435 263 c 2
 435 263 435 247 435 216 c 0
 435 127 419 0 331 0 c 0x5dfb
177 532 m 1
 168 537 165 544 150 544 c 0
 106 544 97 486 97 458 c 0
 97 390 111 370 135 370 c 0
 162 370 186 423 177 532 c 1
178 118 m 0
 180 160 163 215 129 215 c 0
 92 215 83 168 83 133 c 0
 83 111 89 48 138 48 c 0
 166 48 177 90 178 118 c 0
786 203 m 0
 786 85 767 0 696 0 c 0
 650 0 603 60 603 128 c 0
 603 267 705 303 744 272 c 1
 742 257 l 2
 741 245 741 236 743 230 c 1
 708 251 649 229 649 141 c 0
 649 104 660 41 695 41 c 0
 722 41 740 91 740 192 c 0
 740 390 745 515 661 515 c 0
 597 515 588 424 584 327 c 0
 584 299 584 276 584 265 c 0
 584 134 570 0 482 0 c 0
 451 0 417 12 398 59 c 1
 403 71 418 94 425 110 c 1
 432 73 452 47 479 47 c 0
 527 47 529 146 529 262 c 2
 529 324 l 2
 529 477 576 567 660 567 c 0x9dfb
 796 567 786 398 786 203 c 0
EndSplineSet
Validated: 37
Layer: 2
Layer: 3
EndChar

StartChar: knvL
Encoding: 3212 3212 248
Width: 585
Flags: MW
HStem: 0 58<285.5 322.5 285.5 329.5> 543 52<117.5 168.5 293.5 337.5>
VStem: 5 55 136 56 159 33 192 38 339 55 447 64
LayerCount: 4
Back
Fore
SplineSet
302 58 m 0
 343 58 476 95 481 335 c 0
 481 359 482 381 482 414 c 2
 482 476 l 1
 482 566 l 1
 546 582 l 1
 541 449 541 428 536 337 c 0
 520 65 364 0 295 0 c 0
 239 0 171 30 171 110 c 0
 171 233 309 237 360 382 c 0
 398 490 352 543 323 543 c 0
 264 543 260 437 265 357 c 1
 194 350 l 1
 191 403 194 543 143 543 c 0
 92 543 83 433 109 346 c 1
 47 338 l 1
 31 421 32 595 139 595 c 0
 207 595 222 490 227 410 c 1
 224 519 253 595 323 595 c 0
 392 595 457 509 417 377 c 0
 365 205 227 209 227 111 c 0
 227 72 269 58 302 58 c 0
EndSplineSet
Validated: 33
Layer: 2
Layer: 3
EndChar

StartChar: knvLL
Encoding: 3297 3297 249
Width: 750
Flags: MW
HStem: 0 40<607.5 639.5 607.5 659.5> 0 58<281.5 328 281.5 348> 238 44 526 52<557 631> 543 52<113.5 164.5 289 333.5>
VStem: 5 55 159 33 339 55 500 50 637 46
LayerCount: 4
Back
Fore
SplineSet
589 526 m 0xb7c0
 525 526 516 434 512 337 c 0
 502 65 396 0 300 0 c 0
 245 0 167 30 167 110 c 0
 167 233 305 237 356 382 c 0
 394 490 348 543 319 543 c 0
 259 543 261 438 261 357 c 1
 190 350 l 1
 187 403 190 543 139 543 c 0
 88 543 79 433 105 346 c 1
 43 338 l 1
 27 421 28 595 135 595 c 0
 203 595 218 490 223 410 c 1
 220 519 249 595 319 595 c 0
 388 595 453 509 413 377 c 0
 361 205 223 209 223 111 c 0
 223 72 265 58 298 58 c 0x6fc0
 358 58 455 95 457 335 c 0
 459 488 504 578 588 578 c 0
 724 578 714 399 714 203 c 0
 714 85 695 0 624 0 c 0
 578 0 531 60 531 128 c 0
 531 267 633 303 672 272 c 1
 670 257 l 2
 669 245 669 236 671 230 c 1
 635 252 581 229 581 141 c 0
 581 104 590 40 625 40 c 0
 654 40 668 91 668 192 c 0
 668 389 673 526 589 526 c 0xb7c0
EndSplineSet
Validated: 37
Layer: 2
Layer: 3
EndChar

StartChar: knE
Encoding: 3214 3214 250
Width: 544
Flags: MW
HStem: 1 58<128 161 128 176.5> 607 55<279.5 327.5>
VStem: 8 57 153 65 377 65
LayerCount: 4
Back
Fore
SplineSet
424 341 m 0
 424 533 365 607 290 607 c 0
 269 607 246 596 231 591 c 1
 213 640 l 1
 229 648 253 662 282 662 c 0
 402 662 489 579 489 324 c 0
 489 64 417 0 333 0 c 0
 305 0 240 26 235 131 c 1
 230 55 204 1 149 1 c 0
 43 1 43 199 71 244 c 1
 133 235 l 1
 96 175 111 59 145 59 c 0
 177 59 201 107 200 227 c 1
 265 227 l 1
 260 174 285 59 334 59 c 0
 391 60 424 145 424 341 c 0
EndSplineSet
Validated: 33
Layer: 2
Layer: 3
EndChar

StartChar: knEE
Encoding: 3215 3215 251
Width: 544
Flags: MW
HStem: 1 58<128 161 128 176.5> 500 40<141.5 173 141.5 184> 607 55<279.5 327.5>
VStem: 8 57 22 50 153 65 166 50 377 65
LayerCount: 4
Back
Fore
SplineSet
213 639 m 1
 263 628 l 1
 263 559 210 500 158 500 c 0
 112 500 61 540 69 643 c 1
 122 647 l 1
 114 595 124 540 159 540 c 0
 187 540 213 588 213 639 c 1
424 341 m 0
 424 533 365 607 290 607 c 0
 269 607 246 596 231 591 c 1
 213 640 l 1
 229 648 253 662 282 662 c 0
 402 662 489 579 489 324 c 0
 489 64 417 0 333 0 c 0
 305 0 240 26 235 131 c 1
 230 55 204 1 149 1 c 0
 43 1 43 199 71 244 c 1
 133 235 l 1
 96 175 111 59 145 59 c 0
 177 59 201 107 200 227 c 1
 265 227 l 1
 260 174 285 59 334 59 c 0
 391 60 424 145 424 341 c 0
EndSplineSet
Validated: 37
Layer: 2
Layer: 3
EndChar

StartChar: knAI
Encoding: 3216 3216 252
Width: 544
Flags: MW
HStem: -1 59<346 346> 1 58<137.5 184 137.5 186.5> 544 50
VStem: 3 54 174 34 209 39 397 65
LayerCount: 4
Back
Fore
SplineSet
437 342 m 0xbe
 436 430 434 544 371 544 c 0
 323 544 291 434 288 357 c 1
 217 350 l 1
 214 403 190 543 146 543 c 0
 95 543 85 432 112 346 c 1
 50 338 l 1
 34 419 36 595 142 595 c 0
 230 595 244 490 249 410 c 1
 249 503 287 597 377 594 c 0
 488 591 501 433 502 325 c 0
 502 93 454 -3 346 -1 c 0xbe
 312 0 253 32 248 131 c 1
 243 56 213 1 160 1 c 0
 53 1 50 184 92 247 c 1
 154 239 l 1
 103 180 116 59 159 59 c 0x7e
 209 59 211 175 214 228 c 1
 278 227 l 1
 273 170 298 58 346 58 c 0
 409 58 439 134 437 342 c 0xbe
EndSplineSet
Validated: 33
Layer: 2
Layer: 3
EndChar

StartChar: knO
Encoding: 3218 3218 253
Width: 486
Flags: MW
HStem: 0 57<316.5 361 314.5 397> 543 53<138.5 173>
VStem: 29 52 30 56 187 56 190 64 360 56
LayerCount: 4
Back
Fore
SplineSet
362 231 m 1
 424 239 l 1
 445 148 451 0 343 0 c 0
 290 0 250 57 245 132 c 1
 232 15 187 0 159 0 c 0
 86 0 46 109 49 179 c 0
 57 339 207 369 207 471 c 0
 207 516 191 543 155 543 c 0
 122 543 106 515 106 483 c 1
 106 483 103 483 98 482 c 0
 81 480 52 477 50 477 c 0
 47 528 72 596 158 596 c 0
 210 596 263 553 263 472 c 0
 263 332 109 318 101 182 c 0
 98 130 114 58 155 58 c 0
 191 58 213 166 210 227 c 1
 274 227 l 1
 277 174 289 57 340 57 c 0
 382 57 394 142 362 231 c 1
EndSplineSet
Validated: 33
Layer: 2
Layer: 3
EndChar

StartChar: knOO
Encoding: 3219 3219 254
Width: 487
Flags: MW
HStem: 0 57<317.5 362 315.5 398> 545 50 672 52
VStem: 29 52 30 56 109 50 187 56 190 64 360 56
LayerCount: 4
Back
Fore
SplineSet
318 633 m 1
 270 626 l 1
 267 638 l 2
 263 653 254 672 227 672 c 0
 187 672 161 614 196 546 c 1
 141 545 l 1
 117 604 126 720 223 724 c 0
 303 728 318 647 318 633 c 1
363 231 m 1
 425 239 l 1
 446 148 452 0 344 0 c 0
 291 0 251 57 246 132 c 1
 233 15 188 0 160 0 c 0
 87 0 47 109 50 179 c 0
 58 339 208 369 208 471 c 0
 208 516 192 543 156 543 c 0
 123 543 107 515 107 483 c 1
 107 483 104 483 99 482 c 0
 82 480 53 477 51 477 c 0
 48 528 73 596 159 596 c 0
 211 596 264 553 264 472 c 0
 264 332 110 318 102 182 c 0
 99 130 115 58 156 58 c 0
 192 58 214 166 211 227 c 1
 275 227 l 1
 278 174 290 57 341 57 c 0
 383 57 395 142 363 231 c 1
EndSplineSet
Validated: 37
Layer: 2
Layer: 3
EndChar

StartChar: knAU
Encoding: 3220 3220 255
Width: 544
Flags: MW
HStem: 0 57<317.5 362 315.5 398> 370 58<397.5 417 397.5 437> 543 53<139.5 174> 567 45 664 49
VStem: 29 52 187 56 293 53 360 56 428 46
LayerCount: 4
Back
Fore
SplineSet
53 660 m 1xdfc0
 53 666 l 2
 55 675 56 700 56 713 c 1
 159 713 l 2
 215 713 279 714 316 714 c 0
 452 714 495 638 495 530 c 0
 495 417 465 370 409 370 c 0
 376 370 314 415 314 484 c 0
 314 610 413 631 453 599 c 1
 451 584 l 2
 449 572 450 563 452 557 c 1
 417 578 367 569 367 499 c 0
 367 460 386 428 409 428 c 0
 425 428 449 443 449 519 c 0
 449 626 416 664 319 664 c 0
 273 664 112 660 53 660 c 1xdfc0
275 632 m 0
 275 573 217 549 158 552 c 1
 159 596 l 1xefc0
 210 599 235 607 235 630 c 0
 234 655 198 660 133 660 c 2
 54 660 l 1
 57 713 l 1
 219 713 275 672 275 632 c 0
363 231 m 1
 425 239 l 1
 446 148 452 0 344 0 c 0
 291 0 251 57 246 132 c 1
 233 15 188 0 160 0 c 0
 87 0 46 109 50 179 c 0
 57 339 208 369 208 471 c 0
 208 516 192 543 156 543 c 0
 123 543 107 515 107 483 c 1
 107 483 104 483 99 482 c 0
 82 480 53 477 51 477 c 0
 48 528 73 596 159 596 c 0
 211 596 264 553 264 472 c 0
 264 332 110 318 102 182 c 0
 99 130 115 58 156 58 c 0
 192 58 214 166 211 227 c 1
 275 227 l 1
 278 174 290 57 341 57 c 0
 383 57 395 142 363 231 c 1
EndSplineSet
Validated: 37
Layer: 2
Layer: 3
EndChar

StartChar: knsignAA
Encoding: 3262 3262 256
Width: 343
Flags: MW
HStem: 17 57<285.5 322.5 285.5 333.5> 258 39 410 53<-69 40 40 70 -69 207 -72 40>
VStem: 67 48 232 46
LayerCount: 4
Back
Fore
SplineSet
415 196 m 0
 415 83 362 17 305 17 c 0
 244 17 201 70 204 146 c 0
 207 270 313 317 365 290 c 0
 364 287 364 282 364 277 c 0
 364 269 365 261 367 253 c 1
 326 275 257 229 252 162 c 0
 249 125 265 74 306 74 c 0
 339 74 369 113 369 185 c 0
 369 291 358 410 207 410 c 2
 -72 410 l 2
 -72 409 -71 423 -71 436 c 2
 -69 463 l 1
 40 463 l 2
 100 463 165 464 202 464 c 0
 401 464 415 303 415 196 c 0
EndSplineSet
Validated: 37
Layer: 2
Layer: 3
EndChar

StartChar: knsignI
Encoding: 3263 3263 257
Width: 0
Flags: MW
HStem: 672 43<-30 18.5>
VStem: -101 44 66 46
LayerCount: 4
Back
Fore
SplineSet
-16 404 m 1
 -25 417 -32 430 -43 443 c 1
 21 470 62 521 61 585 c 0
 60 636 42 672 -5 672 c 0
 -55 672 -65 636 -62 603 c 0
 -59 564 -26 552 -7 547 c 1
 -13 529 l 1
 -19 511 l 1
 -54 514 -103 543 -106 603 c 0
 -109 650 -81 715 -5 715 c 0
 70 715 107 659 107 584 c 0
 107 500 53 439 -16 404 c 1
EndSplineSet
Validated: 33
Layer: 2
Layer: 3
EndChar

StartChar: knsignII
Encoding: 3264 3264 258
Width: 440
Flags: MW
HStem: 54 206<376.5 407 357.5 430> 672 43<59 107.5>
VStem: -101 44 66 46 224 97
LayerCount: 4
Back
Fore
SplineSet
73 404 m 1
 64 417 57 430 46 443 c 1
 110 470 151 521 150 585 c 0
 149 636 131 672 84 672 c 0
 34 672 24 636 27 603 c 0
 30 564 63 552 82 547 c 1
 76 529 l 1
 70 511 l 1
 35 514 -14 543 -17 603 c 0
 -20 650 8 715 84 715 c 0
 159 715 196 659 196 584 c 0
 196 500 142 439 73 404 c 1
435 0 m 1
 430 54 l 1
 323 54 308 162 308 270 c 2
 308 270 308 272 308 277 c 2
 308 282 l 1
 308 288 l 1
 308 304 l 1
 313 286 342 260 373 260 c 0
 441 260 457 312 457 428 c 0
 457 523 428 594 344 594 c 0
 308 594 274 584 258 568 c 1
 259 423 264 315 264 274 c 2
 264 274 264 255 264 216 c 0
 264 117 288 0 435 0 c 1
405 413 m 0
 405 318 391 303 371 303 c 0
 342 303 303 310 308 545 c 1
 315 548 325 552 340 553 c 0
 372 556 405 529 405 413 c 0
EndSplineSet
Validated: 41
Layer: 2
Layer: 3
EndChar

StartChar: knsignU
Encoding: 3265 3265 259
Width: 205
Flags: MW
HStem: 0 47<67.5 108.5 67.5 118>
VStem: 74 63
LayerCount: 4
Back
Fore
SplineSet
142 579 m 1
 206 595 l 1
 206 595 206 583 206 560 c 0
 206 471 197 264 197 227 c 0
 193 87 152 0 84 0 c 0
 39 0 17 27 -1 59 c 1
 28 110 l 1
 32 81 53 47 82 47 c 0
 135 47 142 196 142 226 c 2
 142 262 l 2
 142 299 143 350 143 406 c 2
 143 484 l 2
 143 532 142 570 142 579 c 1
EndSplineSet
Validated: 1
Layer: 2
Layer: 3
EndChar

StartChar: knsignUU
Encoding: 3266 3266 260
Width: 442
Flags: MW
HStem: -9 53<327.5 358.5> 0 44<87.5 124 87.5 145> 236 46 523 52<271 341>
VStem: 105 47 188 46 325 46
LayerCount: 4
Back
Fore
SplineSet
434 203 m 0x7e
 434 85 422 -9 350 -9 c 0xbe
 304 -9 251 60 251 128 c 0
 251 267 353 303 392 272 c 1
 390 257 l 2
 388 245 389 236 391 230 c 1
 356 251 297 223 297 136 c 0
 297 98 310 44 345 44 c 0
 372 44 388 91 388 192 c 0
 388 389 389 523 293 523 c 0
 249 523 215 454 215 362 c 0
 215 334 218 253 218 226 c 0
 218 135 193 0 97 0 c 0
 50 0 23 29 8 54 c 1
 35 96 l 1
 48 65 75 44 100 44 c 0
 148 44 168 113 168 225 c 0
 168 264 166 311 166 348 c 0
 166 501 219 575 292 575 c 0
 429 575 434 397 434 203 c 0x7e
EndSplineSet
Validated: 37
Layer: 2
Layer: 3
EndChar

StartChar: knsignvR
Encoding: 3267 3267 261
Width: 107
GlyphClass: 4
Flags: MW
HStem: -421 48<20 93.5 18 107.5> -305 37 -133 44<-24.5 1.5>
VStem: -232 44 -103 40 -2 49 7 51
LayerCount: 4
Back
Fore
SplineSet
38 -200 m 0
 38 -155 20 -133 -17 -133 c 0
 -33 -133 -44 -153 -44 -182 c 0
 -44 -217 -25 -268 5 -268 c 0
 29 -268 38 -243 38 -200 c 0
199 -183 m 0
 199 -316 156 -421 59 -421 c 0
 -19 -421 -92 -370 -92 -277 c 2
 -92 -185 l 2
 -92 -109 -35 -89 -14 -89 c 0
 70 -89 78 -157 78 -200 c 0
 78 -272 46 -304 8 -305 c 0
 -18 -306 -48 -292 -48 -269 c 1
 -48 -323 -21 -373 57 -373 c 0
 130 -373 148 -284 148 -188 c 0
 148 -131 145 -44 142 31 c 2
 136 167 l 1
 188 174 l 1
 189 126 191 80 193 35 c 0
 196 -41 199 -131 199 -183 c 0
EndSplineSet
Validated: 33
Layer: 2
Layer: 3
Substitution2: "Single Substitution lookup 9 subtable" knsignvR.following
EndChar

StartChar: knsignvRR
Encoding: 3268 3268 262
Width: 334
GlyphClass: 4
Flags: MW
HStem: -421 48<24.5 97.5 22.5 111.5> -305 37 -299 44<308.5 345.5 308.5 362> -133 44<-19.5 6> -67 42<379 379> 133 41<290 290 290 343>
VStem: -232 44 -103 40 7 51 99 48 226 50
LayerCount: 4
Back
Fore
SplineSet
42 -200 m 0xdfe0
 42 -155 24 -133 -12 -133 c 0
 -28 -133 -39 -153 -39 -182 c 0
 -39 -217 -20 -268 9 -268 c 0
 33 -268 42 -243 42 -200 c 0xdfe0
203 -183 m 0
 203 -316 160 -421 63 -421 c 0
 -14 -421 -87 -370 -87 -277 c 2
 -87 -185 l 2
 -87 -109 -30 -89 -9 -89 c 0
 74 -89 82 -157 82 -200 c 0
 82 -272 51 -304 12 -305 c 0
 -13 -306 -43 -292 -43 -269 c 1
 -43 -323 -16 -373 61 -373 c 0
 134 -373 152 -284 152 -188 c 0
 152 -131 149 -44 146 31 c 2
 140 167 l 1
 192 170 l 1
 193 123 195 77 197 33 c 0
 200 -42 203 -131 203 -183 c 0
421 -51 m 2
 421 -88 l 2
 421 -201 396 -299 328 -299 c 0
 267 -299 242 -248 244 -172 c 0
 248 -47 321 -25 378 -25 c 1
 377 -28 377 -33 377 -40 c 2
 377 -54 l 2
 377 -57 378 -62 379 -67 c 1
 338 -64 297 -87 292 -156 c 0
 289 -194 288 -255 329 -255 c 0xbfe0
 362 -255 371 -173 371 -101 c 0
 371 -33 395 133 291 133 c 0
 244 133 187 132 127 132 c 1
 127 175 l 1
 290 174 l 2
 417 173 421 27 421 -51 c 2
EndSplineSet
Validated: 37
Layer: 2
Layer: 3
Substitution2: "Single Substitution lookup 9 subtable" knsignvRR.following
EndChar

StartChar: knsignvL
Encoding: 3298 3298 263
Width: 0
Flags: MW
HStem: -412 34<-27.5 8.5 -27.5 16> -207 32 -97 30<-118 -90 6 32.5>
VStem: -212 32 -153 32 -112 22 -90 20 7 32 84 30
LayerCount: 4
Back
Fore
SplineSet
162 -196 m 0
 148 -346 48 -412 -16 -412 c 0
 -48 -412 -103 -396 -105 -335 c 0
 -108 -249 23 -269 49 -178 c 0
 67 -115 42 -97 23 -97 c 0
 -11 -97 -30 -157 -22 -205 c 1
 -64 -209 l 1
 -64 -177 -76 -97 -104 -97 c 0
 -132 -97 -140 -161 -124 -212 c 1
 -160 -216 l 1
 -168 -168 -169 -67 -107 -67 c 0
 -66 -67 -47 -128 -42 -175 c 1
 -45 -111 -18 -67 23 -67 c 0
 64 -67 100 -104 82 -181 c 0
 57 -285 -73 -257 -73 -334 c 0
 -73 -370 -37 -378 -18 -378 c 0
 35 -378 114 -334 129 -197 c 0
 130 -178 134 -118 129 -83 c 1
 136 -83 142 -83 145 -82 c 0
 153 -81 161 -80 162 -80 c 0
 167 -110 164 -173 162 -196 c 0
EndSplineSet
Validated: 33
Layer: 2
Layer: 3
EndChar

StartChar: knsignvLL
Encoding: 3299 3299 264
Width: 0
Flags: MW
HStem: -413 33<-97.5 -30.5 -97.5 -22 172 190> -276 26 -209 32 -116 30<114 160> -100 30<-188 -159.5 -64 -37.5>
VStem: -210 32 -151 33 -88 20 10 31 65 31 152 30 231 26
LayerCount: 4
Back
Fore
SplineSet
41 -226 m 0xeff0
 41 -138 81 -86 132 -86 c 0
 212 -86 233 -184 233 -296 c 0
 233 -364 222 -413 181 -413 c 0
 154 -413 128 -378 128 -339 c 0
 128 -259 187 -237 209 -256 c 0
 208 -258 208 -261 208 -265 c 0
 208 -270 206 -276 209 -280 c 1
 188 -268 158 -281 158 -330 c 0
 158 -353 162 -380 182 -380 c 0
 198 -380 207 -362 207 -302 c 0
 207 -186 188 -116 132 -116 c 0xf7f0
 96 -116 74 -165 72 -218 c 0
 71 -281 43 -413 -87 -413 c 0
 -118 -413 -175 -397 -175 -336 c 0
 -175 -249 -49 -273 -21 -180 c 0
 -2 -116 -28 -100 -47 -100 c 0
 -81 -100 -100 -159 -92 -207 c 1
 -133 -211 l 1
 -136 -180 -145 -100 -174 -100 c 0
 -202 -100 -210 -162 -194 -213 c 1
 -230 -218 l 1
 -238 -171 -238 -70 -176 -70 c 0
 -136 -70 -117 -132 -112 -177 c 1
 -115 -113 -88 -70 -47 -70 c 0
 -6 -70 31 -107 12 -183 c 0
 -12 -285 -142 -261 -142 -336 c 0
 -142 -371 -107 -380 -88 -380 c 0
 27 -380 41 -262 41 -226 c 0xeff0
EndSplineSet
Validated: 37
Layer: 2
Layer: 3
EndChar

StartChar: knsignE
Encoding: 3270 3270 265
Width: 0
Flags: MW
HStem: 545 47 749 43<-13.5 20.5>
VStem: -201 45 -60 46
LayerCount: 4
Back
Fore
SplineSet
101 678 m 0
 102 624 67 553 -19 545 c 0
 -31 545 -91 539 -101 537 c 1
 -102 592 l 1
 -83 589 -49 591 -32 593 c 0
 42 602 55 652 55 679 c 0
 56 715 40 749 1 749 c 0
 -28 749 -41 722 -41 697 c 0
 -41 686 -38 678 -31 673 c 1
 -39 664 -53 654 -62 646 c 1
 -73 655 -86 673 -86 701 c 0
 -86 736 -64 792 1 792 c 0
 65 792 101 741 101 678 c 0
EndSplineSet
Validated: 33
Layer: 2
Layer: 3
EndChar

StartChar: knsignEE
Encoding: 3271 3271 266
Width: 294
Flags: MW
HStem: 0 54<291.5 345 291.5 350> 260 43<272.5 296 271.5 322> 545 47 553 41 749 43<11 45.5>
VStem: -201 45 -60 46 39 44 180 52
LayerCount: 4
Back
Fore
SplineSet
320 413 m 0xef80
 320 529 287 556 255 553 c 0xdf80
 240 552 230 548 223 545 c 1
 218 310 257 303 286 303 c 0
 306 303 320 318 320 413 c 0xef80
345 54 m 1
 350 0 l 1
 203 0 179 117 179 216 c 2
 179 274 l 2
 179 315 174 423 173 568 c 1
 189 584 223 594 259 594 c 0
 343 594 372 523 372 428 c 0
 372 312 356 260 288 260 c 0
 257 260 228 286 223 304 c 1
 223 304 223 299 223 288 c 2
 223 282 l 1
 223 277 l 1
 223 270 l 2
 223 162 238 54 345 54 c 1
126 678 m 0
 126 624 92 553 6 545 c 0
 -7 545 -67 539 -77 537 c 1
 -78 592 l 1xef80
 -59 589 -25 591 -8 593 c 0
 66 602 79 652 80 679 c 0
 80 715 65 749 26 749 c 0
 -4 749 -17 722 -17 697 c 0
 -17 686 -14 678 -7 673 c 1
 -15 664 -29 654 -38 646 c 1
 -49 655 -62 673 -62 701 c 0
 -62 736 -40 792 26 792 c 0
 90 792 125 741 126 678 c 0
EndSplineSet
Validated: 33
Layer: 2
Layer: 3
EndChar

StartChar: knsignAI
Encoding: 3272 3272 267
Width: 125
Flags: MW
HStem: -421 48<33 113 31.5 122.5> -303 37<8.5 21> -141 44 -87 49<127 143 127 157.5> 545 47 749 43<-7.5 26.5>
VStem: -201 45 -194 44 -68 40 -60 46 46 50 57 43
LayerCount: 4
Back
Fore
SplineSet
107 678 m 0
 107 624 73 553 -13 545 c 0
 -25 545 -85 539 -95 537 c 1
 -96 592 l 1
 -77 589 -43 591 -26 593 c 0
 48 602 61 652 61 679 c 0
 62 715 46 749 7 749 c 0
 -22 749 -35 722 -35 697 c 0
 -35 686 -32 678 -25 673 c 1
 -33 664 -47 654 -56 646 c 1
 -67 655 -80 673 -80 701 c 0
 -80 736 -58 792 7 792 c 0
 71 792 106 741 107 678 c 0
10 -141 m 0
 -6 -144 -29 -147 -29 -178 c 0
 -29 -229 -13 -266 18 -266 c 0
 42 -266 53 -245 53 -209 c 0
 53 -164 45 -136 10 -141 c 0
217 -202 m 2
 217 -238 l 2
 217 -327 173 -421 72 -421 c 0
 -6 -421 -73 -370 -73 -277 c 2
 -73 -180 l 2
 -73 -107 -8 -97 13 -97 c 0
 95 -97 93 -166 93 -209 c 0
 93 -260 58 -302 21 -303 c 0
 -4 -303 -20 -296 -29 -272 c 1
 -29 -320 -7 -373 70 -373 c 0
 156 -373 167 -286 167 -242 c 2
 167 -187 l 2
 167 -139 162 -97 127 -86 c 1
 127 -37 l 1
 208 -61 217 -120 217 -202 c 2
127 -87 m 1
 124 -75 127 -53 127 -38 c 1
 159 -38 178 -5 178 27 c 0
 178 52 166 78 142 104 c 1
 153 115 160 126 171 137 c 1
 204 101 221 66 221 27 c 0
 221 -29 188 -87 127 -87 c 1
EndSplineSet
Validated: 37
Layer: 2
Layer: 3
EndChar

StartChar: knsignO
Encoding: 3274 3274 268
Width: 438
Flags: MW
HStem: -9 53<406.5 437.5> 0 44<166.5 203 166.5 224> 236 46 523 52<350 420> 545 47 749 43<13.5 47.5>
VStem: -201 45 -60 46 105 47 188 46 325 46
LayerCount: 4
Back
Fore
SplineSet
513 203 m 0x77e0
 513 85 501 -9 429 -9 c 0xafe0
 383 -9 330 60 330 128 c 0
 330 267 432 303 471 272 c 1
 469 257 l 2
 467 245 468 236 470 230 c 1
 435 251 376 223 376 136 c 0
 376 98 389 44 424 44 c 0
 451 44 467 91 467 192 c 0
 467 389 468 523 372 523 c 0
 328 523 294 454 294 362 c 0
 294 334 297 253 297 226 c 0
 297 135 272 0 176 0 c 0
 129 0 102 29 87 54 c 1
 114 96 l 1
 127 65 154 44 179 44 c 0
 227 44 247 113 247 225 c 0
 247 264 245 311 245 348 c 0
 245 501 298 575 371 575 c 0
 508 575 513 397 513 203 c 0x77e0
128 678 m 0
 128 624 94 553 8 545 c 0
 -4 545 -64 539 -74 537 c 1
 -75 592 l 1
 -56 589 -22 591 -5 593 c 0
 69 602 82 652 82 679 c 0
 83 715 67 749 28 749 c 0
 -1 749 -14 722 -14 697 c 0
 -14 686 -11 678 -4 673 c 1
 -12 664 -26 654 -35 646 c 1
 -46 655 -59 673 -59 701 c 0
 -59 736 -37 792 28 792 c 0
 92 792 127 741 128 678 c 0
EndSplineSet
Validated: 37
Layer: 2
Layer: 3
EndChar

StartChar: knsignOO
Encoding: 3275 3275 269
Width: 706
Flags: MW
HStem: -9 53<410.5 441.5> 0 44<170.5 207 170.5 228> 0 54<697.5 751> 236 46 260 43<678.5 702 677.5 728> 523 52<354 424> 545 47 553 41 749 43<17.5 51.5>
VStem: -201 45 -60 46 105 47 188 46 325 46 439 44 580 52
LayerCount: 4
Back
Fore
SplineSet
726 413 m 0x2aff
 726 529 693 556 661 553 c 0x31ff
 646 552 636 548 629 545 c 1
 624 310 663 303 692 303 c 0
 712 303 726 318 726 413 c 0x2aff
751 54 m 1
 756 0 l 1
 609 0 585 117 585 216 c 2
 585 274 l 2
 585 315 580 423 579 568 c 1
 595 584 629 594 665 594 c 0
 749 594 778 523 778 428 c 0
 778 312 762 260 694 260 c 0x49ff
 663 260 634 286 629 304 c 1
 629 304 629 299 629 288 c 2
 629 282 l 1
 629 277 l 1
 629 270 l 2
 629 162 644 54 751 54 c 1
517 203 m 0x34ff
 517 85 505 -9 433 -9 c 0
 387 -9 334 60 334 128 c 0
 334 267 436 303 475 272 c 1
 473 257 l 2
 471 245 472 236 474 230 c 1
 439 251 380 223 380 136 c 0
 380 98 393 44 428 44 c 0x92ff
 455 44 471 91 471 192 c 0
 471 389 472 523 376 523 c 0
 332 523 298 454 298 362 c 0
 298 334 301 253 301 226 c 0
 301 135 276 0 180 0 c 0
 133 0 106 29 91 54 c 1x34ff
 118 96 l 1
 131 65 158 44 183 44 c 0x54ff
 231 44 251 113 251 225 c 0
 251 264 249 311 249 348 c 0
 249 501 302 575 375 575 c 0
 512 575 517 397 517 203 c 0x34ff
132 678 m 0
 132 624 98 553 12 545 c 0
 -1 545 -61 539 -71 537 c 1
 -72 592 l 1
 -53 589 -19 591 -2 593 c 0
 72 602 85 652 86 679 c 0
 86 715 71 749 32 749 c 0
 3 749 -11 722 -11 697 c 0
 -11 686 -8 678 -1 673 c 1
 -9 664 -23 654 -32 646 c 1
 -43 655 -56 673 -56 701 c 0
 -56 736 -34 792 32 792 c 0
 96 792 131 741 132 678 c 0
EndSplineSet
Validated: 37
Layer: 2
Layer: 3
EndChar

StartChar: knsignAU
Encoding: 3276 3276 270
Width: 246
Flags: MW
HStem: 370 46<223.5 251.5 223.5 262.5> 541 51<-3.5 26 26 51 -79 59.5> 573 38 661 52<6 36 36 44.5>
VStem: -48 42 0 45 135 43
LayerCount: 4
Back
Fore
SplineSet
282 520 m 2xbe
 282 541 l 2xde
 282 544 282 549 281 554 c 2
 278 566 l 1
 243 585 192 565 192 498 c 0
 192 459 208 416 239 416 c 0
 264 416 282 444 282 520 c 2xbe
325 530 m 0
 325 417 286 370 239 370 c 0
 197 370 147 409 147 488 c 0
 147 604 237 623 274 605 c 1
 265 648 241 664 180 664 c 0
 164 664 146 666 130 663 c 1
 137 650 141 637 141 624 c 0
 141 560 82 541 37 541 c 0
 -44 541 6 538 -78 538 c 1
 -79 592 l 1
 26 592 l 2
 76 592 99 604 99 627 c 0
 97 658 68 661 21 661 c 0
 -9 661 -25 660 -44 660 c 1
 -42 695 l 2
 -41 701 -42 707 -41 713 c 1
 36 713 l 2
 84 713 140 714 177 714 c 0
 302 714 325 638 325 530 c 0
EndSplineSet
Validated: 33
Layer: 2
Layer: 3
EndChar

StartChar: knLengthmark
Encoding: 3285 3285 271
Width: 241
Flags: MW
HStem: -1 50 284 45<121.5 141.5 117 154> 555 38
VStem: 8 46 126 45
LayerCount: 4
Back
Fore
SplineSet
156 425 m 0
 156 520 148 555 116 552 c 0
 101 551 84 524 84 485 c 0
 83 339 103 329 131 329 c 0
 152 329 156 356 156 425 c 0
200 0 m 1
 52 0 37 109 34 217 c 0
 32 296 33 396 33 475 c 0
 33 559 79 593 113 593 c 0
 187 593 206 550 206 438 c 0
 206 321 176 284 132 284 c 0
 111 284 88 301 83 314 c 1
 84 212 l 2
 85 105 115 49 199 49 c 1
 200 37 199 13 200 0 c 1
EndSplineSet
Validated: 33
Layer: 2
Layer: 3
EndChar

StartChar: knAIlengthmark
Encoding: 3286 3286 272
Width: 136
GlyphClass: 4
Flags: MW
HStem: -421 48<27 107 25.5 116.5> -303 37<2.5 15> -141 44 -87 49<121 137 121 151.5>
VStem: -194 44 -68 40 46 50 57 43
LayerCount: 4
Back
Fore
SplineSet
4 -141 m 0
 -12 -144 -35 -147 -35 -178 c 0
 -35 -229 -19 -266 12 -266 c 0
 36 -266 47 -245 47 -209 c 0
 47 -164 39 -136 4 -141 c 0
211 -202 m 2
 211 -238 l 2
 211 -327 167 -421 66 -421 c 0
 -12 -421 -79 -370 -79 -277 c 2
 -79 -180 l 2
 -79 -107 -14 -97 7 -97 c 0
 89 -97 87 -166 87 -209 c 0
 87 -260 52 -302 15 -303 c 0
 -10 -303 -26 -296 -35 -272 c 1
 -35 -320 -13 -373 64 -373 c 0
 150 -373 161 -286 161 -242 c 2
 161 -187 l 2
 161 -139 156 -97 121 -86 c 1
 121 -37 l 1
 202 -61 211 -120 211 -202 c 2
121 -87 m 1
 118 -75 121 -53 121 -38 c 1
 153 -38 172 -5 172 27 c 0
 172 52 160 78 136 104 c 1
 147 115 154 126 165 137 c 1
 198 101 215 66 215 27 c 0
 215 -29 182 -87 121 -87 c 1
EndSplineSet
Validated: 37
Layer: 2
Layer: 3
Substitution2: "Single Substitution lookup 9 subtable" knAIlengthmark.following
EndChar

StartChar: knKA
Encoding: 3221 3221 273
Width: 454
Flags: MW
HStem: 0 44<182.5 244 182.5 265> 412 43 546 44
VStem: 61 52 168 55 287 52
LayerCount: 4
Back
Fore
SplineSet
378 462 m 1
 377 406 l 1
 328 414 120 414 44 406 c 1
 42 458 l 1
 84 454 316 454 378 462 c 1
298 218 m 0
 298 367 262 401 205 401 c 0
 136 401 124 328 124 229 c 0
 124 93 145 44 220 44 c 0
 268 44 298 101 298 218 c 0
350 193 m 0
 350 107 320 0 210 0 c 0
 113 0 72 75 72 220 c 0
 72 362 102 444 213 444 c 0
 333 444 350 329 350 193 c 0
424 672 m 1
 424 622 397 548 291 546 c 0
 259 545 73 542 31 541 c 1
 31 590 l 1
 105 590 243 592 288 595 c 0
 343 598 374 626 371 666 c 1
 380 667 403 667 424 672 c 1
232 551 m 1
 237 411 l 1
 185 411 l 1
 181 550 l 1
 232 551 l 1
EndSplineSet
Validated: 37
Layer: 2
Layer: 3
EndChar

StartChar: knKHA
Encoding: 3222 3222 274
Width: 516
Flags: MW
HStem: 0 47<333.5 374.5 333.5 384> 0 52<138.5 180.5 138.5 224> 192 48 314 50 545 50
VStem: 2 51 185 35 235 51 366 63
LayerCount: 4
Back
Fore
SplineSet
458 226 m 0xbf80
 455 86 418 0 350 0 c 0
 305 0 281 31 264 63 c 1
 294 110 l 1
 298 81 319 47 348 47 c 0
 401 47 408 196 408 226 c 2
 408 226 408 238 408 262 c 0
 408 299 409 350 409 406 c 2
 409 484 l 2
 409 532 408 570 408 579 c 1
 467 594 l 1
 467 559 l 2
 467 470 459 263 458 226 c 0xbf80
236 115 m 0
 236 148 190 197 150 192 c 0
 125 189 97 159 97 123 c 0
 97 91 114 52 163 52 c 0x7f80
 198 52 236 85 236 115 c 0
263 162 m 1
 274 197 276 257 276 312 c 0
 276 352 278 426 263 494 c 1
 271 375 221 320 182 320 c 0
 151 320 94 337 94 458 c 0
 94 506 122 594 203 594 c 0
 283 594 331 476 329 316 c 0
 326 155 285 0 163 0 c 0
 80 0 45 68 45 115 c 0
 45 187 93 240 152 240 c 0
 213 240 258 189 263 162 c 1
225 531 m 1
 216 536 213 543 198 543 c 0
 154 543 145 485 145 457 c 0
 145 389 159 369 183 369 c 0
 210 369 234 422 225 531 c 1
EndSplineSet
Validated: 37
Layer: 2
Layer: 3
EndChar

StartChar: knGA
Encoding: 3223 3223 275
Width: 415
Flags: MW
HStem: -8 21G<30 30> -5 21G<264 264> -2 21G<95 95> 0 21G<329 329> 546 44
VStem: 19 55 253 65
LayerCount: 4
Back
Fore
SplineSet
404 672 m 1x1e
 404 622 377 548 271 546 c 0
 240 545 55 540 12 536 c 1
 11 590 l 1
 86 590 223 592 268 595 c 0
 324 598 354 626 351 666 c 1
 360 667 383 667 404 672 c 1x1e
329 0 m 1
 264 -5 l 1x4e
 261 138 270 280 259 421 c 0
 252 501 228 537 172 537 c 0
 106 537 85 506 85 410 c 0
 85 325 87 167 95 -2 c 1x2e
 30 -8 l 1x8e
 30 413 l 2
 30 548 108 592 170 592 c 0
 236 592 309 553 318 430 c 0
 325 334 318 225 329 0 c 1
EndSplineSet
Validated: 37
Layer: 2
Layer: 3
EndChar

StartChar: knGHA
Encoding: 3224 3224 276
Width: 574
Flags: MW
HStem: -135 102 0 59<305 344 305 363> 247 56<143.5 149> 421 36 547 22
VStem: 9 53 174 44 210 45 363 55 475 46
LayerCount: 4
Back
Fore
SplineSet
485 496 m 1xfec0
 503 500 520 505 538 509 c 1
 559 405 542 352 491 340 c 0
 455 331 409 355 385 398 c 1
 431 420 l 1
 436 397 455 378 480 385 c 0
 508 393 506 450 485 496 c 1xfec0
249 -131 m 1
 200 -138 l 1
 200 -138 200 -131 200 -116 c 0
 200 -89 198 -47 196 -31 c 1
 198 -32 203 -32 210 -32 c 2xfdc0
 226 -32 l 1
 235 -32 l 2
 238 -32 241 -32 244 -31 c 2
 244 -52 l 2
 244 -79 246 -124 249 -131 c 1
444 226 m 0
 450 110 406 0 320 0 c 0
 290 0 233 31 222 131 c 1
 217 67 199 0 137 0 c 0
 92 0 35 31 35 139 c 2
 35 156 l 2
 35 199 50 303 149 303 c 1
 149 247 l 1
 138 247 88 247 88 137 c 0
 88 92 100 60 131 60 c 0
 166 60 188 107 188 227 c 2
 188 228 l 1
 251 227 l 1
 251 136 289 59 321 59 c 0
 367 59 397 125 389 225 c 0
 376 375 375 381 362 465 c 1
 426 481 l 1
 434 382 437 352 444 226 c 0
241 560 m 1
 286 560 l 1
 286 477 276 388 201 388 c 0
 131 388 115 464 115 563 c 1
 161 563 l 1
 161 512 160 424 200 424 c 0
 236 424 242 486 241 560 c 1
454 673 m 1
 454 623 427 549 321 547 c 0
 288 546 71 536 47 536 c 1
 46 591 l 1
 82 591 275 595 318 596 c 0
 374 598 404 627 401 667 c 1
 410 668 433 668 454 673 c 1
EndSplineSet
Validated: 37
Layer: 2
Layer: 3
EndChar

StartChar: knNGA
Encoding: 3225 3225 277
Width: 513
Flags: MW
HStem: 0 57<325.5 370 323.5 406> 368 111<340 356> 536 57<325.5 375.5> 543 53<147.5 182>
VStem: 0 52 182 56 284 57 353 56 388 53
LayerCount: 4
Back
Fore
SplineSet
371 231 m 1xde80
 433 239 l 1
 454 148 460 0 352 0 c 0
 299 0 259 57 254 132 c 1
 241 15 196 0 168 0 c 0
 96 0 36 100 36 170 c 0
 36 413 218 375 218 477 c 0
 218 521 200 543 164 543 c 0
 131 543 115 515 115 483 c 1
 115 483 112 483 106 482 c 0
 91 480 60 477 59 477 c 0
 56 528 81 596 167 596 c 0
 219 596 271 563 274 478 c 0
 278 338 91 385 88 173 c 0
 87 122 123 58 164 58 c 0
 200 58 222 166 219 227 c 1
 283 227 l 1
 286 174 298 57 349 57 c 0
 391 57 403 142 371 231 c 1xde80
377 424 m 0
 377 397 364 368 348 368 c 0
 332 368 320 397 320 424 c 0
 320 449 332 479 348 479 c 0
 364 479 377 449 377 424 c 0
477 425 m 1
 424 414 l 1
 419 473 398 536 353 536 c 0xef
 298 536 274 479 274 463 c 1
 229 447 l 1
 229 490 252 593 349 593 c 0xee80
 450 593 474 477 477 425 c 1
EndSplineSet
Validated: 37
Layer: 2
Layer: 3
EndChar

StartChar: knCA
Encoding: 3226 3226 278
Width: 504
Flags: MW
HStem: 0 55<103 135.5 303.5 341.5> 386 18 405 28 538 8 542 53<105 140.5>
VStem: 4 53 159 53 315 53 428 49
LayerCount: 4
Back
Fore
SplineSet
428 206 m 0xf780
 428 94 406 0 330 0 c 0
 277 0 233 57 228 132 c 1
 215 15 149 0 122 0 c 0
 48 0 -2 100 22 184 c 0
 65 336 159 383 171 469 c 0
 176 512 158 542 123 542 c 0
 87 542 75 504 75 439 c 1
 70 439 28 436 21 436 c 1
 21 520 37 595 126 595 c 0xef80
 172 595 231 562 224 476 c 0
 214 371 110 299 76 185 c 0
 54 116 83 55 123 55 c 0
 171 55 192 132 189 228 c 1
 252 228 l 1
 255 175 274 55 324 55 c 0
 359 55 372 126 372 210 c 0
 371 273 358 343 330 404 c 1
 382 406 l 1
 413 343 428 273 428 206 c 0xf780
438 435 m 1
 442 388 l 1
 290 385 l 1
 287 434 l 1
 380 434 l 1
 417 434 l 2
 424 434 431 434 438 435 c 1
377 548 m 1
 384 407 l 1
 330 404 l 1
 325 545 l 1
 377 548 l 1
489 670 m 1
 489 619 484 555 378 544 c 0
 368 544 295 542 284 542 c 1
 283 590 l 1
 293 590 359 592 375 593 c 0
 433 597 440 622 440 662 c 1
 449 663 468 665 489 670 c 1
EndSplineSet
Validated: 37
Layer: 2
Layer: 3
EndChar

StartChar: knCHA
Encoding: 3227 3227 279
Width: 528
Flags: MW
HStem: -135 102 -2 58<106.5 164.5 106.5 167.5> -1 60<317 354.5 307.5 372> 348 53 537 45<317 334.5> 541 54
VStem: 1 55 57 29 194 44 376 56
LayerCount: 4
Back
Fore
SplineSet
195 458 m 0xb7c0
 195 486 186 544 142 544 c 0
 127 544 124 537 115 532 c 1
 106 423 130 370 157 370 c 0
 181 370 195 390 195 458 c 0xb7c0
260 -131 m 1
 211 -138 l 1
 211 -138 211 -131 211 -116 c 0
 211 -89 209 -47 207 -31 c 1
 209 -32 214 -32 221 -32 c 2
 237 -32 l 1
 246 -32 l 2
 249 -32 252 -32 255 -31 c 2
 255 -52 l 2
 255 -79 257 -124 260 -131 c 1
449 410 m 2
 449 239 l 2
 449 124 417 -1 327 -1 c 0
 307 -1 240 32 237 132 c 1
 234 68 198 -2 137 -2 c 0xbbc0
 35 -2 18 158 18 255 c 0
 17 415 20 595 137 595 c 0
 218 595 246 507 246 459 c 0
 246 338 189 321 158 321 c 0
 119 321 71 364 79 483 c 1
 72 427 73 298 73 258 c 0
 73 197 76 56 137 56 c 0
 192 56 203 164 200 227 c 1
 262 227 l 1
 262 179 282 59 333 59 c 0xd7c0
 376 59 393 147 393 236 c 2
 393 425 l 2
 393 527 352 537 317 537 c 1
 317 582 l 1
 449 582 449 454 449 410 c 2
511 671 m 1
 511 620 485 553 378 545 c 0
 344 542 351 538 299 535 c 1
 298 589 l 1
 330 589 343 590 375 594 c 0
 436 602 461 625 458 665 c 1
 467 666 490 666 511 671 c 1
EndSplineSet
Validated: 37
Layer: 2
Layer: 3
EndChar

StartChar: knJA
Encoding: 3228 3228 280
Width: 522
Flags: MW
HStem: 0 57<345.5 390 343.5 426> 382 52 543 53<167.5 202>
VStem: 0 52 23 56 182 56 183 64 353 56
LayerCount: 4
Back
Fore
SplineSet
391 231 m 1xf3
 453 239 l 1
 474 148 480 0 372 0 c 0
 319 0 279 57 274 132 c 1
 261 15 216 0 188 0 c 0
 116 0 56 100 56 170 c 0
 56 413 238 375 238 477 c 0xf5
 238 521 220 543 184 543 c 0
 151 543 135 515 135 483 c 1
 135 483 132 483 126 482 c 0
 111 480 80 477 79 477 c 0xeb
 76 528 101 596 187 596 c 0
 239 596 292 563 294 478 c 0
 299 338 112 385 108 173 c 0
 108 122 143 58 184 58 c 0
 220 58 242 166 239 227 c 1
 303 227 l 1
 306 174 318 57 369 57 c 0
 411 57 423 142 391 231 c 1xf3
360 591 m 1
 422 597 l 1
 446 502 435 386 345 382 c 0
 257 378 244 494 244 504 c 1
 289 504 l 1
 292 491 304 434 341 434 c 0
 392 434 374 531 360 591 c 1
EndSplineSet
Validated: 37
Layer: 2
Layer: 3
EndChar

StartChar: knJHA
Encoding: 3229 3229 281
Width: 729
Flags: MW
HStem: -119 102 0 47<185 249 185 275 376.5 417.5 530.5 571.5> 546 44
VStem: 11 52 237 52 385 44 392 63 546 63
LayerCount: 4
Back
Fore
SplineSet
660 227 m 0xfd
 657 87 615 0 547 0 c 0
 502 0 480 27 463 59 c 1
 491 110 l 1
 495 81 516 47 545 47 c 0
 598 47 605 196 605 226 c 2
 605 262 l 2
 605 299 606 350 606 406 c 2
 606 484 l 2
 606 532 605 570 605 579 c 1
 669 595 l 1
 669 560 l 2
 669 471 661 264 660 227 c 0xfd
494 -115 m 1
 445 -122 l 1
 445 -100 l 2
 445 -73 443 -31 441 -15 c 1
 443 -16 448 -16 455 -16 c 2xfb
 471 -16 l 1
 480 -16 l 2
 483 -16 486 -16 489 -15 c 2
 489 -36 l 2
 489 -63 491 -108 494 -115 c 1
506 227 m 0
 503 87 461 0 393 0 c 0
 348 0 326 27 309 59 c 1
 337 110 l 1
 341 81 362 47 391 47 c 0
 444 47 451 196 451 226 c 2
 451 226 451 238 451 262 c 0
 451 299 452 350 452 406 c 2
 452 484 l 2
 452 532 451 570 451 579 c 1
 515 595 l 1
 515 560 l 2
 515 471 507 264 506 227 c 0
297 290 m 0
 297 499 261 542 205 542 c 0
 136 542 123 472 123 301 c 0
 123 112 149 47 221 47 c 0
 277 47 297 110 297 290 c 0
349 263 m 0
 349 116 338 0 212 0 c 0
 115 0 71 85 71 291 c 0
 71 507 101 588 212 588 c 0
 332 588 349 468 349 263 c 0
415 671 m 1
 415 620 397 548 290 546 c 0
 258 545 103 539 61 536 c 1
 60 590 l 1
 135 590 244 592 287 595 c 0
 343 598 365 625 362 665 c 1
 371 666 394 666 415 671 c 1
EndSplineSet
Validated: 37
Layer: 2
Layer: 3
EndChar

StartChar: knNYA
Encoding: 3230 3230 282
Width: 600
Flags: MW
HStem: -2 21G<385 385> 1 59 178 51<160.5 216> 536 57 543 52<103.5 148 304.5 339>
VStem: 3 54 150 32 336 54 485 50
LayerCount: 4
Back
Fore
SplineSet
442 7 m 1x6f80
 385 -2 l 1xb780
 329 141 243 178 189 178 c 0
 132 178 96 141 96 117 c 0
 96 65 152 53 184 53 c 0
 240 53 366 77 366 368 c 0
 366 531 353 543 325 543 c 0
 284 543 244 429 244 357 c 1
 180 350 l 1
 177 403 170 543 126 543 c 0
 81 543 82 422 96 346 c 1
 39 338 l 1
 26 421 27 595 123 595 c 0
 184 595 207 502 212 415 c 1
 220 523 268 595 325 595 c 0
 392 595 420 541 420 376 c 0
 420 82 290 0 187 0 c 0
 112 0 50 47 50 112 c 0
 49 175 103 229 187 229 c 0
 291 229 378 148 442 7 c 1x6f80
565 393 m 1
 557 393 531 394 520 392 c 1
 520 436 518 537 469 537 c 0
 430 537 417 491 417 456 c 1
 369 472 l 1
 373 483 391 593 474 593 c 0
 552 593 576 478 565 393 c 1
EndSplineSet
Validated: 37
Layer: 2
Layer: 3
EndChar

StartChar: knTTA
Encoding: 3231 3231 283
Width: 484
Flags: MW
HStem: -1 60<329.5 360.5 316 385> 0 56<113 166> 239 57 370 42<331 331> 425 55
VStem: 2 53 63 38 192 49 362 60
LayerCount: 4
Back
Fore
SplineSet
167 623 m 1xbf80
 171 585 l 1
 146 574 142 547 142 524 c 0
 142 497 149 443 168 438 c 1
 139 420 l 2
 128 417 95 465 98 533 c 0
 101 586 122 620 167 623 c 1xbf80
441 494 m 0
 439 380 353 364 331 370 c 1
 331 412 l 1
 374 420 392 449 393 490 c 0
 394 533 370 554 339 561 c 1
 339 604 l 1
 380 604 442 568 441 494 c 0
203 363 m 0
 204 382 200 427 159 426 c 0
 138 425 130 409 126 383 c 0
 122 301 148 284 172 284 c 0
 191 284 201 312 203 363 c 0
340 -1 m 0
 319 -1 245 32 242 132 c 1
 239 67 197 0 135 0 c 0
 56 0 30 103 32 199 c 0
 36 362 52 479 152 479 c 0
 233 479 256 411 252 366 c 0
 242 243 189 243 164 244 c 0
 137 245 93 270 91 338 c 1
 90 306 86 272 85 203 c 0
 85 140 87 56 139 56 c 0x7f80
 195 56 203 158 204 220 c 1
 267 221 l 1
 267 146 295 59 337 59 c 0
 384 59 397 108 397 197 c 2
 397 260 l 2
 397 362 347 366 331 369 c 1
 331 412 l 1
 451 412 449 282 452 250 c 2
 452 206 l 2
 452 92 430 -1 340 -1 c 0
EndSplineSet
Validated: 37
Layer: 2
Layer: 3
EndChar

StartChar: knTTHA
Encoding: 3232 3232 284
Width: 387
Flags: MW
HStem: 0 47<137 201 137 221> 223 131<149 172.5> 546 44
VStem: 11 52 121 57 237 52
LayerCount: 4
Back
Fore
SplineSet
133 289 m 0
 133 314 134 354 161 354 c 0
 186 354 190 314 190 289 c 0
 190 262 184 223 161 223 c 0
 137 223 133 262 133 289 c 0
375 672 m 1
 375 622 348 548 242 546 c 0
 210 545 55 539 13 536 c 1
 12 590 l 1
 87 590 196 592 239 595 c 0
 295 598 325 626 322 666 c 1
 331 667 354 667 375 672 c 1
249 290 m 0
 249 499 213 542 157 542 c 0
 88 542 75 472 75 301 c 0
 75 112 101 47 173 47 c 0
 229 47 249 110 249 290 c 0
301 263 m 0
 301 116 284 0 158 0 c 0
 61 0 23 85 23 291 c 0
 23 507 53 588 164 588 c 0
 284 588 301 468 301 263 c 0
EndSplineSet
Validated: 37
Layer: 2
Layer: 3
EndChar

StartChar: knDDA
Encoding: 3233 3233 285
Width: 572
Flags: MW
HStem: 0 59<145 186 145 187> 192 46 330 42 545 44
VStem: 0 54 192 64 259 42 424 44
LayerCount: 4
Back
Fore
SplineSet
537 671 m 1
 537 621 510 547 404 545 c 0
 371 544 88 539 45 535 c 1
 44 589 l 1
 44 589 61 589 94 589 c 0
 192 589 364 591 401 594 c 0
 456 598 487 625 484 665 c 1
 493 666 516 666 537 671 c 1
456 189 m 0
 471 296 438 322 395 330 c 0
 368 335 337 317 337 292 c 0
 337 240 427 214 452 267 c 0
 459 284 463 314 452 365 c 0
 430 458 382 542 283 542 c 0
 163 542 90 452 90 271 c 0
 89 126 130 59 160 59 c 0
 212 59 225 136 228 228 c 1
 292 228 l 1
 299 108 328 59 376 59 c 0
 415 59 443 108 456 189 c 0
504 174 m 0
 489 74 433 1 376 1 c 0
 341 1 277 40 266 132 c 1
 255 48 215 0 159 0 c 0
 87 0 36 97 36 276 c 0
 36 461 125 591 279 591 c 0
 396 591 475 493 497 384 c 0
 512 303 499 257 482 230 c 0
 436 160 295 191 295 286 c 0
 295 329 327 380 397 372 c 0
 440 367 526 326 504 174 c 0
EndSplineSet
Validated: 37
Layer: 2
Layer: 3
EndChar

StartChar: knDDHA
Encoding: 3234 3234 286
Width: 572
Flags: MW
HStem: 0 59<145 186 145 187> 192 46 328 42 545 44
VStem: 0 54 192 64 259 42 414 44 415 47
LayerCount: 4
Back
Fore
SplineSet
246 -138 m 1
 295 -131 l 1
 292 -124 290 -79 290 -52 c 2
 290 -31 l 2
 287 -32 284 -32 281 -32 c 2
 272 -32 l 1
 256 -32 l 2
 249 -32 244 -32 242 -31 c 1
 244 -47 246 -89 246 -116 c 2
 246 -138 l 1
537 671 m 1
 537 621 510 547 404 545 c 0
 371 544 88 539 45 535 c 1
 44 589 l 1
 44 589 61 589 94 589 c 0
 192 589 364 591 401 594 c 0
 456 598 487 625 484 665 c 1
 493 666 516 666 537 671 c 1
446 189 m 0
 461 297 438 320 395 328 c 0
 368 333 337 317 337 292 c 0
 337 240 417 214 442 267 c 0
 449 284 453 314 442 365 c 0
 420 458 382 542 283 542 c 0
 163 542 90 452 90 271 c 0
 89 126 130 59 160 59 c 0
 212 59 225 136 228 228 c 1
 292 228 l 1
 299 108 328 59 376 59 c 0
 415 59 434 108 446 189 c 0
494 174 m 0
 479 74 433 1 376 1 c 0
 341 1 277 40 266 132 c 1
 255 48 215 0 159 0 c 0
 87 0 36 97 36 276 c 0
 36 461 125 591 279 591 c 0
 395 591 465 493 487 384 c 0
 502 303 489 257 472 230 c 0
 427 161 295 191 295 286 c 0
 295 328 327 378 397 370 c 0
 440 365 516 326 494 174 c 0
EndSplineSet
Validated: 37
Layer: 2
Layer: 3
EndChar

StartChar: knNNA
Encoding: 3235 3235 287
Width: 460
Flags: MW
HStem: 0 53<135.5 154 135.5 155 277.5 306> 231 55<144.5 166> 540 53<288 342.5>
VStem: -1 55 5 49 88 42 159 34 161 52 292 37 329 60
LayerCount: 4
Back
Fore
SplineSet
249 154 m 0
 249 110 258 53 297 53 c 0
 315 53 324 65 326 72 c 2
 328 76 l 1
 333 180 326 231 299 231 c 0
 263 231 249 201 249 154 c 0
155 0 m 1
 110 0 41 31 41 144 c 0
 41 208 86 252 124 260 c 1
 77 265 35 346 35 422 c 0
 35 520 72 592 146 592 c 0
 186 592 221 564 229 464 c 1
 229 530 248 593 315 593 c 0
 422 593 428 456 425 328 c 0
 420 163 394 0 303 0 c 0
 214 0 197 90 197 150 c 0
 197 270 264 287 300 286 c 0
 351 284 365 232 365 181 c 2
 365 329 l 2
 365 425 376 540 309 540 c 0
 267 540 261 447 258 392 c 1
 195 393 l 1
 195 464 188 540 146 540 c 0
 109 540 90 500 90 421 c 0
 90 351 114 286 167 286 c 1
 166 231 l 1
 123 231 90 192 90 145 c 0
 90 93 117 53 154 53 c 1
 154 38 152 15 155 0 c 1
EndSplineSet
Validated: 33
Layer: 2
Layer: 3
EndChar

StartChar: knTA
Encoding: 3236 3236 288
Width: 459
Flags: MW
HStem: 0 58<171.5 216.5 171.5 247.5> 268 44<144.5 197.5 144.5 219.5> 414 43<159.5 237.5> 538 54<23 44>
VStem: 12 52 30 54 233 55
LayerCount: 4
Back
Fore
SplineSet
438 673 m 1xfa
 438 623 411 549 305 547 c 0
 273 546 65 538 23 538 c 1
 22 592 l 1
 22 592 45 592 90 592 c 0
 170 592 269 594 302 596 c 0
 357 599 388 627 385 667 c 1
 394 668 417 668 438 673 c 1xfa
48 357 m 0
 48 410 95 457 184 457 c 0
 320 457 359 353 359 245 c 0
 359 89 304 0 191 0 c 0
 135 0 30 37 30 199 c 1xf6
 82 196 l 1
 82 85 150 58 193 58 c 0
 240 58 306 85 306 248 c 0
 306 328 291 414 184 414 c 0
 135 414 102 394 102 357 c 0
 102 330 119 312 170 312 c 0
 225 312 251 337 251 468 c 2
 251 558 l 1
 306 558 l 1
 306 471 l 2
 306 346 269 268 170 268 c 0
 90 268 48 301 48 357 c 0
EndSplineSet
Validated: 37
Layer: 2
Layer: 3
EndChar

StartChar: knTHA
Encoding: 3237 3237 289
Width: 491
Flags: MW
HStem: 0 61<102.5 156.5 102.5 162> 546 44
VStem: 4 55 172 63 352 55
LayerCount: 4
Back
Fore
SplineSet
470 672 m 1
 470 621 446 548 339 546 c 0
 305 545 45 541 28 541 c 1
 28 590 l 1
 101 590 292 592 334 595 c 0
 390 598 420 626 417 666 c 1
 426 667 449 667 470 672 c 1
425 266 m 0
 425 119 412 0 312 0 c 0
 276 0 232 39 224 131 c 1
 220 38 186 0 138 0 c 0
 51 0 20 71 22 291 c 0
 23 434 64 592 234 592 c 0
 410 592 425 406 425 266 c 0
370 290 m 0
 370 394 364 543 232 543 c 0
 116 543 78 395 77 303 c 0
 75 155 71 61 134 61 c 0
 179 61 190 138 190 228 c 1
 253 228 l 1
 256 136 282 57 313 59 c 0
 365 63 370 110 370 290 c 0
208 -138 m 1
 257 -131 l 1
 254 -124 252 -79 252 -52 c 2
 252 -31 l 1
 248 -31 238 -32 227 -32 c 2
 212 -32 l 2
 208 -32 205 -32 204 -31 c 1
 207 -52 208 -120 208 -138 c 1
251 327 m 0
 251 352 247 392 222 392 c 0
 195 392 194 352 194 327 c 0
 194 300 198 261 222 261 c 0
 245 261 251 300 251 327 c 0
EndSplineSet
Validated: 37
Layer: 2
Layer: 3
EndChar

StartChar: knDA
Encoding: 3238 3238 290
Width: 491
Flags: MW
HStem: 0 61<102.5 156.5 102.5 162> 546 44
VStem: 4 55 172 63 352 55
LayerCount: 4
Back
Fore
SplineSet
470 672 m 1
 470 621 446 548 339 546 c 0
 305 545 45 541 28 541 c 1
 28 590 l 1
 101 590 292 592 334 595 c 0
 390 598 420 626 417 666 c 1
 426 667 449 667 470 672 c 1
425 266 m 0
 425 119 412 0 312 0 c 0
 276 0 232 39 224 131 c 1
 220 38 186 0 138 0 c 0
 51 0 20 71 22 291 c 0
 23 434 64 592 234 592 c 0
 410 592 425 406 425 266 c 0
370 290 m 0
 370 394 364 543 232 543 c 0
 116 543 78 395 77 303 c 0
 75 155 71 61 134 61 c 0
 179 61 190 138 190 228 c 1
 253 228 l 1
 256 136 282 57 313 59 c 0
 365 63 370 110 370 290 c 0
EndSplineSet
Validated: 37
Layer: 2
Layer: 3
EndChar

StartChar: knDHA
Encoding: 3239 3239 291
Width: 491
Flags: MW
HStem: 0 61<102.5 156.5 102.5 162> 546 44
VStem: 4 55 172 63 352 55
LayerCount: 4
Back
Fore
SplineSet
470 672 m 1
 470 621 446 548 339 546 c 0
 305 545 45 541 28 541 c 1
 28 590 l 1
 101 590 292 592 334 595 c 0
 390 598 420 626 417 666 c 1
 426 667 449 667 470 672 c 1
425 266 m 0
 425 119 412 0 312 0 c 0
 276 0 232 39 224 131 c 1
 220 38 186 0 138 0 c 0
 51 0 20 71 22 291 c 0
 23 434 64 592 234 592 c 0
 410 592 425 406 425 266 c 0
370 290 m 0
 370 394 364 543 232 543 c 0
 116 543 78 395 77 303 c 0
 75 155 71 61 134 61 c 0
 179 61 190 138 190 228 c 1
 253 228 l 1
 256 136 282 57 313 59 c 0
 365 63 370 110 370 290 c 0
208 -138 m 1
 257 -131 l 1
 254 -124 252 -79 252 -52 c 2
 252 -31 l 1
 248 -31 238 -32 227 -32 c 2
 212 -32 l 2
 208 -32 205 -32 204 -31 c 1
 207 -52 208 -120 208 -138 c 1
EndSplineSet
Validated: 37
Layer: 2
Layer: 3
EndChar

StartChar: knNA
Encoding: 3240 3240 292
Width: 476
Flags: MW
HStem: -5 21G<50 50> 1 57<228.5 303 228.5 324.5> 221 52<92.5 169.5> 546 44
VStem: 10 52 162 39 336 56
LayerCount: 4
Back
Fore
SplineSet
409 291 m 0x7e
 409 111 379 1 270 1 c 0x7e
 135 1 214 221 125 221 c 0
 60 221 70 74 113 2 c 1
 50 -5 l 1xbe
 19 58 -1 273 123 273 c 0
 267 273 186 58 271 58 c 0
 335 58 353 150 353 295 c 0
 353 372 336 546 181 543 c 1
 183 543 179 589 181 591 c 0
 373 595 409 405 409 291 c 0x7e
449 672 m 1
 449 622 422 548 316 546 c 0
 284 545 92 540 48 536 c 1
 47 590 l 1
 114 590 l 1
 192 592 l 2
 244 593 292 594 313 595 c 0
 369 598 403 624 400 664 c 1
 409 665 428 667 449 672 c 1
EndSplineSet
Validated: 37
Layer: 2
Layer: 3
EndChar

StartChar: knPA
Encoding: 3242 3242 293
Width: 509
Flags: MW
HStem: 0 59<324 363 324 382> 247 56<162.5 168> 421 36 547 22
VStem: 9 53 57 46 162 63 210 45 363 55
LayerCount: 4
Back
Fore
SplineSet
463 226 m 0
 469 110 425 0 339 0 c 0
 309 0 252 31 241 131 c 1
 236 67 218 0 156 0 c 0
 111 0 54 31 54 139 c 2
 54 156 l 2
 54 199 69 303 168 303 c 1
 168 247 l 1
 157 247 107 247 107 137 c 0
 107 92 119 60 150 60 c 0
 185 60 207 107 207 227 c 2
 207 228 l 1
 270 227 l 1
 270 136 308 59 340 59 c 0
 386 59 416 125 408 225 c 0
 395 375 394 381 381 465 c 1
 445 481 l 1
 453 382 456 352 463 226 c 0
241 560 m 1
 286 560 l 1
 286 477 276 388 201 388 c 0
 131 388 115 464 115 563 c 1
 161 563 l 1
 161 512 160 424 200 424 c 0
 236 424 242 486 241 560 c 1
454 673 m 1
 454 623 427 549 321 547 c 0
 288 546 71 536 47 536 c 1
 46 591 l 1
 82 591 275 595 318 596 c 0
 374 598 404 627 401 667 c 1
 410 668 433 668 454 673 c 1
EndSplineSet
Validated: 37
Layer: 2
Layer: 3
EndChar

StartChar: knPHA
Encoding: 3243 3243 294
Width: 509
Flags: MW
HStem: -135 102 0 59<324 363 324 382> 247 56<162.5 168> 421 36 547 22
VStem: 9 53 57 46 162 63 174 44 210 45 363 55
LayerCount: 4
Back
Fore
SplineSet
268 -131 m 1
 219 -138 l 1
 219 -138 219 -131 219 -116 c 0
 219 -89 217 -47 215 -31 c 1
 217 -32 222 -32 229 -32 c 2
 245 -32 l 1
 254 -32 l 2
 257 -32 260 -32 263 -31 c 2
 263 -52 l 2
 263 -79 265 -124 268 -131 c 1
463 226 m 0
 469 110 425 0 339 0 c 0
 309 0 252 31 241 131 c 1
 236 67 218 0 156 0 c 0
 111 0 54 31 54 139 c 2
 54 156 l 2
 54 199 69 303 168 303 c 1
 168 247 l 1
 157 247 107 247 107 137 c 0
 107 92 119 60 150 60 c 0
 185 60 207 107 207 227 c 2
 207 228 l 1
 270 227 l 1
 270 136 308 59 340 59 c 0
 386 59 416 125 408 225 c 0
 395 375 394 381 381 465 c 1
 445 481 l 1
 453 382 456 352 463 226 c 0
241 560 m 1
 286 560 l 1
 286 477 276 388 201 388 c 0
 131 388 115 464 115 563 c 1
 161 563 l 1
 161 512 160 424 200 424 c 0
 236 424 242 486 241 560 c 1
454 673 m 1
 454 623 427 549 321 547 c 0
 288 546 71 536 47 536 c 1
 46 591 l 1
 82 591 275 595 318 596 c 0
 374 598 404 627 401 667 c 1
 410 668 433 668 454 673 c 1
EndSplineSet
Validated: 37
Layer: 2
Layer: 3
EndChar

StartChar: knBA
Encoding: 3244 3244 295
Width: 470
Flags: MW
HStem: 0 61<133 170.5> 542 53<121.5 165>
VStem: 6 56 147 54 162 32 329 55
LayerCount: 4
Back
Fore
SplineSet
352 581 m 1xec
 413 595 l 1
 417 560 432 331 425 227 c 0
 413 60 384 0 312 0 c 0
 287 0 238 24 235 132 c 1
 230 24 194 0 147 0 c 0
 75 0 47 105 47 174 c 0
 47 326 163 370 184 460 c 0
 195 507 183 542 147 542 c 0xf4
 96 542 95 461 94 439 c 0
 91 439 46 437 43 437 c 0
 42 530 75 595 150 595 c 0
 202 595 253 553 242 461 c 0
 226 339 103 304 103 177 c 0
 103 125 113 61 153 61 c 0
 201 61 208 132 200 229 c 1
 264 229 l 1
 259 172 270 60 314 60 c 0
 359 60 367 139 370 225 c 0
 375 351 357 536 352 581 c 1xec
EndSplineSet
Validated: 33
Layer: 2
Layer: 3
EndChar

StartChar: knBHA
Encoding: 3245 3245 296
Width: 477
Flags: MW
HStem: -134 102 0 61<103 140.5> 536 54<272 288.5 272 272> 542 53<101 135>
VStem: 6 56 162 32 329 64
LayerCount: 4
Back
Fore
SplineSet
235 -130 m 1xee
 186 -137 l 1
 186 -102 186 -65 182 -30 c 1
 186 -32 227 -31 230 -30 c 2
 230 -51 l 2
 230 -78 232 -123 235 -130 c 1xee
404 388 m 2
 404 352 l 2
 404 79 354 0 282 0 c 0
 257 0 208 24 205 132 c 1
 200 24 164 0 117 0 c 0
 45 0 17 105 17 174 c 0
 17 341 133 370 154 460 c 0
 165 507 153 542 117 542 c 0
 85 542 64 499 65 440 c 1
 62 440 18 437 15 437 c 1
 15 523 36 595 120 595 c 0xde
 172 595 223 553 212 461 c 0
 196 339 73 324 73 177 c 0
 73 125 83 61 123 61 c 0
 171 61 178 132 170 229 c 1
 234 229 l 1
 229 172 240 60 284 60 c 0
 329 60 340 135 340 348 c 0
 340 521 305 536 272 536 c 1
 271 590 l 1
 385 590 404 462 404 388 c 2
464 672 m 1
 464 623 440 558 331 546 c 0
 312 544 284 537 272 536 c 1
 271 590 l 1xee
 286 590 315 594 328 595 c 0
 384 599 414 626 411 666 c 1
 420 667 443 667 464 672 c 1
EndSplineSet
Validated: 37
Layer: 2
Layer: 3
EndChar

StartChar: knMA
Encoding: 3246 3246 297
Width: 640
Flags: MW
HStem: 0 47<455.5 496.5 455.5 506> 0 59<296.5 343.5 295.5 360> 247 56<154.5 160> 546 44
VStem: 9 53 162 63 338 56 494 63
LayerCount: 4
Back
Fore
SplineSet
375 297 m 0x7f
 375 374 405 543 250 543 c 1
 251 543 251 545 251 550 c 2
 251 566 l 1
 251 582 l 2
 251 587 251 590 252 591 c 0
 411 591 431 463 431 354 c 2
 431 293 l 2
 431 113 409 0 311 0 c 0
 282 0 244 31 233 131 c 1
 228 67 210 0 148 0 c 0
 103 0 46 31 46 139 c 2
 46 156 l 2
 46 199 61 303 160 303 c 1
 160 247 l 1
 149 247 99 247 99 137 c 0
 99 92 111 60 142 60 c 0
 177 60 199 107 199 227 c 2
 199 228 l 1
 262 227 l 1
 262 136 279 59 312 59 c 0
 375 59 375 153 375 297 c 0x7f
531 569 m 1
 593 578 l 1
 591 453 588 350 585 227 c 0
 582 87 540 0 472 0 c 0
 427 0 405 27 388 59 c 1x7f
 416 110 l 1
 420 81 441 47 470 47 c 0xbf
 523 47 530 196 530 226 c 2
 531 569 l 1
491 672 m 1
 491 622 464 548 358 546 c 0
 325 545 109 540 70 536 c 1
 69 590 l 1
 69 590 80 590 101 590 c 0
 173 590 319 593 355 595 c 0
 411 599 445 624 442 664 c 1
 451 665 470 667 491 672 c 1
EndSplineSet
Validated: 37
Layer: 2
Layer: 3
EndChar

StartChar: knYA
Encoding: 3247 3247 298
Width: 711
Flags: MW
HStem: 0 46<161 221.5 161 243> 0 53<357.5 411 357.5 430.5> 538 44 540 48<144.5 205.5>
VStem: 1 54 224 55 291 16 405 60 560 63
LayerCount: 4
Back
Fore
SplineSet
268 290 m 0x9f80
 268 497 233 540 178 540 c 0
 111 540 99 471 99 301 c 0
 99 114 127 46 195 46 c 0
 248 46 268 111 268 290 c 0x9f80
323 263 m 0
 323 116 306 0 180 0 c 0
 83 0 45 85 45 291 c 0
 45 507 75 588 186 588 c 0
 306 588 323 468 323 263 c 0
509 312 m 0
 509 96 480 0 381 0 c 0
 282 0 269 108 269 192 c 1
 323 211 l 1
 322 110 333 53 382 53 c 0
 440 53 449 118 449 316 c 0
 449 521 408 536 352 531 c 1
 355 531 351 573 351 582 c 1x6f80
 449 582 509 546 509 312 c 0
603 568 m 1
 665 577 l 1
 662 454 662 350 658 227 c 0
 651 61 613 0 545 0 c 0
 500 0 478 27 461 59 c 1
 489 110 l 1
 493 81 514 47 543 47 c 0
 596 47 603 173 603 226 c 0
 603 318 604 477 603 568 c 1
553 664 m 1
 553 614 526 540 420 538 c 0
 391 537 349 530 338 530 c 1
 333 582 l 1
 341 579 373 584 417 587 c 0
 472 590 503 618 500 658 c 1
 509 659 532 659 553 664 c 1
EndSplineSet
Validated: 37
Layer: 2
Layer: 3
EndChar

StartChar: knRA
Encoding: 3248 3248 299
Width: 387
Flags: MW
HStem: 0 47<137 201 137 221> 546 44
VStem: 11 52 237 52
LayerCount: 4
Back
Fore
SplineSet
375 672 m 1
 375 622 348 548 242 546 c 0
 210 545 55 539 12 538 c 1
 12 590 l 1
 87 590 196 592 239 595 c 0
 295 598 325 626 322 666 c 1
 331 667 354 667 375 672 c 1
249 290 m 0
 249 499 213 542 157 542 c 0
 88 542 75 472 75 301 c 0
 75 112 101 47 173 47 c 0
 229 47 249 110 249 290 c 0
301 263 m 0
 301 116 284 0 158 0 c 0
 61 0 23 85 23 291 c 0
 23 507 43 588 164 588 c 0
 288 588 301 468 301 263 c 0
EndSplineSet
Validated: 37
Layer: 2
Layer: 3
EndChar

StartChar: knLA
Encoding: 3250 3250 300
Width: 413
Flags: MW
HStem: 0 49<178 250 178 259.5> 240 49<127.5 151 127 162.5> 555 38
VStem: 5 49 126 45 264 55
LayerCount: 4
Back
Fore
SplineSet
208 0 m 0
 124 0 52 75 48 203 c 0
 44 323 48 339 48 480 c 0
 48 564 89 593 123 593 c 0
 197 593 214 530 211 418 c 0
 208 279 187 240 138 240 c 0
 117 240 99 260 92 284 c 1
 95 257 97 234 97 202 c 0
 98 105 148 49 208 49 c 0
 292 49 304 138 304 233 c 2
 304 233 304 245 304 269 c 2
 304 332 l 1
 304 410 l 1
 304 486 l 2
 304 533 303 570 303 579 c 1
 367 595 l 1
 367 563 359 280 359 236 c 0
 359 103 311 0 208 0 c 0
166 405 m 0
 166 500 159 558 127 555 c 0
 112 554 94 530 94 491 c 0
 93 312 113 289 141 289 c 0
 161 289 165 310 166 405 c 0
EndSplineSet
Validated: 33
Layer: 2
Layer: 3
EndChar

StartChar: knVA
Encoding: 3253 3253 301
Width: 487
Flags: MW
HStem: 0 59<294 341.5 294 358> 247 56<132.5 138> 546 44
VStem: -1 53 152 63 348 56
LayerCount: 4
Back
Fore
SplineSet
429 293 m 0
 429 113 407 0 309 0 c 0
 279 0 222 31 211 131 c 1
 206 67 188 0 126 0 c 0
 81 0 24 31 24 139 c 2
 24 156 l 2
 24 199 39 303 138 303 c 1
 138 247 l 1
 127 247 77 247 77 137 c 0
 77 92 89 60 120 60 c 0
 155 60 177 107 177 227 c 2
 177 228 l 1
 240 227 l 1
 240 136 278 59 310 59 c 0
 373 59 373 153 373 297 c 0
 373 374 358 543 203 543 c 1
 204 543 204 545 204 550 c 2
 204 566 l 1
 204 582 l 2
 204 587 204 590 205 591 c 0
 397 591 429 407 429 293 c 0
463 670 m 1
 463 619 442 548 336 546 c 0
 303 545 82 540 38 536 c 1
 37 590 l 1
 111 590 290 592 333 595 c 0
 389 598 413 623 414 662 c 1
 425 665 447 666 463 670 c 1
EndSplineSet
Validated: 5
Layer: 2
Layer: 3
EndChar

StartChar: knSHA
Encoding: 3254 3254 302
Width: 465
Flags: MW
HStem: 0 58<189 259 189 273.5> 546 27<190 225.5 101.5 252.5>
VStem: 34 55 43 55 206 50 333 56
LayerCount: 4
Back
Fore
SplineSet
439 672 m 1
 439 622 412 548 306 546 c 0
 273 545 71 540 28 536 c 1
 27 590 l 1
 96 590 l 1
 176 592 l 2
 230 593 282 594 303 595 c 0
 359 598 393 624 390 664 c 1
 399 665 418 667 439 672 c 1
413 299 m 0
 413 92 332 0 215 0 c 0
 154 0 58 35 58 163 c 0
 58 269 119 324 184 369 c 0
 256 420 239 525 165 525 c 0
 110 525 108 452 153 415 c 1
 96 409 l 1
 57 443 39 573 164 573 c 0
 287 573 327 410 210 330 c 0
 170 303 113 250 113 162 c 0
 113 93 161 58 217 58 c 0
 301 58 357 131 357 303 c 0
 357 406 316 546 189 546 c 1
 191 546 186 590 188 592 c 0
 352 589 413 445 413 299 c 0
EndSplineSet
Validated: 37
Layer: 2
Layer: 3
EndChar

StartChar: knSSA
Encoding: 3255 3255 303
Width: 493
Flags: MW
HStem: 0 59<316 355 316 374> 247 56<154.5 160> 421 36 547 22
VStem: 9 53 57 46 162 63 210 45 363 55
LayerCount: 4
Back
Fore
SplineSet
455 226 m 0
 461 110 417 0 331 0 c 0
 301 0 244 31 233 131 c 1
 228 67 210 0 148 0 c 0
 103 0 46 31 46 139 c 2
 46 156 l 2
 46 199 61 303 160 303 c 1
 160 247 l 1
 149 247 99 247 99 137 c 0
 99 92 111 60 142 60 c 0
 177 60 199 107 199 227 c 2
 199 228 l 1
 262 227 l 1
 262 136 300 59 332 59 c 0
 378 59 408 125 400 225 c 0
 387 375 386 381 373 465 c 1
 437 481 l 1
 445 382 448 352 455 226 c 0
361 252 m 1
 454 -52 l 1
 411 -63 l 1
 313 246 l 1
 361 252 l 1
241 560 m 1
 286 560 l 1
 286 477 276 388 201 388 c 0
 131 388 115 464 115 563 c 1
 161 563 l 1
 161 512 160 424 200 424 c 0
 236 424 242 486 241 560 c 1
454 673 m 1
 454 623 427 549 321 547 c 0
 288 546 71 536 47 536 c 1
 46 591 l 1
 82 591 275 595 318 596 c 0
 374 598 404 627 401 667 c 1
 410 668 433 668 454 673 c 1
EndSplineSet
Validated: 37
Layer: 2
Layer: 3
EndChar

StartChar: knSA
Encoding: 3256 3256 304
Width: 453
Flags: MW
HStem: -4 21G<56 56> 0 59<232 320 232 334.5> 193 50<115.5 180.5> 421 36 547 22
VStem: 10 52 37 46 149 42 326 59
LayerCount: 4
Back
Fore
SplineSet
285 0 m 0x7d80
 140 0 219 193 142 193 c 0
 89 193 81 109 121 1 c 1
 56 -4 l 1xbd80
 27 129 45 243 138 243 c 0
 282 243 178 59 286 59 c 0
 354 59 360 120 360 251 c 0
 360 279 345 439 340 466 c 1
 404 482 l 1
 407 456 419 282 419 242 c 0
 419 87 384 0 285 0 c 0x7d80
221 560 m 1
 266 560 l 1
 266 477 256 388 181 388 c 0
 111 388 95 464 95 563 c 1
 141 563 l 1
 141 512 140 424 180 424 c 0
 216 424 222 486 221 560 c 1
434 673 m 1
 434 623 406 551 301 547 c 0
 268 546 61 536 37 536 c 1x7b80
 36 591 l 1
 72 591 255 595 298 596 c 0
 356 598 384 627 381 667 c 1
 390 668 413 668 434 673 c 1
EndSplineSet
Validated: 37
Layer: 2
Layer: 3
EndChar

StartChar: knHA
Encoding: 3257 3257 305
Width: 466
Flags: MW
HStem: 0 41<129 173.5 129 191.5 304 348.5> 401 43<121.5 164.5 296.5 339.5> 546 44
VStem: 1 52 176 50 182 41 351 50
LayerCount: 4
Back
Fore
SplineSet
425 672 m 1
 425 622 398 548 292 546 c 0
 259 545 54 539 42 539 c 1
 41 590 l 1
 53 590 246 592 289 595 c 0
 345 599 380 626 377 666 c 1
 382 666 420 672 425 672 c 1
383 218 m 0
 383 383 358 401 321 401 c 0
 272 401 260 328 260 229 c 0
 260 92 282 41 326 41 c 0
 371 41 383 70 383 218 c 0
433 231 m 0
 433 80 417 0 316 0 c 0
 240 0 208 75 208 220 c 0
 208 363 246 444 329 444 c 0
 420 444 433 356 433 231 c 0
255 320 m 1
 214 320 l 1
 217 355 216 385 213 416 c 0
 208 468 189 522 156 549 c 1
 211 549 l 1
 248 504 253 450 256 403 c 0
 257 376 260 348 255 320 c 1
208 218 m 0
 208 383 183 401 146 401 c 0
 97 401 85 328 85 229 c 0
 85 92 107 41 151 41 c 0
 196 41 208 70 208 218 c 0
258 231 m 0
 258 80 242 0 141 0 c 0
 65 0 33 75 33 220 c 0
 33 363 71 444 154 444 c 0
 245 444 258 356 258 231 c 0
EndSplineSet
Validated: 37
Layer: 2
Layer: 3
EndChar

StartChar: knRRA
Encoding: 3249 3249 306
Width: 470
Flags: MW
HStem: 0 60<119 171 119 186 305.5 346> 260 42<120.5 317 130.5 317 146 317 317 320.5 146 328 146 349.5> 552 41<352 359.5>
VStem: 10 48 125 49 166 35 234 49 350 48
LayerCount: 4
Back
Fore
SplineSet
156 419 m 0xf7
 153 516 150 556 118 553 c 0
 103 553 89 542 89 463 c 0
 89 312 104 304 132 304 c 0
 152 304 159 324 156 419 c 0xf7
381 462 m 0
 381 541 367 552 352 552 c 0
 320 555 316 515 314 418 c 0
 312 323 318 303 338 303 c 0
 366 303 381 311 381 462 c 0
429 489 m 2
 429 232 l 2
 429 101 402 0 322 0 c 0
 282 0 251 35 232 130 c 1
 224 85 226 0 146 0 c 0
 79 0 41 49 41 233 c 2
 41 490 l 2
 41 541 66 594 114 594 c 0
 185 594 205 532 205 419 c 0
 205 308 190 259 134 260 c 0
 107 260 98 278 89 289 c 1
 90 261 89 230 89 195 c 0
 89 147 89 60 149 60 c 0
 193 60 197 116 197 229 c 1
 261 229 l 1
 266 90 290 60 321 60 c 0
 371 60 381 122 381 163 c 2
 381 194 l 2
 381 229 380 260 381 288 c 1
 374 277 363 260 336 260 c 0
 280 259 265 307 265 418 c 0
 265 531 285 593 356 593 c 0
 404 593 429 540 429 489 c 2
336 293 m 2
 338 274 l 2
 339 265 336 260 328 260 c 2
 134 260 l 2
 127 260 126 265 125 272 c 2xfb
 126 290 l 2
 125 297 139 302 146 302 c 2
 317 302 l 2
 324 302 335 301 336 293 c 2
EndSplineSet
Validated: 37
Layer: 2
Layer: 3
EndChar

